# Blender v2.90.1 OBJ File: 'keypad.blend'
# www.blender.org
o Keypad
v -0.375000 1.000000 0.000000
v 0.375000 1.000000 0.000000
v -0.375000 0.000000 -0.000000
v 0.375000 0.000000 -0.000000
v 0.156250 0.335937 -0.000000
v 0.312500 0.335937 -0.000000
v 0.312500 0.218750 -0.000000
v 0.156250 0.218750 -0.000000
v 0.078125 0.218750 -0.000000
v 0.078125 0.335937 -0.000000
v -0.078125 0.335937 -0.000000
v -0.078125 0.218750 -0.000000
v -0.312500 0.218750 -0.000000
v -0.156250 0.218750 -0.000000
v -0.156250 0.335937 -0.000000
v -0.312500 0.335937 -0.000000
v 0.156250 0.394531 -0.000000
v 0.312500 0.394531 -0.000000
v 0.312500 0.511719 -0.000000
v 0.156250 0.511719 -0.000000
v 0.078125 0.394531 -0.000000
v 0.078125 0.511719 -0.000000
v -0.078125 0.511719 -0.000000
v -0.078125 0.394531 -0.000000
v -0.312500 0.394531 -0.000000
v -0.156250 0.394531 -0.000000
v -0.156250 0.511719 -0.000000
v -0.312500 0.511719 -0.000000
v 0.156250 0.570312 -0.000000
v 0.312500 0.570312 -0.000000
v 0.312500 0.687500 -0.000000
v 0.156250 0.687500 -0.000000
v 0.078125 0.570312 -0.000000
v 0.078125 0.687500 -0.000000
v -0.078125 0.687500 -0.000000
v -0.078125 0.570312 -0.000000
v -0.312500 0.570312 -0.000000
v -0.156250 0.570312 -0.000000
v -0.156250 0.687500 -0.000000
v -0.312500 0.687500 -0.000000
v 0.312500 0.750000 -0.000000
v 0.312500 0.937500 -0.000000
v -0.312500 0.937500 -0.000000
v -0.312500 0.750000 -0.000000
v 0.156250 0.042969 -0.000000
v 0.312500 0.042969 -0.000000
v 0.312500 0.160156 -0.000000
v 0.156250 0.160156 -0.000000
v 0.078125 0.042969 -0.000000
v 0.078125 0.160156 -0.000000
v -0.078125 0.160156 -0.000000
v -0.078125 0.042969 -0.000000
v -0.312500 0.042969 -0.000000
v -0.156250 0.042969 -0.000000
v -0.156250 0.160156 -0.000000
v -0.312500 0.160156 -0.000000
v 0.156250 0.335937 0.062500
v 0.312500 0.335937 0.062500
v 0.312500 0.218750 0.062500
v 0.156250 0.218750 0.062500
v 0.078125 0.218750 0.062500
v 0.078125 0.335937 0.062500
v -0.078125 0.335937 0.062500
v -0.078125 0.218750 0.062500
v -0.312500 0.218750 0.062500
v -0.156250 0.218750 0.062500
v -0.156250 0.335937 0.062500
v -0.312500 0.335937 0.062500
v 0.156250 0.394531 0.062500
v 0.312500 0.394531 0.062500
v 0.312500 0.511719 0.062500
v 0.156250 0.511719 0.062500
v 0.078125 0.394531 0.062500
v 0.078125 0.511719 0.062500
v -0.078125 0.511719 0.062500
v -0.078125 0.394531 0.062500
v -0.312500 0.394531 0.062500
v -0.156250 0.394531 0.062500
v -0.156250 0.511719 0.062500
v -0.312500 0.511719 0.062500
v 0.156250 0.570312 0.062500
v 0.312500 0.570312 0.062500
v 0.312500 0.687500 0.062500
v 0.156250 0.687500 0.062500
v 0.078125 0.570312 0.062500
v 0.078125 0.687500 0.062500
v -0.078125 0.687500 0.062500
v -0.078125 0.570312 0.062500
v -0.312500 0.570312 0.062500
v -0.156250 0.570312 0.062500
v -0.156250 0.687500 0.062500
v -0.312500 0.687500 0.062500
v 0.156250 0.042969 0.062500
v 0.312500 0.042969 0.062500
v 0.312500 0.160156 0.062500
v 0.156250 0.160156 0.062500
v 0.078125 0.042969 0.062500
v 0.078125 0.160156 0.062500
v -0.078125 0.160156 0.062500
v -0.078125 0.042969 0.062500
v -0.312500 0.042969 0.062500
v -0.156250 0.042969 0.062500
v -0.156250 0.160156 0.062500
v -0.312500 0.160156 0.062500
vt 0.646143 0.084689
vt 0.500000 0.045455
vt 0.698181 0.084686
vt 0.854220 0.511167
vt 0.958257 0.511154
vt 0.958209 0.564720
vt 0.958125 0.898034
vt 1.000000 0.954545
vt 0.500000 0.954545
vt 0.958171 0.727856
vt 0.802207 0.671031
vt 0.854202 0.671034
vt 0.542144 0.404584
vt 0.542128 0.351281
vt 0.542098 0.244664
vt 0.542084 0.191345
vt 0.854204 0.564482
vt 0.854204 0.564482
vt 0.802232 0.351246
vt 0.802241 0.244629
vt 0.802241 0.244629
vt 0.854252 0.351254
vt 0.802232 0.351246
vt 0.854202 0.671034
vt 0.698189 0.244628
vt 0.698189 0.244628
vt 0.958181 0.671088
vt 0.958181 0.671088
vt 0.958330 0.244661
vt 0.854268 0.244637
vt 0.854268 0.244637
vt 0.802249 0.084689
vt 0.854284 0.084691
vt 0.854284 0.084691
vt 0.958209 0.564720
vt 0.854252 0.351254
vt 0.646229 0.671031
vt 0.698223 0.671030
vt 0.698223 0.671030
vt 0.958301 0.351276
vt 0.958301 0.351276
vt 0.698204 0.404550
vt 0.646188 0.404562
vt 0.646188 0.404562
vt 0.958330 0.244661
vt 0.698199 0.351246
vt 0.646179 0.351256
vt 0.646179 0.351256
vt 0.542144 0.404584
vt 0.698181 0.084686
vt 0.542175 0.511154
vt 0.542175 0.511154
vt 0.542057 0.084698
vt 0.542057 0.084698
vt 0.646213 0.511168
vt 0.646213 0.511168
vt 0.542084 0.191345
vt 0.646155 0.191322
vt 0.646155 0.191322
vt 0.698218 0.511161
vt 0.698218 0.511161
vt 0.646143 0.084689
vt 0.802214 0.511159
vt 0.802214 0.511159
vt 0.698185 0.191315
vt 0.698185 0.191315
vt 0.802228 0.404551
vt 0.802228 0.404551
vt 0.802244 0.191316
vt 0.802244 0.191316
vt 0.698204 0.404550
vt 0.802249 0.084689
vt 0.958287 0.404582
vt 0.854245 0.404561
vt 0.854245 0.404561
vt 0.854220 0.511167
vt 0.958368 0.084698
vt 0.958257 0.511154
vt 0.854274 0.191322
vt 0.854274 0.191322
vt 0.958287 0.404582
vt 0.958343 0.191342
vt 0.958343 0.191342
vt 0.646227 0.564481
vt 0.542225 0.564718
vt 0.542225 0.564718
vt 0.958368 0.084698
vt 0.542254 0.671081
vt 0.542254 0.671081
vt 0.646229 0.671031
vt 0.646227 0.564481
vt 0.542128 0.351281
vt 0.698222 0.564458
vt 0.646162 0.244637
vt 0.542098 0.244664
vt 0.802209 0.564457
vt 0.802207 0.671031
vt 0.646162 0.244637
vt 0.802209 0.564457
vt 0.698199 0.351246
vt 0.698222 0.564458
vt 1.000000 0.045455
vt 0.542266 0.727846
vt 0.542316 0.898011
vn 0.0000 0.0000 -1.0000
vn 0.0000 1.0000 0.0000
vn 1.0000 0.0000 0.0000
vn -1.0000 0.0000 0.0000
vn 0.0000 -1.0000 0.0000
s off
f 45/1/1 4/2/1 49/3/1
f 27/4/1 28/5/1 37/6/1
f 43/7/1 1/8/1 2/9/1
f 44/10/1 35/11/1 39/12/1
f 18/13/1 4/2/1 6/14/1
f 7/15/1 4/2/1 47/16/1
f 37/6/2 90/17/2 38/18/2
f 11/19/3 64/20/3 12/21/3
f 15/22/2 63/23/2 11/19/2
f 38/18/4 91/24/4 39/12/4
f 12/21/2 61/25/2 9/26/2
f 39/12/5 92/27/5 40/28/5
f 13/29/2 66/30/2 14/31/2
f 52/32/5 102/33/5 54/34/5
f 40/28/3 89/35/3 37/6/3
f 14/31/4 67/36/4 15/22/4
f 32/37/5 86/38/5 34/39/5
f 15/22/5 68/40/5 16/41/5
f 21/42/2 69/43/2 17/44/2
f 16/41/3 65/45/3 13/29/3
f 10/46/2 57/47/2 5/48/2
f 17/44/2 70/49/2 18/13/2
f 45/1/5 97/50/5 49/3/5
f 18/13/4 71/51/4 19/52/4
f 45/1/2 94/53/2 46/54/2
f 19/52/5 72/55/5 20/56/5
f 46/54/4 95/57/4 47/16/4
f 20/56/3 69/43/3 17/44/3
f 47/16/5 96/58/5 48/59/5
f 21/42/4 74/60/4 22/61/4
f 48/59/3 93/62/3 45/1/3
f 22/61/5 75/63/5 23/64/5
f 49/3/4 98/65/4 50/66/4
f 23/64/3 76/67/3 24/68/3
f 50/66/5 99/69/5 51/70/5
f 24/68/2 73/71/2 21/42/2
f 51/70/3 100/72/3 52/32/3
f 25/73/2 78/74/2 26/75/2
f 52/32/2 97/50/2 49/3/2
f 26/75/4 79/76/4 27/4/4
f 53/77/2 102/33/2 54/34/2
f 27/4/5 80/78/5 28/5/5
f 54/34/4 103/79/4 55/80/4
f 28/5/3 77/81/3 25/73/3
f 55/80/5 104/82/5 56/83/5
f 29/84/2 82/85/2 30/86/2
f 56/83/3 101/87/3 53/77/3
f 30/86/4 83/88/4 31/89/4
f 31/89/5 84/90/5 32/37/5
f 6/14/5 57/47/5 5/48/5
f 32/37/3 81/91/3 29/84/3
f 7/15/4 58/92/4 6/14/4
f 33/93/4 86/38/4 34/39/4
f 8/94/2 59/95/2 7/15/2
f 36/96/5 90/17/5 38/18/5
f 34/39/5 87/97/5 35/11/5
f 5/48/3 60/98/3 8/94/3
f 35/11/3 88/99/3 36/96/3
f 9/26/4 62/100/4 10/46/4
f 26/75/2 76/67/2 24/68/2
f 36/96/2 85/101/2 33/93/2
f 10/46/5 63/23/5 11/19/5
f 3/102/1 56/83/1 53/77/1
f 54/34/1 52/32/1 3/102/1
f 52/32/1 49/3/1 3/102/1
f 3/102/1 53/77/1 54/34/1
f 46/54/1 4/2/1 45/1/1
f 4/2/1 3/102/1 49/3/1
f 2/9/1 4/2/1 19/52/1
f 4/2/1 18/13/1 19/52/1
f 30/86/1 2/9/1 19/52/1
f 20/56/1 17/44/1 21/42/1
f 30/86/1 19/52/1 20/56/1
f 34/39/1 32/37/1 29/84/1
f 29/84/1 30/86/1 20/56/1
f 20/56/1 21/42/1 22/61/1
f 23/64/1 24/68/1 26/75/1
f 29/84/1 20/56/1 22/61/1
f 23/64/1 26/75/1 27/4/1
f 29/84/1 22/61/1 33/93/1
f 22/61/1 23/64/1 33/93/1
f 33/93/1 34/39/1 29/84/1
f 37/6/1 38/18/1 27/4/1
f 38/18/1 36/96/1 27/4/1
f 36/96/1 33/93/1 23/64/1
f 27/4/1 36/96/1 23/64/1
f 1/8/1 40/28/1 37/6/1
f 28/5/1 1/8/1 37/6/1
f 2/9/1 41/103/1 42/104/1
f 42/104/1 43/7/1 2/9/1
f 2/9/1 30/86/1 31/89/1
f 32/37/1 34/39/1 41/103/1
f 34/39/1 35/11/1 44/10/1
f 41/103/1 2/9/1 31/89/1
f 1/8/1 43/7/1 44/10/1
f 44/10/1 41/103/1 34/39/1
f 41/103/1 31/89/1 32/37/1
f 40/28/1 1/8/1 44/10/1
f 35/11/1 36/96/1 38/18/1
f 39/12/1 40/28/1 44/10/1
f 35/11/1 38/18/1 39/12/1
f 3/102/1 1/8/1 28/5/1
f 25/73/1 26/75/1 16/41/1
f 26/75/1 24/68/1 15/22/1
f 16/41/1 26/75/1 15/22/1
f 3/102/1 28/5/1 25/73/1
f 16/41/1 3/102/1 25/73/1
f 24/68/1 21/42/1 10/46/1
f 21/42/1 17/44/1 10/46/1
f 10/46/1 11/19/1 24/68/1
f 11/19/1 15/22/1 24/68/1
f 17/44/1 18/13/1 5/48/1
f 10/46/1 17/44/1 5/48/1
f 6/14/1 5/48/1 18/13/1
f 14/31/1 15/22/1 11/19/1
f 14/31/1 11/19/1 12/21/1
f 3/102/1 16/41/1 13/29/1
f 14/31/1 12/21/1 55/80/1
f 12/21/1 9/26/1 51/70/1
f 55/80/1 12/21/1 51/70/1
f 56/83/1 3/102/1 13/29/1
f 52/32/1 54/34/1 55/80/1
f 55/80/1 56/83/1 13/29/1
f 13/29/1 14/31/1 55/80/1
f 51/70/1 52/32/1 55/80/1
f 9/26/1 10/46/1 8/94/1
f 10/46/1 5/48/1 8/94/1
f 45/1/1 49/3/1 50/66/1
f 50/66/1 51/70/1 9/26/1
f 9/26/1 8/94/1 48/59/1
f 8/94/1 7/15/1 48/59/1
f 45/1/1 50/66/1 48/59/1
f 50/66/1 9/26/1 48/59/1
f 7/15/1 6/14/1 4/2/1
f 4/2/1 46/54/1 47/16/1
f 47/16/1 48/59/1 7/15/1
f 37/6/2 89/35/2 90/17/2
f 11/19/3 63/23/3 64/20/3
f 15/22/2 67/36/2 63/23/2
f 38/18/4 90/17/4 91/24/4
f 12/21/2 64/20/2 61/25/2
f 39/12/5 91/24/5 92/27/5
f 13/29/2 65/45/2 66/30/2
f 52/32/5 100/72/5 102/33/5
f 40/28/3 92/27/3 89/35/3
f 14/31/4 66/30/4 67/36/4
f 32/37/5 84/90/5 86/38/5
f 15/22/5 67/36/5 68/40/5
f 21/42/2 73/71/2 69/43/2
f 16/41/3 68/40/3 65/45/3
f 10/46/2 62/100/2 57/47/2
f 17/44/2 69/43/2 70/49/2
f 45/1/5 93/62/5 97/50/5
f 18/13/4 70/49/4 71/51/4
f 45/1/2 93/62/2 94/53/2
f 19/52/5 71/51/5 72/55/5
f 46/54/4 94/53/4 95/57/4
f 20/56/3 72/55/3 69/43/3
f 47/16/5 95/57/5 96/58/5
f 21/42/4 73/71/4 74/60/4
f 48/59/3 96/58/3 93/62/3
f 22/61/5 74/60/5 75/63/5
f 49/3/4 97/50/4 98/65/4
f 23/64/3 75/63/3 76/67/3
f 50/66/5 98/65/5 99/69/5
f 24/68/2 76/67/2 73/71/2
f 51/70/3 99/69/3 100/72/3
f 25/73/2 77/81/2 78/74/2
f 52/32/2 100/72/2 97/50/2
f 26/75/4 78/74/4 79/76/4
f 53/77/2 101/87/2 102/33/2
f 27/4/5 79/76/5 80/78/5
f 54/34/4 102/33/4 103/79/4
f 28/5/3 80/78/3 77/81/3
f 55/80/5 103/79/5 104/82/5
f 29/84/2 81/91/2 82/85/2
f 56/83/3 104/82/3 101/87/3
f 30/86/4 82/85/4 83/88/4
f 31/89/5 83/88/5 84/90/5
f 6/14/5 58/92/5 57/47/5
f 32/37/3 84/90/3 81/91/3
f 7/15/4 59/95/4 58/92/4
f 33/93/4 85/101/4 86/38/4
f 8/94/2 60/98/2 59/95/2
f 36/96/5 88/99/5 90/17/5
f 34/39/5 86/38/5 87/97/5
f 5/48/3 57/47/3 60/98/3
f 35/11/3 87/97/3 88/99/3
f 9/26/4 61/25/4 62/100/4
f 26/75/2 78/74/2 76/67/2
f 36/96/2 88/99/2 85/101/2
f 10/46/5 62/100/5 63/23/5
o Display
v 0.312500 0.750000 -0.000000
v 0.312500 0.937500 -0.000000
v -0.312500 0.937500 -0.000000
v -0.312500 0.750000 -0.000000
v 0.312500 0.750000 0.031250
v 0.312500 0.937500 0.031250
v -0.312500 0.937500 0.031250
v -0.312500 0.750000 0.031250
vt 0.033333 0.954545
vt 0.466667 0.772727
vt 0.466667 0.954545
vt 0.500000 0.954545
vt 0.500000 0.772727
vt 0.000000 0.772727
vt 0.000000 0.954545
vt 0.466667 0.727273
vt 0.033333 0.772727
vt 0.033333 0.727273
vt 0.033333 1.000000
vt 0.466667 1.000000
vn 0.0000 0.0000 -1.0000
vn 1.0000 -0.0000 0.0000
vn -1.0000 0.0000 0.0000
vn 0.0000 1.0000 0.0000
vn 0.0000 -1.0000 0.0000
s off
f 110/105/6 112/106/6 111/107/6
f 107/108/7 112/106/7 108/109/7
f 105/110/8 110/105/8 106/111/8
f 108/112/9 109/113/9 105/114/9
f 106/115/10 111/107/10 107/116/10
f 110/105/6 109/113/6 112/106/6
f 107/108/7 111/107/7 112/106/7
f 105/110/8 109/113/8 110/105/8
f 108/112/9 112/106/9 109/113/9
f 106/115/10 110/105/10 111/107/10
o K1
v 0.156250 0.570312 -0.000000
v 0.312500 0.570312 -0.000000
v 0.312500 0.687500 -0.000000
v 0.156250 0.687500 -0.000000
v 0.175781 0.584961 -0.062500
v 0.292969 0.584961 -0.062500
v 0.292969 0.672851 -0.062500
v 0.175781 0.672851 -0.062500
vt 0.166667 0.590909
vt 0.133333 0.681818
vt 0.133333 0.590909
vt 0.033333 0.590909
vt 0.033333 0.681818
vt 0.000000 0.590909
vt 0.000000 0.681818
vt 0.033333 0.727273
vt 0.133333 0.727273
vt 0.133333 0.545455
vt 0.033333 0.545455
vt 0.166667 0.681818
vn -0.9545 0.0000 -0.2983
vn 0.0000 0.0000 -1.0000
vn 0.9545 0.0000 -0.2983
vn 0.0000 0.9736 -0.2282
vn 0.0000 -0.9736 -0.2282
s off
f 113/117/11 120/118/11 117/119/11
f 118/120/12 120/118/12 119/121/12
f 114/122/13 119/121/13 115/123/13
f 115/124/14 120/118/14 116/125/14
f 113/126/15 118/120/15 114/127/15
f 113/117/11 116/128/11 120/118/11
f 118/120/12 117/119/12 120/118/12
f 114/122/13 118/120/13 119/121/13
f 115/124/14 119/121/14 120/118/14
f 113/126/15 117/119/15 118/120/15
o K2
v 0.078125 0.570312 -0.000000
v 0.078125 0.687500 -0.000000
v -0.078125 0.687500 -0.000000
v -0.078125 0.570312 -0.000000
v 0.058594 0.584961 -0.062500
v 0.058594 0.672851 -0.062500
v -0.058594 0.672851 -0.062500
v -0.058594 0.584961 -0.062500
vt 0.200000 0.681818
vt 0.300000 0.590909
vt 0.300000 0.681818
vt 0.166667 0.590909
vt 0.166667 0.681818
vt 0.200000 0.727273
vt 0.300000 0.727273
vt 0.333333 0.681818
vt 0.333333 0.590909
vt 0.300000 0.545455
vt 0.200000 0.590909
vt 0.200000 0.545455
vn 0.0000 0.0000 -1.0000
vn 0.9545 -0.0000 -0.2983
vn 0.0000 0.9736 -0.2282
vn -0.9545 0.0000 -0.2983
vn 0.0000 -0.9736 -0.2282
s off
f 126/129/16 128/130/16 127/131/16
f 121/132/17 126/129/17 122/133/17
f 122/134/18 127/131/18 123/135/18
f 123/136/19 128/130/19 124/137/19
f 124/138/20 125/139/20 121/140/20
f 126/129/16 125/139/16 128/130/16
f 121/132/17 125/139/17 126/129/17
f 122/134/18 126/129/18 127/131/18
f 123/136/19 127/131/19 128/130/19
f 124/138/20 128/130/20 125/139/20
o K3
v -0.312500 0.570312 -0.000000
v -0.156250 0.570312 -0.000000
v -0.156250 0.687500 -0.000000
v -0.312500 0.687500 -0.000000
v -0.292969 0.584961 -0.062500
v -0.175781 0.584961 -0.062500
v -0.175781 0.672851 -0.062500
v -0.292969 0.672851 -0.062500
vt 0.500000 0.681818
vt 0.466667 0.590909
vt 0.500000 0.590909
vt 0.366667 0.727273
vt 0.466667 0.681818
vt 0.466667 0.727273
vt 0.333333 0.590909
vt 0.366667 0.681818
vt 0.333333 0.681818
vt 0.366667 0.590909
vt 0.466667 0.545455
vt 0.366667 0.545455
vn -0.9545 0.0000 -0.2983
vn 0.0000 0.9736 -0.2282
vn 0.9545 0.0000 -0.2983
vn 0.0000 0.0000 -1.0000
vn 0.0000 -0.9736 -0.2282
s off
f 132/141/21 133/142/21 129/143/21
f 131/144/22 136/145/22 132/146/22
f 130/147/23 135/148/23 131/149/23
f 134/150/24 136/145/24 135/148/24
f 129/151/25 134/150/25 130/152/25
f 132/141/21 136/145/21 133/142/21
f 131/144/22 135/148/22 136/145/22
f 130/147/23 134/150/23 135/148/23
f 134/150/24 133/142/24 136/145/24
f 129/151/25 133/142/25 134/150/25
o K4
v 0.156250 0.394531 -0.000000
v 0.312500 0.394531 -0.000000
v 0.312500 0.511719 -0.000000
v 0.156250 0.511719 -0.000000
v 0.175781 0.409180 -0.062500
v 0.292969 0.409180 -0.062500
v 0.292969 0.497070 -0.062500
v 0.175781 0.497070 -0.062500
vt 0.133333 0.500000
vt 0.033333 0.409091
vt 0.133333 0.409091
vt 0.133333 0.363636
vt 0.033333 0.363636
vt 0.000000 0.409091
vt 0.033333 0.500000
vt -0.000000 0.500000
vt 0.033333 0.545455
vt 0.133333 0.545455
vt 0.166667 0.409091
vt 0.166667 0.500000
vn 0.0000 0.0000 -1.0000
vn 0.0000 -0.9736 -0.2282
vn 0.9545 0.0000 -0.2983
vn 0.0000 0.9736 -0.2282
vn -0.9545 -0.0000 -0.2983
s off
f 144/153/26 142/154/26 141/155/26
f 137/156/27 142/154/27 138/157/27
f 138/158/28 143/159/28 139/160/28
f 139/161/29 144/153/29 140/162/29
f 137/163/30 144/153/30 141/155/30
f 144/153/26 143/159/26 142/154/26
f 137/156/27 141/155/27 142/154/27
f 138/158/28 142/154/28 143/159/28
f 139/161/29 143/159/29 144/153/29
f 137/163/30 140/164/30 144/153/30
o K5
v 0.078125 0.394531 -0.000000
v 0.078125 0.511719 -0.000000
v -0.078125 0.511719 -0.000000
v -0.078125 0.394531 -0.000000
v 0.058594 0.409180 -0.062500
v 0.058594 0.497070 -0.062500
v -0.058594 0.497070 -0.062500
v -0.058594 0.409180 -0.062500
vt 0.300000 0.500000
vt 0.200000 0.409091
vt 0.300000 0.409091
vt 0.166667 0.500000
vt 0.200000 0.500000
vt 0.300000 0.545455
vt 0.333333 0.500000
vt 0.333333 0.409091
vt 0.300000 0.363636
vt 0.200000 0.363636
vt 0.166667 0.409091
vt 0.200000 0.545455
vn 0.0000 0.0000 -1.0000
vn 0.9545 0.0000 -0.2983
vn 0.0000 0.9736 -0.2282
vn -0.9545 0.0000 -0.2983
vn 0.0000 -0.9736 -0.2282
s off
f 151/165/31 149/166/31 152/167/31
f 146/168/32 149/166/32 150/169/32
f 147/170/33 150/169/33 151/165/33
f 147/171/34 152/167/34 148/172/34
f 148/173/35 149/166/35 145/174/35
f 151/165/31 150/169/31 149/166/31
f 146/168/32 145/175/32 149/166/32
f 147/170/33 146/176/33 150/169/33
f 147/171/34 151/165/34 152/167/34
f 148/173/35 152/167/35 149/166/35
o K6
v -0.312500 0.394531 -0.000000
v -0.156250 0.394531 -0.000000
v -0.156250 0.511719 -0.000000
v -0.312500 0.511719 -0.000000
v -0.292969 0.409180 -0.062500
v -0.175781 0.409180 -0.062500
v -0.175781 0.497070 -0.062500
v -0.292969 0.497070 -0.062500
vt 0.366667 0.545455
vt 0.466667 0.500000
vt 0.466667 0.545455
vt 0.333333 0.409091
vt 0.366667 0.500000
vt 0.333333 0.500000
vt 0.466667 0.363636
vt 0.366667 0.409091
vt 0.366667 0.363636
vt 0.466667 0.409091
vt 0.500000 0.500000
vt 0.500000 0.409091
vn 0.0000 0.9736 -0.2282
vn 0.9545 0.0000 -0.2983
vn 0.0000 -0.9736 -0.2282
vn 0.0000 0.0000 -1.0000
vn -0.9545 0.0000 -0.2983
s off
f 155/177/36 160/178/36 156/179/36
f 154/180/37 159/181/37 155/182/37
f 153/183/38 158/184/38 154/185/38
f 160/178/39 158/184/39 157/186/39
f 156/187/40 157/186/40 153/188/40
f 155/177/36 159/181/36 160/178/36
f 154/180/37 158/184/37 159/181/37
f 153/183/38 157/186/38 158/184/38
f 160/178/39 159/181/39 158/184/39
f 156/187/40 160/178/40 157/186/40
o K7
v 0.156250 0.335937 -0.000000
v 0.312500 0.335937 -0.000000
v 0.312500 0.218750 -0.000000
v 0.156250 0.218750 -0.000000
v 0.175781 0.321289 -0.062500
v 0.292969 0.321289 -0.062500
v 0.292969 0.233398 -0.062500
v 0.175781 0.233398 -0.062500
vt 0.133333 0.227273
vt 0.033333 0.318182
vt 0.033333 0.227273
vt 0.133333 0.363636
vt 0.133333 0.318182
vt 0.000000 0.227273
vt 0.000000 0.318182
vt 0.133333 0.181818
vt 0.033333 0.181818
vt 0.166667 0.318182
vt 0.166667 0.227273
vt 0.033333 0.363636
vn 0.0000 0.0000 -1.0000
vn 0.0000 0.9736 -0.2282
vn 0.9545 0.0000 -0.2983
vn 0.0000 -0.9736 -0.2282
vn -0.9545 0.0000 -0.2983
s off
f 168/189/41 166/190/41 167/191/41
f 161/192/42 166/190/42 165/193/42
f 163/194/43 166/190/43 162/195/43
f 164/196/44 167/191/44 163/197/44
f 161/198/45 168/189/45 164/199/45
f 168/189/41 165/193/41 166/190/41
f 161/192/42 162/200/42 166/190/42
f 163/194/43 167/191/43 166/190/43
f 164/196/44 168/189/44 167/191/44
f 161/198/45 165/193/45 168/189/45
o K8
v 0.078125 0.218750 -0.000000
v 0.078125 0.335937 -0.000000
v -0.078125 0.335937 -0.000000
v -0.078125 0.218750 -0.000000
v 0.058594 0.233398 -0.062500
v 0.058594 0.321289 -0.062500
v -0.058594 0.321289 -0.062500
v -0.058594 0.233398 -0.062500
vt 0.300000 0.181818
vt 0.200000 0.227273
vt 0.200000 0.181818
vt 0.300000 0.318182
vt 0.200000 0.318182
vt 0.166667 0.227273
vt 0.166667 0.318182
vt 0.200000 0.363636
vt 0.300000 0.363636
vt 0.333333 0.318182
vt 0.300000 0.227273
vt 0.333333 0.227273
vn 0.0000 -0.9736 -0.2282
vn 0.0000 0.0000 -1.0000
vn 0.9545 -0.0000 -0.2983
vn 0.0000 0.9736 -0.2282
vn -0.9545 0.0000 -0.2983
s off
f 172/201/46 173/202/46 169/203/46
f 173/202/47 175/204/47 174/205/47
f 169/206/48 174/205/48 170/207/48
f 170/208/49 175/204/49 171/209/49
f 171/210/50 176/211/50 172/212/50
f 172/201/46 176/211/46 173/202/46
f 173/202/47 176/211/47 175/204/47
f 169/206/48 173/202/48 174/205/48
f 170/208/49 174/205/49 175/204/49
f 171/210/50 175/204/50 176/211/50
o K9
v -0.312500 0.218750 -0.000000
v -0.156250 0.218750 -0.000000
v -0.156250 0.335937 -0.000000
v -0.312500 0.335937 -0.000000
v -0.292969 0.233398 -0.062500
v -0.175781 0.233398 -0.062500
v -0.175781 0.321289 -0.062500
v -0.292969 0.321289 -0.062500
vt 0.466667 0.181818
vt 0.366667 0.227273
vt 0.366667 0.181818
vt 0.466667 0.318182
vt 0.466667 0.227273
vt 0.333333 0.318182
vt 0.366667 0.318182
vt 0.466667 0.363636
vt 0.500000 0.318182
vt 0.500000 0.227273
vt 0.333333 0.227273
vt 0.366667 0.363636
vn 0.0000 -0.9736 -0.2282
vn 0.0000 0.0000 -1.0000
vn 0.9545 0.0000 -0.2983
vn -0.0000 0.9736 -0.2282
vn -0.9545 0.0000 -0.2983
s off
f 177/213/51 182/214/51 178/215/51
f 184/216/52 182/214/52 181/217/52
f 179/218/53 182/214/53 183/219/53
f 180/220/54 183/219/54 184/216/54
f 180/221/55 181/217/55 177/222/55
f 177/213/51 181/217/51 182/214/51
f 184/216/52 183/219/52 182/214/52
f 179/218/53 178/223/53 182/214/53
f 180/220/54 179/224/54 183/219/54
f 180/221/55 184/216/55 181/217/55
o K0
v 0.078125 0.042969 -0.000000
v 0.078125 0.160156 -0.000000
v -0.078125 0.160156 -0.000000
v -0.078125 0.042969 -0.000000
v 0.058594 0.057617 -0.062500
v 0.058594 0.145508 -0.062500
v -0.058594 0.145508 -0.062500
v -0.058594 0.057617 -0.062500
vt 0.300000 0.000000
vt 0.200000 0.045455
vt 0.200000 0.000000
vt 0.200000 0.136364
vt 0.300000 0.045455
vt 0.300000 0.136364
vt 0.166667 0.045455
vt 0.166667 0.136364
vt 0.200000 0.181818
vt 0.300000 0.181818
vt 0.333333 0.136364
vt 0.333333 0.045455
vn 0.0000 -0.9736 -0.2282
vn 0.0000 0.0000 -1.0000
vn 0.9545 0.0000 -0.2983
vn 0.0000 0.9736 -0.2282
vn -0.9545 0.0000 -0.2983
s off
f 188/225/56 189/226/56 185/227/56
f 190/228/57 192/229/57 191/230/57
f 185/231/58 190/228/58 186/232/58
f 186/233/59 191/230/59 187/234/59
f 187/235/60 192/229/60 188/236/60
f 188/225/56 192/229/56 189/226/56
f 190/228/57 189/226/57 192/229/57
f 185/231/58 189/226/58 190/228/58
f 186/233/59 190/228/59 191/230/59
f 187/235/60 191/230/60 192/229/60
o KReturn
v -0.312500 0.042969 -0.000000
v -0.156250 0.042969 -0.000000
v -0.156250 0.160156 -0.000000
v -0.312500 0.160156 -0.000000
v -0.292969 0.057617 -0.062500
v -0.175781 0.057617 -0.062500
v -0.175781 0.145508 -0.062500
v -0.292969 0.145508 -0.062500
vt 0.333333 0.045455
vt 0.366667 0.136364
vt 0.333333 0.136364
vt 0.466667 -0.000000
vt 0.366667 0.045455
vt 0.366667 -0.000000
vt 0.466667 0.136364
vt 0.366667 0.181818
vt 0.466667 0.181818
vt 0.500000 0.136364
vt 0.466667 0.045455
vt 0.500000 0.045455
vn 0.9545 0.0000 -0.2983
vn 0.0000 -0.9736 -0.2282
vn 0.0000 0.0000 -1.0000
vn 0.0000 0.9736 -0.2282
vn -0.9545 0.0000 -0.2983
s off
f 194/237/61 199/238/61 195/239/61
f 193/240/62 198/241/62 194/242/62
f 198/241/63 200/243/63 199/238/63
f 195/244/64 200/243/64 196/245/64
f 196/246/65 197/247/65 193/248/65
f 194/237/61 198/241/61 199/238/61
f 193/240/62 197/247/62 198/241/62
f 198/241/63 197/247/63 200/243/63
f 195/244/64 199/238/64 200/243/64
f 196/246/65 200/243/65 197/247/65
o KReset
v 0.156250 0.042969 -0.000000
v 0.312500 0.042969 -0.000000
v 0.312500 0.160156 -0.000000
v 0.156250 0.160156 -0.000000
v 0.175781 0.057617 -0.062500
v 0.292969 0.057617 -0.062500
v 0.292969 0.145508 -0.062500
v 0.175781 0.145508 -0.062500
vt 0.033333 0.136364
vt 0.133333 0.045455
vt 0.133333 0.136364
vt 0.033333 0.000000
vt 0.033333 0.045455
vt 0.000000 0.045455
vt 0.000000 0.136364
vt 0.033333 0.181818
vt 0.133333 0.181818
vt 0.166667 0.136364
vt 0.166667 0.045455
vt 0.133333 0.000000
vn 0.0000 0.0000 -1.0000
vn 0.0000 -0.9736 -0.2282
vn 0.9545 -0.0000 -0.2983
vn 0.0000 0.9736 -0.2282
vn -0.9545 0.0000 -0.2983
s off
f 207/249/66 205/250/66 208/251/66
f 202/252/67 205/250/67 206/253/67
f 202/254/68 207/249/68 203/255/68
f 203/256/69 208/251/69 204/257/69
f 204/258/70 205/250/70 201/259/70
f 207/249/66 206/253/66 205/250/66
f 202/252/67 201/260/67 205/250/67
f 202/254/68 206/253/68 207/249/68
f 203/256/69 207/249/69 208/251/69
f 204/258/70 208/251/70 205/250/70
