# Blender v2.76 (sub 0) OBJ File: 'railgun_base.blend'
# www.blender.org
o Cylinder
v 0.500000 0.062500 -1.116025
v 0.000000 0.125000 -1.000000
v 0.500000 0.000000 -0.866025
v 0.500000 0.125000 -0.866025
v 0.866025 0.000000 -0.500000
v 0.866025 0.125000 -0.500000
v -0.500001 0.062500 -1.116025
v 1.000000 0.125000 0.000000
v 0.866025 0.000000 0.500000
v 0.866025 0.125000 0.500000
v 0.500000 0.000000 0.866025
v 0.500000 0.125000 0.866025
v 0.000000 0.125000 1.000000
v -0.500000 0.000000 0.866026
v -0.500000 0.125000 0.866026
v -0.866025 0.000000 0.500000
v -0.866025 0.125000 0.500000
v -1.000000 0.125000 0.000000
v -0.866026 0.000000 -0.499999
v -0.866026 0.125000 -0.499999
v -0.500001 0.000000 -0.866025
v -0.500001 0.125000 -0.866025
v 0.500000 0.062500 0.866025
v 0.000000 0.062500 1.000000
v -0.500000 0.062500 0.866026
v 0.866025 0.062500 -0.500000
v 1.000000 0.062500 0.000000
v 0.866025 0.062500 0.500000
v 0.000000 0.062500 -1.000000
v 0.500000 0.062500 -0.866025
v -0.500001 0.062500 -0.866025
v -0.866025 0.062500 0.500000
v -1.000000 0.062500 0.000000
v -0.866026 0.062500 -0.499999
v 1.116025 0.062500 -0.500000
v 1.116025 0.062500 0.500000
v 0.500000 0.062500 1.116025
v -0.500000 0.062500 1.116025
v -1.116025 0.062500 0.500000
v -1.116026 0.062500 -0.499999
v 0.500000 0.000000 -1.466025
v -0.500001 0.000000 -1.466025
v 1.466025 0.000000 -0.500000
v 1.466025 0.000000 0.500000
v 0.500000 0.000000 1.466025
v -0.500000 0.000000 1.466025
v -1.466025 0.000000 0.500001
v -1.466026 0.000000 -0.499999
vt 0.600000 0.850000
vt 0.500000 0.850000
vt 0.500000 0.833333
vt 0.400000 0.833333
vt 0.400000 0.816667
vt 0.400000 0.850000
vt 0.300000 0.850000
vt 0.300000 0.833333
vt 0.897533 0.641910
vt 0.604934 0.416667
vt 0.897533 0.191424
vt 0.100000 0.933333
vt 0.300000 0.933333
vt 0.300000 1.000000
vt 0.468654 0.287367
vt 0.397825 0.639816
vt 0.204317 0.192928
vt 0.287500 1.000000
vt 0.204317 0.038122
vt 0.397825 0.038122
vt 0.397825 0.794623
vt 0.204317 0.794623
vt 0.133488 0.545378
vt 0.017383 0.545378
vt 0.017383 0.287366
vt 0.100000 0.816667
vt 0.300000 0.816667
vt 0.112500 1.000000
vt 0.112500 0.816667
vt 0.584759 0.287367
vt 0.584759 0.545378
vt 0.600000 0.833333
vt 0.500000 0.816667
vt 0.968932 0.286623
vt 0.995066 0.416667
vt 0.968932 0.546711
vt 0.800000 0.676755
vt 0.702467 0.641910
vt 0.631068 0.546711
vt 0.631068 0.286623
vt 0.702467 0.191424
vt 0.800000 0.156579
vt 0.100000 1.000000
vt 0.133488 0.287366
vt 0.397825 0.192928
vt 0.468654 0.545378
vt 0.204317 0.639816
vt 0.287500 0.816667
vn 0.258800 0.000000 -0.965900
vn 0.707100 0.000000 -0.707100
vn 0.965900 0.000000 -0.258800
vn 0.965900 0.000000 0.258800
vn 0.707100 0.000000 0.707100
vn 0.258800 0.000000 0.965900
vn -0.258800 0.000000 0.965900
vn -0.707100 0.000000 0.707100
vn -0.965900 0.000000 0.258800
vn -0.965900 0.000000 -0.258800
vn 0.000000 1.000000 0.000000
vn -0.258800 0.000000 -0.965900
vn -0.707100 0.000000 -0.707100
vn 0.000000 -1.000000 0.000000
vn 0.000000 0.000000 1.000000
vn -1.000000 0.000000 0.000000
vn -0.175800 0.984400 0.000000
vn -0.000000 -0.000000 -1.000000
vn -0.000000 0.984400 -0.175800
vn 0.175800 0.984400 0.000000
vn 0.000000 0.984400 0.175800
vn 1.000000 0.000000 -0.000000
s off
f 2/1/1 4/2/1 30/3/1
f 30/3/2 26/4/2 5/5/2
f 6/6/3 8/7/3 27/8/3
f 8/1/4 10/2/4 28/3/4
f 28/3/5 23/4/5 11/5/5
f 12/6/6 13/7/6 24/8/6
f 13/1/7 15/2/7 25/3/7
f 25/3/8 32/4/8 16/5/8
f 17/6/9 18/7/9 33/8/9
f 18/1/10 20/2/10 34/3/10
f 20/9/11 13/10/11 6/11/11
f 22/6/12 2/7/12 29/8/12
f 34/3/13 31/4/13 21/5/13
f 1/12/11 7/13/11 31/14/11
f 11/15/14 16/16/14 5/17/14
f 36/12/11 35/13/11 26/14/11
f 38/12/11 37/13/11 23/14/11
f 16/18/15 32/14/15 39/13/15
f 21/18/16 31/14/16 7/13/16
f 40/12/11 39/13/11 32/14/11
f 5/17/14 43/19/14 44/20/14
f 16/16/14 47/21/14 48/22/14
f 21/23/14 42/24/14 41/25/14
f 48/26/17 47/27/17 39/13/17
f 19/28/18 48/29/18 40/12/18
f 1/12/19 41/26/19 42/27/19
f 44/26/20 43/27/20 35/13/20
f 14/28/16 46/29/16 38/12/16
f 46/26/21 45/27/21 37/13/21
f 11/15/14 45/30/14 46/31/14
f 11/18/22 23/14/22 37/13/22
f 9/28/15 44/29/15 36/12/15
f 5/18/18 26/14/18 35/13/18
f 3/28/22 41/29/22 1/12/22
f 29/32/1 2/1/1 30/3/1
f 5/5/2 3/33/2 30/3/2
f 30/3/2 4/2/2 6/6/2
f 6/6/2 26/4/2 30/3/2
f 26/4/3 6/6/3 27/8/3
f 27/32/4 8/1/4 28/3/4
f 11/5/5 9/33/5 28/3/5
f 28/3/5 10/2/5 12/6/5
f 12/6/5 23/4/5 28/3/5
f 23/4/6 12/6/6 24/8/6
f 24/32/7 13/1/7 25/3/7
f 16/5/8 14/33/8 25/3/8
f 25/3/8 15/2/8 17/6/8
f 17/6/8 32/4/8 25/3/8
f 32/4/9 17/6/9 33/8/9
f 33/32/10 18/1/10 34/3/10
f 6/11/11 4/34/11 2/35/11
f 2/35/11 22/36/11 20/9/11
f 20/9/11 18/37/11 17/38/11
f 17/38/11 15/39/11 13/10/11
f 13/10/11 12/40/11 10/41/11
f 10/41/11 8/42/11 6/11/11
f 6/11/11 2/35/11 20/9/11
f 20/9/11 17/38/11 13/10/11
f 13/10/11 10/41/11 6/11/11
f 31/4/12 22/6/12 29/8/12
f 21/5/13 19/33/13 34/3/13
f 34/3/13 20/2/13 22/6/13
f 22/6/13 31/4/13 34/3/13
f 30/43/11 1/12/11 31/14/11
f 21/23/14 3/44/14 5/17/14
f 5/17/14 9/45/14 11/15/14
f 11/15/14 14/46/14 16/16/14
f 16/16/14 19/47/14 21/23/14
f 21/23/14 5/17/14 16/16/14
f 28/43/11 36/12/11 26/14/11
f 25/43/11 38/12/11 23/14/11
f 47/48/15 16/18/15 39/13/15
f 42/48/16 21/18/16 7/13/16
f 34/43/11 40/12/11 32/14/11
f 9/45/14 5/17/14 44/20/14
f 19/47/14 16/16/14 48/22/14
f 3/44/14 21/23/14 41/25/14
f 40/12/17 48/26/17 39/13/17
f 34/43/18 19/28/18 40/12/18
f 7/13/19 1/12/19 42/27/19
f 36/12/20 44/26/20 35/13/20
f 25/43/16 14/28/16 38/12/16
f 38/12/21 46/26/21 37/13/21
f 14/46/14 11/15/14 46/31/14
f 45/48/22 11/18/22 37/13/22
f 28/43/15 9/28/15 36/12/15
f 43/48/18 5/18/18 35/13/18
f 30/43/22 3/28/22 1/12/22