# Blender v3.1.2 OBJ File: 'button2.blend'
# www.blender.org
o base
v 0.367846 0.524087 0.152367
v 0.152367 0.524087 0.367846
v 0.131203 0.755064 0.316753
v -0.152367 0.524087 0.367846
v -0.367846 0.524087 0.152367
v -0.367846 0.524087 -0.152367
v -0.152367 0.524087 -0.367846
v 0.152367 0.524087 -0.367846
v 0.367846 0.524087 -0.152367
v -0.152367 0.755064 0.367846
v -0.367846 0.755064 0.152367
v -0.367846 0.755064 -0.152367
v 0.316753 0.755064 0.131203
v -0.131203 0.755064 0.316753
v -0.316753 0.755064 0.131203
v -0.316753 0.755064 -0.131203
v -0.131203 0.755064 -0.316753
v 0.131203 0.755064 -0.316753
v 0.316753 0.755064 -0.131203
v 0.367846 0.755064 0.152367
v 0.152367 0.755064 0.367846
v -0.152367 0.755064 -0.367846
v 0.152367 0.755064 -0.367846
v 0.367846 0.755064 -0.152367
v -0.750000 0.009045 -0.750000
v 0.750000 0.571545 0.750000
v 0.750000 0.009045 0.750000
v 0.750000 0.009045 -0.750000
v -0.750000 0.009045 0.750000
v 0.750000 0.571545 -0.750000
v -0.750000 0.571545 0.750000
v -0.750000 0.571545 -0.750000
v 0.152367 0.755064 0.367846
v 0.367846 0.755064 0.152367
v 0.367846 0.755064 -0.152367
v 0.152367 0.755064 -0.367846
v -0.152367 0.755064 0.367846
v -0.367846 0.755064 0.152367
v -0.367846 0.755064 -0.152367
v -0.152367 0.755064 -0.367846
vt 0.750000 0.281250
vt 0.656250 0.296875
vt 0.656250 0.281250
vt 0.593750 0.234375
vt 0.578125 0.140625
vt 0.593750 0.140625
vt 0.796875 0.234375
vt 0.750000 0.296875
vt 0.796875 0.140625
vt 0.828125 0.234375
vt 0.750000 0.078125
vt 0.828125 0.140625
vt 0.656250 0.078125
vt 0.750000 0.062500
vt 0.656250 0.062500
vt 0.578125 0.234375
vt 0.031250 0.750000
vt 0.546875 0.578125
vt 0.031250 0.578125
vt 0.031250 0.750000
vt 0.546875 0.750000
vt 0.546875 0.750000
vt 0.031250 0.578125
vt 0.546875 0.578125
vt 0.031250 0.562500
vt 0.531250 0.062500
vt 0.531250 0.562500
vt 0.031250 0.750000
vt 0.546875 0.578125
vt 0.031250 0.578125
vt 0.031250 0.062500
vt 0.546875 0.750000
vt 0.718750 0.406250
vt 0.703125 0.328125
vt 0.703125 0.406250
vt 0.609375 0.406250
vt 0.718750 0.328125
vt 0.703125 0.406250
vt 0.609375 0.328125
vt 0.609375 0.406250
vt 0.703125 0.328125
vt 0.609375 0.328125
vt 0.609375 0.406250
vt 0.609375 0.406250
vt 0.718750 0.328125
vt 0.718750 0.406250
vt 0.609375 0.328125
vt 0.609375 0.328125
vn 0.0000 1.0000 0.0000
vn 1.0000 0.0000 0.0000
vn -0.0000 0.0000 1.0000
vn -1.0000 0.0000 -0.0000
vn 0.0000 0.0000 -1.0000
vn 0.3827 0.0000 0.9239
vn 0.9239 0.0000 0.3827
vn -0.3827 0.0000 0.9239
vn -0.9239 0.0000 0.3827
vn -0.9239 0.0000 -0.3827
vn -0.3827 0.0000 -0.9239
vn 0.9239 0.0000 -0.3827
vn 0.3827 0.0000 -0.9239
s off
f 13/1/1 24/2/1 19/3/1
f 18/4/1 22/5/1 17/6/1
f 3/7/1 20/8/1 13/1/1
f 14/9/1 21/10/1 3/7/1
f 15/11/1 37/12/1 14/9/1
f 16/13/1 38/14/1 15/11/1
f 17/6/1 39/15/1 16/13/1
f 18/4/1 24/2/1 23/16/1
f 30/17/2 27/18/2 28/19/2
f 31/20/3 27/18/3 26/21/3
f 31/22/4 25/23/4 29/24/4
f 30/25/1 31/26/1 26/27/1
f 32/28/5 28/29/5 25/23/5
f 13/1/1 20/8/1 24/2/1
f 18/4/1 23/16/1 22/5/1
f 3/7/1 21/10/1 20/8/1
f 14/9/1 37/12/1 21/10/1
f 15/11/1 38/14/1 37/12/1
f 16/13/1 39/15/1 38/14/1
f 17/6/1 22/5/1 39/15/1
f 18/4/1 19/3/1 24/2/1
f 30/17/2 26/21/2 27/18/2
f 31/20/3 29/30/3 27/18/3
f 31/22/4 32/28/4 25/23/4
f 30/25/1 32/31/1 31/26/1
f 32/28/5 30/32/5 28/29/5
s 1
f 33/33/6 1/34/7 34/35/7
f 10/36/8 2/37/6 33/33/6
f 11/38/9 4/39/8 10/36/8
f 12/40/10 5/41/9 11/38/9
f 7/42/11 12/40/10 40/43/11
f 35/44/12 8/45/13 36/46/13
f 36/46/13 7/42/11 40/43/11
f 35/44/12 1/34/7 9/47/12
f 33/33/6 2/37/6 1/34/7
f 10/36/8 4/39/8 2/37/6
f 11/38/9 5/41/9 4/39/8
f 12/40/10 6/48/10 5/41/9
f 7/42/11 6/48/10 12/40/10
f 35/44/12 9/47/12 8/45/13
f 36/46/13 8/45/13 7/42/11
f 35/44/12 34/35/7 1/34/7
o top
v 0.316753 0.755064 0.131203
v -0.131203 0.755064 0.316753
v -0.316753 0.755064 0.131203
v -0.316753 0.755064 -0.131203
v -0.131203 0.755064 -0.316753
v 0.131203 0.755064 -0.316753
v 0.316753 0.755064 -0.131203
v 0.491938 0.961042 0.203767
v 0.203767 0.961042 0.491938
v -0.203767 0.961042 0.491938
v -0.491938 0.961042 0.203767
v -0.491938 0.961042 -0.203767
v -0.203767 0.961042 -0.491938
v 0.203767 0.961042 -0.491938
v 0.491938 0.961042 -0.203767
v -0.203767 1.086668 0.491938
v -0.491938 1.086668 0.203767
v 0.203767 1.086668 -0.491938
v 0.491938 1.086668 -0.203767
v -0.131203 0.913897 0.316753
v -0.316753 0.913897 -0.131203
v -0.131203 0.913897 -0.316753
v 0.131203 0.913897 -0.316753
v 0.316753 0.913897 0.131203
v 0.131203 0.913897 0.316753
v -0.316753 0.913897 0.131203
v 0.316753 0.913897 -0.131203
v 0.131203 0.755064 0.316753
v 0.316753 0.913897 0.131203
v -0.316753 0.913897 0.131203
v 0.316753 0.913897 -0.131203
v -0.131203 0.913897 0.316753
v -0.131203 0.913897 -0.316753
v 0.131203 0.913897 -0.316753
v 0.131203 0.913897 0.316753
v -0.316753 0.913897 -0.131203
v 0.491938 1.086668 0.203767
v 0.203767 1.086668 0.491938
v -0.491938 1.086668 -0.203767
v -0.203767 1.086668 -0.491938
v 0.491938 0.961042 0.203767
v 0.491938 0.961042 -0.203767
v 0.203767 0.961042 0.491938
v -0.203767 0.961042 0.491938
v -0.491938 0.961042 0.203767
v -0.491938 0.961042 -0.203767
v -0.203767 0.961042 -0.491938
v 0.203767 0.961042 -0.491938
v 0.203767 1.086668 0.491938
v 0.491938 1.086668 0.203767
v -0.491938 1.086668 0.203767
v -0.203767 1.086668 0.491938
v -0.203767 1.086668 -0.491938
v -0.491938 1.086668 -0.203767
v 0.491938 1.086668 -0.203767
v 0.203767 1.086668 -0.491938
vt 0.687500 0.421875
vt 0.593750 0.484375
vt 0.593750 0.421875
vt 0.687500 0.484375
vt 0.687500 0.421875
vt 0.593750 0.421875
vt 0.687500 0.484375
vt 0.687500 0.421875
vt 0.593750 0.484375
vt 0.593750 0.421875
vt 0.593750 0.484375
vt 0.593750 0.421875
vt 0.156250 0.796875
vt 0.156250 0.843750
vt 0.203125 0.843750
vt 0.687500 0.484375
vt 0.687500 0.421875
vt 0.937500 0.468750
vt 0.796875 0.421875
vt 0.796875 0.468750
vt 0.593750 0.750000
vt 0.843750 0.640625
vt 0.953125 0.843750
vt 0.796875 0.421875
vt 0.796875 0.468750
vt 0.796875 0.468750
vt 0.203125 0.906250
vt 0.140625 0.921875
vt 0.156250 0.953125
vt 0.921875 0.468750
vt 0.796875 0.421875
vt 0.921875 0.421875
vt 0.937500 0.468750
vt 0.796875 0.421875
vt 0.937500 0.421875
vt 0.937500 0.468750
vt 0.937500 0.421875
vt 0.796875 0.468750
vt 0.156250 0.906250
vt 0.046875 0.906250
vt 0.093750 0.843750
vt 0.046875 0.843750
vt 0.093750 0.796875
vt 0.140625 0.828125
vt 0.109375 0.828125
vt 0.093750 0.953125
vt 0.093750 0.906250
vt 0.687500 0.484375
vt 0.937500 0.421875
vt 0.593750 0.484375
vt 0.843750 0.953125
vt 0.703125 0.953125
vt 0.593750 0.843750
vt 0.703125 0.640625
vt 0.953125 0.750000
vt 0.109375 0.921875
vn 0.3827 0.0000 0.9239
vn -0.3827 0.0000 0.9239
vn -0.9239 0.0000 0.3827
vn -0.3827 0.0000 -0.9239
vn 0.3827 0.0000 -0.9239
vn 0.9239 0.0000 -0.3827
vn -0.9239 0.0000 -0.3827
vn -0.2229 -0.9705 0.0923
vn -0.0923 -0.9705 0.2229
vn 0.9239 0.0000 0.3827
vn 0.0000 1.0000 0.0000
vn 0.0923 -0.9705 0.2229
vn 0.2229 -0.9705 0.0923
vn 0.0923 -0.9705 -0.2229
vn -0.0923 -0.9705 -0.2229
vn -0.2229 -0.9705 -0.0923
vn 0.2229 -0.9705 -0.0923
s 1
f 68/49/14 60/50/15 42/51/15
f 42/51/15 70/52/16 43/53/16
f 45/54/17 63/55/18 46/56/18
f 46/56/18 71/57/19 47/58/19
f 43/53/16 61/59/20 44/60/20
f 51/61/21 72/62/22 50/63/22
f 47/58/19 69/64/23 41/65/23
f 77/66/23 82/67/19 95/68/19
f 93/69/24 57/70/24 89/71/24
f 87/72/17 79/73/20 80/74/17
f 49/75/25 64/76/26 48/77/26
f 78/78/14 84/79/15 83/80/14
f 91/81/16 86/82/20 85/83/16
f 96/84/18 82/67/19 88/85/18
f 92/86/15 85/83/16 84/79/15
f 80/74/17 88/85/18 87/72/17
f 50/63/22 65/87/25 49/75/25
f 54/88/27 73/89/28 53/90/28
f 52/91/29 66/92/21 51/61/21
f 53/90/28 76/93/29 52/91/29
f 64/76/26 55/94/30 48/77/26
f 55/94/30 74/95/27 54/88/27
f 41/65/23 75/96/14 68/49/14
f 78/78/14 81/97/23 77/66/23
f 61/59/20 45/54/17 44/60/20
f 68/49/14 75/96/14 60/50/15
f 42/51/15 60/50/15 70/52/16
f 45/54/17 62/98/17 63/55/18
f 46/56/18 63/55/18 71/57/19
f 43/53/16 70/52/16 61/59/20
f 51/61/21 66/92/21 72/62/22
f 47/58/19 71/57/19 69/64/23
f 77/66/23 81/97/23 82/67/19
f 89/71/24 90/99/24 59/100/24
f 59/100/24 58/101/24 93/69/24
f 93/69/24 94/102/24 57/70/24
f 57/70/24 56/103/24 89/71/24
f 89/71/24 59/100/24 93/69/24
f 87/72/17 86/82/20 79/73/20
f 49/75/25 65/87/25 64/76/26
f 78/78/14 92/86/15 84/79/15
f 91/81/16 79/73/20 86/82/20
f 96/84/18 95/68/19 82/67/19
f 92/86/15 91/81/16 85/83/16
f 80/74/17 96/84/18 88/85/18
f 50/63/22 72/62/22 65/87/25
f 54/88/27 74/95/27 73/89/28
f 52/91/29 76/93/29 66/92/21
f 53/90/28 73/89/28 76/93/29
f 64/76/26 67/104/30 55/94/30
f 55/94/30 67/104/30 74/95/27
f 41/65/23 69/64/23 75/96/14
f 78/78/14 83/80/14 81/97/23
f 61/59/20 62/98/17 45/54/17
