# Blender v3.1.2 OBJ File: 'button_emergency_push.blend'
# www.blender.org
o base
v -0.750000 0.000000 0.750000
v -0.675000 0.562500 0.675000
v -0.750000 0.000000 -0.750000
v -0.675000 0.562500 -0.675000
v 0.750000 0.000000 0.750000
v 0.675000 0.562500 0.675000
v 0.750000 0.000000 -0.750000
v 0.675000 0.562500 -0.675000
v 0.000000 0.562500 -0.372877
v 0.000000 0.750000 -0.319921
v 0.266341 0.562500 -0.266341
v 0.228515 0.750000 -0.228515
v 0.372877 0.562500 -0.000000
v 0.319921 0.750000 -0.000000
v 0.266341 0.562500 0.266341
v 0.228515 0.750000 0.228515
v 0.000000 0.562500 0.372877
v 0.000000 0.750000 0.319921
v -0.266341 0.562500 0.266341
v -0.228515 0.750000 0.228515
v -0.372877 0.562500 -0.000000
v -0.319921 0.750000 -0.000000
v -0.266341 0.562500 -0.266341
v -0.228515 0.750000 -0.228515
v 0.266341 0.750000 -0.266341
v 0.000000 0.750000 -0.372877
v 0.372877 0.750000 -0.000000
v 0.266341 0.750000 0.266341
v 0.000000 0.750000 0.372877
v -0.266341 0.750000 0.266341
v -0.372877 0.750000 -0.000000
v -0.266341 0.750000 -0.266341
v -0.750000 0.312187 0.750000
v -0.750000 0.312187 -0.750000
v 0.750000 0.312187 -0.750000
v 0.750000 0.312187 0.750000
v 0.266341 0.750000 -0.266341
v 0.000000 0.750000 -0.372877
v 0.372877 0.750000 -0.000000
v 0.266341 0.750000 0.266341
v 0.000000 0.750000 0.372877
v -0.266341 0.750000 0.266341
v -0.372877 0.750000 -0.000000
v -0.266341 0.750000 -0.266341
vt 0.015625 0.546875
vt 0.390625 0.484297
vt 0.015625 0.484297
vt 0.390625 0.546875
vt 0.015625 0.484297
vt 0.390625 0.546875
vt 0.015625 0.484297
vt 0.390625 0.484297
vt 0.390625 0.546875
vt 0.390625 0.484297
vt 0.390625 0.609375
vt 0.015625 0.984375
vt 0.015625 0.609375
vt 0.633506 0.961631
vt 0.609375 0.984375
vt 0.609375 0.972660
vt 0.656250 0.937500
vt 0.640625 0.968750
vt 0.633505 0.913369
vt 0.644535 0.937500
vt 0.609375 0.890625
vt 0.640625 0.906250
vt 0.585244 0.913370
vt 0.609375 0.902340
vt 0.562500 0.937500
vt 0.578125 0.906250
vt 0.585244 0.961631
vt 0.574215 0.937500
vt 0.578125 0.968750
vt 0.015625 0.406250
vt 0.390625 0.406250
vt 0.015625 0.406250
vt 0.390625 0.406250
vt 0.015625 0.406250
vt 0.390625 0.406250
vt 0.015625 0.546875
vt 0.015625 0.546875
vt 0.390625 0.984375
vt 0.421875 0.984375
vt 0.546875 0.890625
vt 0.421875 0.890625
vt 0.546875 0.984375
vt 0.421875 0.890625
vt 0.421875 0.984375
vt 0.546875 0.890625
vt 0.421875 0.984375
vt 0.546875 0.890625
vt 0.421875 0.890625
vt 0.546875 0.984375
vt 0.421875 0.890625
vt 0.421875 0.984375
vt 0.546875 0.890625
vt 0.546875 0.984375
vt 0.421875 0.890625
vt 0.546875 0.984375
vt 0.546875 0.890625
vt 0.546875 0.984375
vt 0.421875 0.984375
vn -0.9579 0.2870 0.0000
vn 0.0000 0.2870 -0.9579
vn 0.9579 0.2870 0.0000
vn 0.0000 0.2870 0.9579
vn 0.0000 1.0000 0.0000
vn 0.0000 0.0000 1.0000
vn 1.0000 0.0000 0.0000
vn 0.0000 0.0000 -1.0000
vn -1.0000 0.0000 0.0000
vn 0.7071 0.0000 -0.7071
vn 0.7071 0.0000 0.7071
vn -0.7071 0.0000 0.7071
vn -0.7071 0.0000 -0.7071
s off
f 2/1/1 34/2/1 33/3/1
f 4/4/2 35/5/2 34/2/2
f 8/6/3 36/7/3 35/8/3
f 6/9/4 33/3/4 36/10/4
f 4/11/5 6/12/5 8/13/5
f 12/14/5 26/15/5 10/16/5
f 12/14/5 27/17/5 25/18/5
f 16/19/5 27/17/5 14/20/5
f 16/19/5 29/21/5 28/22/5
f 20/23/5 29/21/5 18/24/5
f 20/23/5 31/25/5 30/26/5
f 24/27/5 31/25/5 22/28/5
f 24/27/5 26/15/5 32/29/5
f 36/10/6 1/30/6 5/31/6
f 35/8/7 5/32/7 7/33/7
f 34/2/8 7/34/8 3/35/8
f 33/3/9 3/35/9 1/30/9
f 2/1/1 4/4/1 34/2/1
f 4/4/2 8/36/2 35/5/2
f 8/6/3 6/37/3 36/7/3
f 6/9/4 2/1/4 33/3/4
f 4/11/5 2/38/5 6/12/5
f 12/14/5 25/18/5 26/15/5
f 12/14/5 14/20/5 27/17/5
f 16/19/5 28/22/5 27/17/5
f 16/19/5 18/24/5 29/21/5
f 20/23/5 30/26/5 29/21/5
f 20/23/5 22/28/5 31/25/5
f 24/27/5 32/29/5 31/25/5
f 24/27/5 10/16/5 26/15/5
f 36/10/6 33/3/6 1/30/6
f 35/8/7 36/7/7 5/32/7
f 34/2/8 35/5/8 7/34/8
f 33/3/9 34/2/9 3/35/9
s 1
f 38/39/8 11/40/10 9/41/8
f 37/42/10 13/43/7 11/40/10
f 39/44/7 15/45/11 13/43/7
f 40/46/11 17/47/6 15/48/11
f 41/49/6 19/50/12 17/47/6
f 42/51/12 21/52/9 19/50/12
f 43/53/9 23/54/13 21/52/9
f 44/55/13 9/41/8 23/56/13
f 38/39/8 37/42/10 11/40/10
f 37/42/10 39/44/7 13/43/7
f 39/44/7 40/57/11 15/45/11
f 40/46/11 41/49/6 17/47/6
f 41/49/6 42/51/12 19/50/12
f 42/51/12 43/53/9 21/52/9
f 43/53/9 44/58/13 23/54/13
f 44/55/13 38/39/8 9/41/8
o top
v 0.000000 0.750000 -0.319921
v 0.228515 0.750000 -0.228515
v 0.319921 0.750000 -0.000000
v 0.228515 0.750000 0.228515
v 0.000000 0.750000 0.319921
v -0.228515 0.750000 0.228515
v -0.319921 0.750000 -0.000000
v -0.228515 0.750000 -0.228515
v 0.357593 0.936405 -0.357593
v 0.000000 0.936405 -0.500630
v 0.500630 0.936405 -0.000000
v 0.357593 0.936405 0.357593
v 0.000000 0.937606 0.319921
v -0.357593 0.936405 0.357593
v -0.500630 0.936405 -0.000000
v -0.357593 0.936405 -0.357593
v 0.357593 1.122827 -0.357593
v 0.000000 1.122827 -0.500630
v 0.500630 1.122827 -0.000000
v 0.357593 1.122827 0.357593
v 0.000000 1.122827 0.500630
v -0.357593 1.122827 0.357593
v -0.500630 1.122827 -0.000000
v -0.357593 1.122827 -0.357593
v 0.228515 0.937606 -0.228515
v 0.000000 0.937606 -0.319921
v 0.319921 0.937606 -0.000000
v 0.228515 0.937606 0.228515
v 0.000000 0.936405 0.500630
v -0.228515 0.937606 0.228515
v -0.319921 0.937606 -0.000000
v -0.228515 0.937606 -0.228515
v 0.357593 1.122827 -0.357593
v 0.000000 1.122827 -0.500630
v 0.500630 1.122827 -0.000000
v 0.357593 1.122827 0.357593
v 0.000000 1.122827 0.500630
v -0.357593 1.122827 0.357593
v -0.500630 1.122827 -0.000000
v -0.357593 1.122827 -0.357593
vt 0.734375 0.875000
vt 0.765625 0.843750
vt 0.765625 0.812500
vt 0.765625 0.812500
vt 0.734375 0.781250
vt 0.703125 0.812500
vt 0.703125 0.812500
vt 0.703125 0.843750
vt 0.890625 0.812500
vt 0.984375 0.875000
vt 0.984375 0.812500
vt 0.984375 0.921875
vt 0.890625 0.984375
vt 0.890625 0.921875
vt 0.890625 0.812500
vt 0.796875 0.875000
vt 0.796875 0.812500
vt 0.890625 0.812500
vt 0.796875 0.875000
vt 0.796875 0.812500
vt 0.890625 0.812500
vt 0.984375 0.875000
vt 0.984375 0.812500
vt 0.796875 0.812500
vt 0.890625 0.875000
vt 0.890625 0.875000
vt 0.984375 0.812500
vt 0.890625 0.875000
vt 0.890625 0.875000
vt 0.687500 0.937500
vt 0.734375 0.890625
vt 0.781250 0.937500
vt 0.984375 0.921875
vt 0.890625 0.984375
vt 0.890625 0.921875
vt 0.890625 0.921875
vt 0.984375 0.984375
vt 0.984375 0.921875
vt 0.796875 0.984375
vt 0.796875 0.921875
vt 0.796875 0.984375
vt 0.796875 0.921875
vt 0.890625 0.921875
vt 0.984375 0.984375
vt 0.796875 0.921875
vt 0.890625 0.984375
vt 0.890625 0.984375
vt 0.984375 0.984375
vt 0.796875 0.875000
vt 0.984375 0.875000
vt 0.765625 0.968750
vt 0.734375 0.984375
vt 0.703125 0.968750
vt 0.703125 0.906250
vt 0.765625 0.906250
vt 0.796875 0.984375
vn 0.0000 -1.0000 0.0000
vn -1.0000 0.0000 0.0000
vn -0.7071 0.0000 -0.7071
vn 0.5501 -0.6283 0.5501
vn 0.0000 0.0000 1.0000
vn 0.0000 -0.6323 0.7747
vn -0.7071 0.0000 0.7071
vn 1.0000 0.0000 0.0000
vn 0.7071 0.0000 0.7071
vn 0.0000 0.0000 -1.0000
vn 0.7071 0.0000 -0.7071
vn 0.0000 1.0000 0.0000
vn 0.5501 -0.6283 -0.5501
vn 0.7747 -0.6323 -0.0000
vn -0.7747 -0.6323 0.0000
vn -0.5501 -0.6283 -0.5501
vn -0.5501 -0.6283 0.5501
vn -0.0000 -0.6323 -0.7747
s off
f 54/59/14 53/60/14 55/61/14
f 56/62/14 73/63/14 55/61/14
f 73/63/14 58/64/14 59/65/14
f 55/61/14 59/65/14 54/59/14
f 59/65/14 60/66/14 54/59/14
f 73/63/14 59/65/14 55/61/14
s 1
f 51/67/15 76/68/16 52/69/16
f 56/70/17 81/71/18 73/72/19
f 49/73/18 74/74/20 50/75/20
f 47/76/21 72/77/22 48/78/22
f 45/79/23 69/80/24 46/81/24
f 52/82/16 70/83/23 45/79/23
f 50/75/20 75/84/15 51/67/15
f 48/85/22 57/86/18 49/73/18
f 46/81/24 71/87/21 47/76/21
f 83/88/25 65/89/25 79/90/25
f 53/91/26 63/92/21 55/93/27
f 59/94/28 68/95/16 60/96/29
f 73/72/19 66/97/20 58/98/30
f 55/93/27 64/99/22 56/100/17
f 54/101/31 61/102/24 53/91/26
f 60/103/29 62/104/23 54/101/31
f 58/98/30 67/105/15 59/94/28
f 51/67/15 75/84/15 76/68/16
f 56/70/17 64/106/22 81/71/18
f 49/73/18 57/86/18 74/74/20
f 47/76/21 71/87/21 72/77/22
f 45/79/23 70/83/23 69/80/24
f 52/82/16 76/107/16 70/83/23
f 50/75/20 74/74/20 75/84/15
f 48/85/22 72/108/22 57/86/18
f 46/81/24 69/80/24 71/87/21
f 79/90/25 77/109/25 78/110/25
f 78/110/25 84/111/25 83/88/25
f 83/88/25 82/112/25 65/89/25
f 65/89/25 80/113/25 79/90/25
f 79/90/25 78/110/25 83/88/25
f 53/91/26 61/102/24 63/92/21
f 59/94/28 67/105/15 68/95/16
f 73/72/19 81/71/18 66/97/20
f 55/93/27 63/92/21 64/99/22
f 54/101/31 62/104/23 61/102/24
f 60/103/29 68/114/16 62/104/23
f 58/98/30 66/97/20 67/105/15
