# Blender v2.92.0 OBJ File: 'control0.blend'
# www.blender.org
o button0
v -0.500000 0.000000 0.500000
v -0.500000 0.125000 0.500000
v -0.500000 0.000000 -0.500000
v -0.500000 0.125000 -0.500000
v 0.500000 0.000000 0.500000
v 0.500000 0.125000 0.500000
v 0.500000 0.000000 -0.500000
v 0.500000 0.125000 -0.500000
vt 0.625000 0.062500
vt 0.062500 0.000000
vt 0.625000 0.000000
vt 0.062500 0.062500
vt 0.000000 0.625000
vt 0.000000 0.062500
vt 0.062500 0.625000
vt 0.625000 0.687500
vt 0.062500 0.687500
vt 0.625000 0.625000
vt 0.687500 0.062500
vt 0.687500 0.625000
vn -1.0000 0.0000 0.0000
vn 0.0000 0.0000 -1.0000
vn 1.0000 0.0000 0.0000
vn 0.0000 0.0000 1.0000
vn 0.0000 1.0000 0.0000
s 1
f 2/1/1 3/2/1 1/3/1
f 4/4/2 7/5/2 3/6/2
f 8/7/3 5/8/3 7/9/3
f 6/10/4 1/11/4 5/12/4
f 4/4/5 6/10/5 8/7/5
f 2/1/1 4/4/1 3/2/1
f 4/4/2 8/7/2 7/5/2
f 8/7/3 6/10/3 5/8/3
f 6/10/4 2/1/4 1/11/4
f 4/4/5 2/1/5 6/10/5
o button0_base
v 0.000000 0.125000 -0.289793
v -0.204915 0.125000 -0.204915
v -0.289793 0.125000 0.000000
v -0.204915 0.125000 0.204915
v 0.000000 0.125000 0.289793
v 0.204915 0.125000 0.204915
v 0.289793 0.125000 -0.000000
v 0.204915 0.125000 -0.204915
v -0.129996 0.252562 -0.129996
v 0.000000 0.252562 -0.183842
v -0.183842 0.252562 0.000000
v -0.129996 0.252562 0.129996
v 0.000000 0.252562 0.183842
v 0.129996 0.252562 0.129996
v 0.183842 0.252562 -0.000000
v 0.129996 0.252562 -0.129996
vt 0.712613 0.203252
vt 0.796748 0.000132
vt 0.999868 0.084267
vt 0.250000 0.687500
vt 0.125000 0.812500
vt 0.125000 0.687500
vt 0.000000 0.687500
vt 0.000000 0.812500
vt 0.937500 0.687500
vt 0.812500 0.812500
vt 0.812500 0.687500
vt 0.687500 0.687500
vt 0.687500 0.812500
vt 0.625000 0.812500
vt 0.625000 0.687500
vt 0.500000 0.812500
vt 0.500000 0.687500
vt 0.375000 0.687500
vt 0.375000 0.812500
vt 0.250000 0.812500
vt 0.999868 0.203252
vt 0.915733 0.287387
vt 0.796748 0.287387
vt 0.712613 0.084267
vt 0.915733 0.000132
vt 0.937500 0.812500
vn -0.0000 0.8638 0.5038
vn 0.5038 0.8638 -0.0000
vn 0.0000 0.8638 -0.5038
vn -0.5439 0.6389 -0.5439
vn -0.3562 0.8638 -0.3562
vn -0.5038 0.8638 0.0000
vn -0.7693 0.6389 0.0000
vn -0.5439 0.6389 0.5439
vn -0.3562 0.8638 0.3562
vn -0.0000 0.6389 0.7693
vn 0.5439 0.6389 0.5439
vn 0.3562 0.8638 0.3562
vn 0.7693 0.6389 -0.0000
vn 0.3562 0.8638 -0.3562
vn 0.5439 0.6389 -0.5439
vn 0.0000 0.6389 -0.7693
s 1
f 21/13/6 23/14/7 18/15/8
f 18/16/8 10/17/9 17/18/10
f 19/19/11 10/17/9 11/20/12
f 19/21/11 12/22/13 20/23/14
f 21/24/6 12/22/13 13/25/15
f 21/24/6 14/26/16 22/27/17
f 22/27/17 15/28/18 23/29/7
f 24/30/19 15/28/18 16/31/20
f 24/30/19 9/32/21 18/16/8
f 18/15/8 17/33/10 19/34/11
f 19/34/11 20/35/14 21/13/6
f 21/13/6 22/36/17 23/14/7
f 23/14/7 24/37/19 18/15/8
f 18/15/8 19/34/11 21/13/6
f 18/16/8 9/32/21 10/17/9
f 19/19/11 17/18/10 10/17/9
f 19/21/11 11/38/12 12/22/13
f 21/24/6 20/23/14 12/22/13
f 21/24/6 13/25/15 14/26/16
f 22/27/17 14/26/16 15/28/18
f 24/30/19 23/29/7 15/28/18
f 24/30/19 16/31/20 9/32/21
