# Blender v3.1.2 OBJ File: 'button_encased_push.blend'
# www.blender.org
o base
v -0.750000 0.000000 0.750000
v -0.750000 0.375000 0.750000
v -0.750000 0.000000 -0.750000
v -0.750000 0.625000 -0.750000
v 0.750000 0.000000 0.750000
v 0.750000 0.375000 0.750000
v 0.750000 0.000000 -0.750000
v 0.750000 0.625000 -0.750000
vt 0.781250 0.921875
vt 0.406250 0.828125
vt 0.781250 0.828125
vt 0.781250 0.984375
vt 0.406250 0.828125
vt 0.781250 0.828125
vt 0.781250 0.921875
vt 0.781250 0.828125
vt 0.406250 0.828125
vt 0.390625 0.609375
vt 0.015625 0.984375
vt 0.015625 0.609375
vt 0.406250 0.984375
vt 0.406250 0.984375
vt 0.406250 0.921875
vt 0.390625 0.984375
vn -1.0000 0.0000 0.0000
vn 0.0000 0.0000 -1.0000
vn 1.0000 0.0000 0.0000
vn 0.0000 0.0000 1.0000
vn 0.0000 0.9864 0.1644
s off
f 2/1/1 3/2/1 1/3/1
f 4/4/2 7/5/2 3/6/2
f 7/5/3 6/7/3 5/8/3
f 6/7/4 1/9/4 5/8/4
f 4/10/5 6/11/5 8/12/5
f 2/1/1 4/13/1 3/2/1
f 4/4/2 8/14/2 7/5/2
f 7/5/3 8/14/3 6/7/3
f 6/7/4 2/15/4 1/9/4
f 4/10/5 2/16/5 6/11/5
o cover
v -0.750000 -0.250000 1.500000
v -0.750000 -0.000000 0.000000
v 0.750000 -0.250000 1.500000
v 0.750000 -0.000000 0.000000
v -0.750000 0.375000 0.000000
v 0.750000 0.375000 0.000000
v -0.750000 0.375000 1.500000
v 0.750000 0.375000 1.500000
vt 0.390625 0.078125
vt 0.015625 0.171875
vt 0.015625 0.078125
vt 0.015625 0.078125
vt 0.390625 0.171875
vt 0.390625 0.078125
vt 0.390625 0.171875
vt 0.015625 0.078125
vt 0.015625 0.171875
vt 0.390625 0.578125
vt 0.015625 0.203125
vt 0.015625 0.578125
vt 0.390625 0.171875
vt 0.015625 0.171875
vt 0.390625 0.015625
vt 0.390625 0.015625
vt 0.390625 0.203125
vn 0.0000 0.0000 1.0000
vn 0.0000 0.0000 -1.0000
vn 1.0000 0.0000 0.0000
vn -1.0000 0.0000 0.0000
vn 0.0000 -1.0000 -0.0000
s off
f 12/17/6 13/18/6 10/19/6
f 9/20/7 16/21/7 11/22/7
f 15/23/8 10/19/8 13/18/8
f 12/24/9 16/21/9 14/25/9
f 14/26/10 15/27/10 13/28/10
f 12/17/6 14/29/6 13/18/6
f 9/20/7 15/30/7 16/21/7
f 15/23/8 9/31/8 10/19/8
f 12/24/9 11/32/9 16/21/9
f 14/26/10 16/33/10 15/27/10
o button
v -0.312500 0.445735 0.307752
v -0.312500 0.507285 0.318605
v -0.312500 0.554265 -0.307752
v -0.312500 0.615816 -0.296899
v 0.312500 0.445735 0.307752
v 0.312500 0.507285 0.318605
v 0.312500 0.554265 -0.307752
v -0.250000 0.518138 0.257055
v -0.250000 0.604963 -0.235349
v 0.250000 0.604963 -0.235349
v 0.250000 0.518138 0.257055
v 0.312500 0.615816 -0.296899
v -0.250000 0.641239 0.278761
v -0.250000 0.728064 -0.213643
v 0.250000 0.728064 -0.213643
v 0.250000 0.641239 0.278761
v -0.375000 0.619533 0.401862
v -0.375000 0.749770 -0.336744
v 0.375000 0.749770 -0.336744
v 0.375000 0.619533 0.401862
v -0.375000 0.742634 0.423568
v -0.375000 0.872871 -0.315038
v 0.375000 0.872871 -0.315038
v 0.375000 0.742634 0.423568
vt 0.812500 0.609375
vt 0.968750 0.593750
vt 0.812500 0.593750
vt 0.812500 0.609375
vt 0.968750 0.593750
vt 0.812500 0.593750
vt 0.968750 0.609375
vt 0.812500 0.593750
vt 0.968750 0.609375
vt 0.968750 0.593750
vt 0.953125 0.656250
vt 0.828125 0.687500
vt 0.828125 0.656250
vt 0.828125 0.640625
vt 0.968750 0.625000
vt 0.953125 0.640625
vt 0.828125 0.640625
vt 0.968750 0.625000
vt 0.953125 0.640625
vt 0.828125 0.640625
vt 0.968750 0.625000
vt 0.953125 0.640625
vt 0.828125 0.640625
vt 0.968750 0.625000
vt 0.953125 0.640625
vt 0.828125 0.656250
vt 0.953125 0.687500
vt 0.953125 0.656250
vt 0.953125 0.656250
vt 0.828125 0.687500
vt 0.828125 0.656250
vt 0.953125 0.687500
vt 0.796875 0.796875
vt 0.984375 0.984375
vt 0.796875 0.984375
vt 0.953125 0.734375
vt 0.796875 0.703125
vt 0.828125 0.734375
vt 0.953125 0.734375
vt 0.796875 0.703125
vt 0.828125 0.734375
vt 0.984375 0.750000
vt 0.796875 0.781250
vt 0.796875 0.750000
vt 0.796875 0.750000
vt 0.984375 0.781250
vt 0.984375 0.750000
vt 0.984375 0.750000
vt 0.796875 0.781250
vt 0.796875 0.750000
vt 0.984375 0.781250
vt 0.953125 0.734375
vt 0.796875 0.703125
vt 0.828125 0.734375
vt 0.953125 0.734375
vt 0.796875 0.703125
vt 0.828125 0.734375
vt 0.968750 0.609375
vt 0.812500 0.609375
vt 0.812500 0.625000
vt 0.812500 0.625000
vt 0.812500 0.625000
vt 0.812500 0.625000
vt 0.953125 0.687500
vt 0.828125 0.687500
vt 0.984375 0.796875
vt 0.984375 0.703125
vt 0.984375 0.703125
vt 0.984375 0.781250
vt 0.796875 0.781250
vt 0.984375 0.703125
vt 0.984375 0.703125
vn -1.0000 0.0000 0.0000
vn 0.0000 0.1736 -0.9848
vn 1.0000 -0.0000 0.0000
vn 0.0000 -0.1736 0.9848
vn 0.0000 0.9848 0.1736
vn 0.0000 -0.9848 -0.1736
vn 0.0000 0.9848 0.1737
s off
f 18/34/11 19/35/11 17/36/11
f 20/37/12 23/38/12 19/39/12
f 28/40/13 21/41/13 23/38/13
f 22/42/14 17/36/14 21/43/14
f 26/44/13 32/45/13 27/46/13
f 25/47/15 18/48/15 24/49/15
f 26/50/15 20/51/15 25/52/15
f 27/53/15 28/54/15 26/55/15
f 24/56/15 22/57/15 27/58/15
f 24/59/11 30/60/11 25/61/11
f 27/62/14 29/63/14 24/59/14
f 25/64/12 31/65/12 26/44/12
f 37/66/15 39/67/15 38/68/15
f 30/69/16 35/70/16 31/71/16
f 32/72/16 33/73/16 29/74/16
f 35/75/13 40/76/13 36/77/13
f 33/78/11 38/79/11 34/80/11
f 36/81/14 37/82/14 33/78/14
f 34/83/12 39/84/12 35/75/12
f 31/85/16 36/86/16 32/87/16
f 29/88/16 34/89/16 30/90/16
f 18/34/11 20/91/11 19/35/11
f 20/37/12 28/40/12 23/38/12
f 28/40/13 22/92/13 21/41/13
f 22/42/14 18/34/14 17/36/14
f 26/44/13 31/65/13 32/45/13
f 25/47/15 20/93/15 18/48/15
f 26/50/17 28/94/17 20/51/17
f 27/53/15 22/95/15 28/54/15
f 24/56/15 18/96/15 22/57/15
f 24/59/11 29/63/11 30/60/11
f 27/62/14 32/97/14 29/63/14
f 25/64/12 30/98/12 31/65/12
f 37/66/15 40/99/15 39/67/15
f 30/69/16 34/100/16 35/70/16
f 32/72/16 36/101/16 33/73/16
f 35/75/13 39/84/13 40/76/13
f 33/78/11 37/82/11 38/79/11
f 36/81/14 40/102/14 37/82/14
f 34/83/12 38/103/12 39/84/12
f 31/85/16 35/104/16 36/86/16
f 29/88/16 33/105/16 34/89/16
o cover2
v -0.750000 -0.250000 1.500000
v -0.750000 -0.000000 0.000000
v 0.750000 -0.250000 1.500000
v 0.750000 -0.000000 0.000000
v -0.750000 0.375000 0.000000
v 0.750000 0.375000 0.000000
v -0.750000 0.375000 1.500000
v 0.750000 0.375000 1.500000
vt 0.015625 0.171875
vt 0.390625 0.078125
vt 0.015625 0.078125
vt 0.390625 0.171875
vt 0.015625 0.015625
vt 0.390625 0.015625
vt 0.390625 0.171875
vt 0.390625 0.015625
vt 0.015625 0.078125
vt 0.015625 0.171875
vt 0.015625 0.203125
vt 0.390625 0.578125
vt 0.015625 0.578125
vt 0.390625 0.171875
vt 0.015625 0.171875
vt 0.390625 0.203125
vn 0.0000 0.0000 -1.0000
vn 0.0000 0.0000 1.0000
vn -1.0000 0.0000 0.0000
vn 1.0000 0.0000 0.0000
vn 0.0000 1.0000 0.0000
s off
f 45/106/18 44/107/18 42/108/18
f 48/109/19 41/110/19 43/111/19
f 47/112/20 42/108/20 41/113/20
f 48/109/21 44/114/21 46/115/21
f 47/116/22 46/117/22 45/118/22
f 45/106/18 46/119/18 44/107/18
f 48/109/19 47/120/19 41/110/19
f 47/112/20 45/106/20 42/108/20
f 48/109/21 43/111/21 44/114/21
f 47/116/22 48/121/22 46/117/22
