# Blender v3.1.2 OBJ File: 'control_panel_front.blend'
# www.blender.org
o panel
v -0.500000 1.000000 0.500000
v -0.500000 1.000000 -0.500000
v 0.125000 0.000000 -0.500000
v 0.125000 0.000000 0.500000
v 0.125000 0.593750 0.500000
v 0.125000 0.593750 -0.500000
v 0.125000 0.593750 0.500000
v -0.500000 0.000000 0.500000
v -0.500000 0.000000 -0.500000
v 0.437500 0.812500 -0.500000
v 0.437500 0.812500 0.500000
v 0.437500 0.593750 -0.500000
v 0.437500 0.593750 0.500000
v 0.406250 0.750000 0.375000
v 0.406250 0.656250 -0.375000
v 0.406250 0.656250 0.375000
v 0.500000 0.656250 -0.375000
v 0.406250 0.750000 0.343750
v 0.406250 0.656250 0.343750
v 0.468750 0.656250 0.343750
v 0.468750 0.750000 0.343750
v 0.406250 0.750000 -0.375000
v 0.500000 0.750000 0.375000
v 0.500000 0.750000 -0.375000
v 0.500000 0.656250 0.375000
v 0.468750 0.656250 -0.375000
v 0.468750 0.750000 -0.375000
v 0.468750 0.750000 0.375000
v 0.468750 0.656250 0.375000
v 0.406250 0.750000 -0.343750
v 0.406250 0.656250 -0.343750
v 0.125000 0.156250 0.375000
v 0.125000 0.156250 -0.375000
v 0.125000 0.093750 -0.500000
v 0.125000 0.093750 0.500000
v 0.125000 0.531250 -0.375000
v 0.125000 0.531250 0.375000
v 0.156250 0.531250 -0.375000
v 0.156250 0.531250 0.375000
v 0.156250 0.156250 -0.375000
v 0.156250 0.156250 0.375000
v 0.468750 0.750000 -0.343750
v 0.468750 0.656250 -0.343750
vt 0.023438 0.757812
vt 0.273438 0.515625
vt 0.273438 0.757812
vt 0.648438 0.218750
vt 0.570312 0.218750
vt 0.570312 0.476562
vt 0.679688 0.218750
vt 0.687500 0.312500
vt 0.679688 0.312500
vt 0.312500 0.898438
vt 0.562500 0.953125
vt 0.312500 0.953125
vt 0.531250 0.710938
vt 0.296875 0.757812
vt 0.453125 0.656250
vt 0.710938 0.507812
vt 0.554688 0.757812
vt 0.710938 0.757812
vt 0.281250 0.476562
vt 0.031250 0.218750
vt 0.031250 0.476562
vt 0.710938 0.867188
vt 0.718750 0.843750
vt 0.710938 0.843750
vt 0.726562 0.867188
vt 0.742188 0.843750
vt 0.726562 0.843750
vt 0.671875 0.867188
vt 0.664062 0.843750
vt 0.664062 0.867188
vt 0.632812 0.843750
vt 0.625000 0.867188
vt 0.632812 0.867188
vt 0.554688 0.835938
vt 0.742188 0.812500
vt 0.554688 0.812500
vt 0.039062 0.804688
vt 0.289062 0.781250
vt 0.289062 0.804688
vt 0.257812 0.820312
vt 0.289062 0.929688
vt 0.257812 0.914062
vt 0.070312 0.914062
vt 0.070312 0.820312
vt 0.039062 0.929688
vt 0.882812 0.312500
vt 0.695312 0.218750
vt 0.882812 0.218750
vt 0.890625 0.320312
vt 0.898438 0.507812
vt 0.890625 0.507812
vt 0.875000 0.507812
vt 0.882812 0.320312
vt 0.875000 0.320312
vt 0.890625 0.312500
vt 0.898438 0.218750
vt 0.890625 0.218750
vt 0.453125 0.375000
vt 0.296875 0.218750
vt 0.296875 0.476562
vt 0.679688 0.843750
vt 0.695312 0.867188
vt 0.695312 0.843750
vt 0.570312 0.843750
vt 0.554688 0.867188
vt 0.554688 0.843750
vt 0.750000 0.781250
vt 0.765625 0.789062
vt 0.750000 0.789062
vt 0.640625 0.867188
vt 0.656250 0.859375
vt 0.640625 0.859375
vt 0.585938 0.843750
vt 0.578125 0.867188
vt 0.578125 0.843750
vt 0.765625 0.781250
vt 0.773438 0.976562
vt 0.765625 0.976562
vt 0.601562 0.843750
vt 0.617188 0.867188
vt 0.601562 0.867188
vt 0.765625 0.968750
vt 0.750000 0.976562
vt 0.750000 0.968750
vt 0.656250 0.843750
vt 0.640625 0.851562
vt 0.656250 0.851562
vt 0.554688 0.804688
vt 0.742188 0.781250
vt 0.742188 0.804688
vt 0.781250 0.781250
vt 0.789062 0.976562
vt 0.789062 0.781250
vt 0.023438 0.515625
vt 0.648438 0.476562
vt 0.570312 0.218750
vt 0.687500 0.218750
vt 0.562500 0.898438
vt 0.296875 0.507812
vt 0.453125 0.507812
vt 0.453125 0.531250
vt 0.531250 0.656250
vt 0.554688 0.507812
vt 0.281250 0.218750
vt 0.718750 0.867188
vt 0.742188 0.867188
vt 0.671875 0.843750
vt 0.625000 0.843750
vt 0.742188 0.835938
vt 0.039062 0.781250
vt 0.695312 0.312500
vt 0.898438 0.320312
vt 0.882812 0.507812
vt 0.898438 0.312500
vt 0.531250 0.429688
vt 0.531250 0.375000
vt 0.453125 0.242188
vt 0.453125 0.218750
vt 0.679688 0.867188
vt 0.570312 0.867188
vt 0.656250 0.867188
vt 0.585938 0.867188
vt 0.773438 0.781250
vt 0.617188 0.843750
vt 0.640625 0.843750
vt 0.554688 0.781250
vt 0.781250 0.976562
vn 0.1961 0.9806 0.0000
vn 0.0000 -1.0000 0.0000
vn 0.0000 0.0000 1.0000
vn 1.0000 0.0000 0.0000
vn -1.0000 0.0000 0.0000
vn 0.0000 0.0000 -1.0000
vn 0.0000 1.0000 0.0000
s off
f 1/1/1 10/2/1 2/3/1
f 13/4/2 5/5/2 6/6/2
f 32/7/3 39/8/3 37/9/3
f 13/10/4 10/11/4 11/12/4
f 11/13/3 1/14/3 5/15/3
f 4/16/2 9/17/2 3/18/2
f 2/19/5 8/20/5 1/21/5
f 27/22/6 17/23/6 26/24/6
f 22/25/6 26/26/6 15/27/6
f 18/28/5 16/29/5 14/30/5
f 15/31/5 30/32/5 22/33/5
f 21/34/5 26/35/5 20/36/5
f 35/37/4 3/38/4 34/39/4
f 33/40/4 6/41/4 36/42/4
f 37/43/4 35/37/4 32/44/4
f 32/44/4 34/39/4 33/40/4
f 36/42/4 5/45/4 37/43/4
f 38/46/4 41/47/4 40/48/4
f 37/49/7 38/50/7 36/51/7
f 33/52/2 41/53/2 32/54/2
f 36/55/6 40/56/6 33/57/6
f 6/58/6 9/59/6 2/60/6
f 19/61/6 21/62/6 20/63/6
f 29/64/3 14/65/3 16/66/3
f 14/67/7 21/68/7 18/69/7
f 19/70/2 29/71/2 16/72/2
f 25/73/3 28/74/3 29/75/3
f 28/76/7 24/77/7 27/78/7
f 31/79/3 42/80/3 30/81/3
f 42/82/7 22/83/7 30/84/7
f 43/85/2 15/86/2 26/87/2
f 23/88/4 17/89/4 24/90/4
f 29/91/2 17/92/2 25/93/2
f 1/1/1 11/94/1 10/2/1
f 6/6/2 12/95/2 13/4/2
f 5/5/3 7/96/3 6/6/3
f 32/7/3 41/97/3 39/8/3
f 13/10/4 12/98/4 10/11/4
f 1/14/3 8/99/3 5/15/3
f 8/99/3 4/100/3 35/101/3
f 35/101/3 5/15/3 8/99/3
f 13/102/3 11/13/3 5/15/3
f 4/16/2 8/103/2 9/17/2
f 2/19/5 9/104/5 8/20/5
f 27/22/6 24/105/6 17/23/6
f 22/25/6 27/106/6 26/26/6
f 18/28/5 19/107/5 16/29/5
f 15/31/5 31/108/5 30/32/5
f 21/34/5 27/109/5 26/35/5
f 35/37/4 4/110/4 3/38/4
f 33/40/4 34/39/4 6/41/4
f 37/43/4 5/45/4 35/37/4
f 32/44/4 35/37/4 34/39/4
f 36/42/4 6/41/4 5/45/4
f 38/46/4 39/111/4 41/47/4
f 37/49/7 39/112/7 38/50/7
f 33/52/2 40/113/2 41/53/2
f 36/55/6 38/114/6 40/56/6
f 2/60/6 10/115/6 6/58/6
f 10/115/6 12/116/6 6/58/6
f 6/58/6 34/117/6 9/59/6
f 34/117/6 3/118/6 9/59/6
f 19/61/6 18/119/6 21/62/6
f 29/64/3 28/120/3 14/65/3
f 14/67/7 28/76/7 21/68/7
f 19/70/2 20/121/2 29/71/2
f 25/73/3 23/122/3 28/74/3
f 28/76/7 23/123/7 24/77/7
f 31/79/3 43/124/3 42/80/3
f 42/82/7 27/78/7 22/83/7
f 43/85/2 31/125/2 15/86/2
f 23/88/4 25/126/4 17/89/4
f 29/91/2 26/127/2 17/92/2
