# Blender v2.92.0 OBJ File: 'control0.blend'
# www.blender.org
o Cube_Cube.001
v -0.500000 0.000000 0.500000
v -0.500000 0.300000 0.500000
v -0.500000 0.000000 -0.500000
v -0.500000 0.300000 -0.500000
v 0.000000 0.000000 0.500000
v 0.000000 0.000000 -0.500000
v 0.000000 0.062174 0.500000
v -0.407648 0.300000 0.500000
v -0.407648 0.300000 -0.500000
v 0.000000 0.062174 -0.500000
vt 0.187559 0.187559
vt 0.000095 0.812442
vt 0.000094 0.187560
vt 0.833766 0.000094
vt 0.891475 0.000094
vt 0.891475 0.187559
vt 0.579034 0.851292
vt 0.891475 0.812441
vt 0.833766 0.999906
vt 0.579034 0.812441
vt 0.540183 0.812441
vt 0.579034 0.187559
vt 0.245268 0.187559
vt 0.245269 0.812441
vt 0.187560 0.812441
vt 0.579034 0.148708
vt 0.891475 0.999906
vt 0.540182 0.187559
vn -1.0000 0.0000 0.0000
vn 0.0000 0.0000 1.0000
vn 0.0000 0.0000 -1.0000
vn 0.0000 -1.0000 0.0000
vn 1.0000 0.0000 0.0000
vn 0.5039 0.8637 0.0000
vn 0.0000 1.0000 0.0000
s off
f 2/1/1 3/2/1 1/3/1
f 8/4/2 2/5/2 1/6/2
f 10/7/3 3/8/3 9/9/3
f 6/10/4 1/6/4 3/8/4
f 10/11/5 5/12/5 6/10/5
f 8/13/6 10/11/6 9/14/6
f 4/15/7 8/13/7 9/14/7
f 2/1/1 4/15/1 3/2/1
f 1/6/2 5/12/2 7/16/2
f 7/16/2 8/4/2 1/6/2
f 6/10/3 3/8/3 10/7/3
f 3/8/3 4/17/3 9/9/3
f 6/10/4 5/12/4 1/6/4
f 10/11/5 7/18/5 5/12/5
f 8/13/6 7/18/6 10/11/6
f 4/15/7 2/1/7 8/13/7
