# Blender v3.1.2 OBJ File: 'display0.blend'
# www.blender.org
o base
v -0.312500 0.000000 0.500000
v -0.312500 0.000000 -0.500000
v 0.312500 0.000000 0.500000
v 0.312500 0.000000 -0.500000
v 0.312500 0.062500 -0.500000
v 0.312500 0.062500 0.500000
v -0.312500 0.062500 0.500000
v -0.312500 0.062500 -0.500000
vt 0.000000 0.093750
vt 1.000000 0.031250
vt 0.000000 0.031250
vt 0.000000 0.218750
vt 0.625000 0.156250
vt 0.000000 0.156250
vt 1.000000 0.093750
vt 0.000000 0.031250
vt 1.000000 0.031250
vt 0.625000 0.218750
vt 0.000000 0.156250
vt 0.625000 0.156250
vt -0.000000 0.281250
vt 0.437500 1.000000
vt -0.000000 1.000000
vt 1.000000 0.093750
vt 0.625000 0.218750
vt 0.000000 0.093750
vt 0.000000 0.218750
vt 0.437500 0.281250
vn -1.0000 0.0000 0.0000
vn 0.0000 0.0000 -1.0000
vn 1.0000 0.0000 0.0000
vn 0.0000 0.0000 1.0000
vn 0.0000 1.0000 0.0000
s off
f 7/1/1 2/2/1 1/3/1
f 8/4/2 4/5/2 2/6/2
f 5/7/3 3/8/3 4/9/3
f 6/10/4 1/11/4 3/12/4
f 7/13/5 5/14/5 8/15/5
f 7/1/1 8/16/1 2/2/1
f 8/4/2 5/17/2 4/5/2
f 5/7/3 6/18/3 3/8/3
f 6/10/4 7/19/4 1/11/4
f 7/13/5 6/20/5 5/14/5
o seg_1
v 0.200016 0.064416 -0.367545
v 0.156183 0.064416 -0.326374
v 0.156183 0.064416 -0.049369
v 0.200016 0.064416 -0.008198
v 0.243848 0.064416 -0.049369
v 0.243848 0.064416 -0.326374
vt 0.937500 0.656250
vt 1.000000 0.937500
vt 0.937500 0.937500
vt 0.968750 0.625000
vt 1.000000 0.656250
vt 0.968750 0.968750
vn 0.0000 1.0000 0.0000
s off
f 11/21/6 14/22/6 10/23/6
f 11/21/6 12/24/6 13/25/6
f 13/25/6 14/22/6 11/21/6
f 14/22/6 9/26/6 10/23/6
o seg_2
v 0.200016 0.064416 0.008198
v 0.156183 0.064416 0.049369
v 0.156183 0.064416 0.326374
v 0.200016 0.064416 0.367545
v 0.243848 0.064416 0.326374
v 0.243848 0.064416 0.049369
vt 0.937500 0.312500
vt 1.000000 0.593750
vt 0.937500 0.593750
vt 0.968750 0.281250
vt 1.000000 0.312500
vt 0.968750 0.625000
vn 0.0000 1.0000 0.0000
s off
f 17/27/7 20/28/7 16/29/7
f 17/27/7 18/30/7 19/31/7
f 19/31/7 20/28/7 17/27/7
f 20/28/7 15/32/7 16/29/7
o seg_3
v -0.191288 0.064416 0.375743
v -0.147456 0.064416 0.416914
v 0.147456 0.064416 0.416914
v 0.191288 0.064416 0.375743
v 0.147456 0.064416 0.334572
v -0.147456 0.064416 0.334572
vt 0.656250 0.250000
vt 0.937500 0.250000
vt 0.937500 0.312500
vt 0.968750 0.281250
vt 0.656250 0.312500
vt 0.625000 0.281250
vn 0.0000 1.0000 0.0000
s off
f 22/33/8 23/34/8 25/35/8
f 23/34/8 24/36/8 25/35/8
f 25/35/8 26/37/8 22/33/8
f 26/37/8 21/38/8 22/33/8
o seg_4
v -0.200016 0.064416 0.008198
v -0.243848 0.064416 0.049369
v -0.243848 0.064416 0.326374
v -0.200016 0.064416 0.367545
v -0.156183 0.064416 0.326374
v -0.156183 0.064416 0.049369
vt 0.593750 0.593750
vt 0.593750 0.312500
vt 0.656250 0.312500
vt 0.625000 0.281250
vt 0.656250 0.593750
vt 0.625000 0.625000
vn 0.0000 1.0000 0.0000
s off
f 28/39/9 29/40/9 31/41/9
f 29/40/9 30/42/9 31/41/9
f 31/41/9 32/43/9 28/39/9
f 32/43/9 27/44/9 28/39/9
o seg_5
v -0.200016 0.064416 -0.367545
v -0.243848 0.064416 -0.326374
v -0.243848 0.064416 -0.049369
v -0.200016 0.064416 -0.008198
v -0.156183 0.064416 -0.049369
v -0.156183 0.064416 -0.326374
vt 0.593750 0.937500
vt 0.593750 0.656250
vt 0.656250 0.656250
vt 0.625000 0.625000
vt 0.656250 0.937500
vt 0.625000 0.968750
vn 0.0000 1.0000 0.0000
s off
f 34/45/10 35/46/10 37/47/10
f 35/46/10 36/48/10 37/47/10
f 37/47/10 38/49/10 34/45/10
f 38/49/10 33/50/10 34/45/10
o seg_0
v -0.191288 0.064416 -0.375743
v -0.147456 0.064416 -0.334572
v 0.147456 0.064416 -0.334572
v 0.191288 0.064416 -0.375743
v 0.147456 0.064416 -0.416914
v -0.147456 0.064416 -0.416914
vt 0.656250 0.937500
vt 0.937500 0.937500
vt 0.937500 1.000000
vt 0.968750 0.968750
vt 0.656250 1.000000
vt 0.625000 0.968750
vn 0.0000 1.0000 0.0000
s off
f 40/51/11 41/52/11 43/53/11
f 41/52/11 42/54/11 43/53/11
f 43/53/11 44/55/11 40/51/11
f 44/55/11 39/56/11 40/51/11
o seg_6
v -0.191288 0.064416 0.000000
v -0.147456 0.064416 0.041171
v 0.147456 0.064416 0.041171
v 0.191288 0.064416 0.000000
v 0.147456 0.064416 -0.041171
v -0.147456 0.064416 -0.041171
vt 0.656250 0.593750
vt 0.937500 0.593750
vt 0.937500 0.656250
vt 0.968750 0.625000
vt 0.656250 0.656250
vt 0.625000 0.625000
vn 0.0000 1.0000 0.0000
s off
f 46/57/12 47/58/12 49/59/12
f 47/58/12 48/60/12 49/59/12
f 49/59/12 50/61/12 46/57/12
f 50/61/12 45/62/12 46/57/12
o border
v -0.375000 0.000000 0.562500
v -0.375000 0.059429 0.562500
v -0.375000 0.000000 -0.562500
v -0.375000 0.059429 -0.562500
v 0.375000 0.000000 0.562500
v 0.375000 0.059429 0.562500
v 0.375000 0.000000 -0.562500
v 0.375000 0.059429 -0.562500
vt 0.625000 0.000000
vt 0.375000 0.250000
vt 0.375000 0.000000
vt 0.625000 0.250000
vt 0.375000 0.500000
vt 0.625000 0.500000
vt 0.375000 0.750000
vt 0.625000 0.750000
vt 0.375000 1.000000
vt 0.125000 0.750000
vt 0.125000 0.500000
vt 0.875000 0.500000
vt 0.625000 1.000000
vt 0.875000 0.750000
vn -1.0000 0.0000 0.0000
vn 0.0000 0.0000 -1.0000
vn 1.0000 0.0000 0.0000
vn 0.0000 0.0000 1.0000
vn 0.0000 -1.0000 0.0000
vn 0.0000 1.0000 0.0000
s off
f 52/63/13 53/64/13 51/65/13
f 54/66/14 57/67/14 53/64/14
f 58/68/15 55/69/15 57/67/15
f 56/70/16 51/71/16 55/69/16
f 57/67/17 51/72/17 53/73/17
f 54/74/18 56/70/18 58/68/18
f 52/63/13 54/66/13 53/64/13
f 54/66/14 58/68/14 57/67/14
f 58/68/15 56/70/15 55/69/15
f 56/70/16 52/75/16 51/71/16
f 57/67/17 55/69/17 51/72/17
f 54/74/18 52/76/18 56/70/18
