# Blender v3.1.2 OBJ File: 'toggleSwitch0_new.blend'
# www.blender.org
o ribbed
v 0.121842 0.187081 0.050468
v 0.121842 0.187081 -0.050468
v -0.050468 0.187081 0.121842
v 0.050468 0.187081 0.121842
v -0.121842 0.187081 0.050468
v -0.121842 0.187081 -0.050468
v 0.050468 0.187081 -0.121842
v -0.050468 0.187081 -0.121842
v 0.153632 0.062294 -0.063636
v 0.153632 0.062294 0.063636
v 0.063636 0.062294 0.153632
v -0.063636 0.062294 0.153632
v -0.153632 0.062294 0.063636
v -0.153632 0.062294 -0.063636
v 0.063636 0.062294 -0.153632
v -0.063636 0.062294 -0.153632
v -0.063636 0.187081 0.153632
v 0.063636 0.187081 0.153632
v -0.153632 0.187081 0.063636
v -0.153632 0.187081 -0.063636
v -0.063636 0.187081 -0.153632
v 0.153632 0.187081 -0.063636
v 0.063636 0.187081 -0.153632
v 0.153632 0.187081 0.063636
v -0.042263 0.064137 0.102033
v 0.042263 0.064137 0.102033
v -0.102033 0.064137 0.042263
v -0.102033 0.064137 -0.042263
v -0.042263 0.064137 -0.102033
v 0.102033 0.064137 -0.042263
v 0.042263 0.064137 -0.102033
v 0.102033 0.064137 0.042263
vt 0.125000 0.875000
vt 0.000000 1.000000
vt 0.000000 0.875000
vt 0.218750 0.875000
vt 0.125000 1.000000
vt 0.125000 0.875000
vt 0.125000 0.875000
vt 0.000000 1.000000
vt 0.125000 1.000000
vt 0.125000 1.000000
vt 0.218750 0.875000
vt 0.218750 1.000000
vt 0.218750 1.000000
vt 0.125000 1.000000
vt 0.125000 0.875000
vt 0.000000 1.000000
vt 0.125000 1.000000
vt 0.000000 1.000000
vt 0.125000 0.875000
vt 0.218750 1.000000
vt 0.218750 0.875000
vt 0.406250 1.000000
vt 0.500000 0.875000
vt 0.406250 0.875000
vt 0.343750 0.906250
vt 0.281250 0.875000
vt 0.343750 0.875000
vt 0.281250 0.906250
vt 0.281250 0.906250
vt 0.281250 0.968750
vt 0.281250 1.000000
vt 0.250000 0.968750
vt 0.343750 0.968750
vt 0.343750 1.000000
vt 0.343750 0.968750
vt 0.281250 0.968750
vt 0.250000 0.906250
vt 0.343750 0.906250
vt 0.375000 0.968750
vt 0.375000 0.906250
vt 0.500000 1.000000
vt 0.406250 0.875000
vt 0.406250 1.000000
vt 0.406250 1.000000
vt 0.500000 0.875000
vt 0.500000 1.000000
vt 0.500000 0.875000
vt 0.406250 0.875000
vt 0.406250 1.000000
vt 0.500000 0.875000
vt 0.406250 0.875000
vt 0.500000 1.000000
vt 0.500000 1.000000
vt 0.406250 1.000000
vt 0.500000 0.875000
vt 0.218750 1.000000
vt 0.000000 0.875000
vt 0.218750 0.875000
vt 0.000000 0.875000
vt 0.000000 0.875000
vt 0.500000 1.000000
vt 0.406250 0.875000
vn 0.9999 0.0112 0.0114
vn 0.9999 -0.0141 -0.0000
vn 0.9999 0.0160 0.0000
vn -0.7151 0.0112 0.6990
vn -0.7070 -0.0141 0.7070
vn -0.7070 0.0160 0.7070
vn 0.0000 0.0160 -0.9999
vn 0.0101 -0.0099 -0.9999
vn 0.0000 -0.0141 -0.9999
vn 0.7142 -0.0099 0.6999
vn 0.7070 0.0160 0.7070
vn 0.7070 -0.0141 0.7070
vn 0.7070 0.0160 -0.7070
vn 0.7142 -0.0099 -0.6999
vn 0.7070 -0.0141 -0.7070
vn -0.9999 0.0160 0.0000
vn -0.9999 -0.0099 -0.0101
vn -0.9999 -0.0141 -0.0000
vn 0.0101 -0.0099 0.9999
vn 0.0000 0.0160 0.9999
vn 0.0000 -0.0141 0.9999
vn -0.6990 0.0112 -0.7151
vn -0.7070 -0.0141 -0.7070
vn -0.7070 0.0160 -0.7070
vn 0.6992 0.2423 -0.6726
vn 0.7369 0.0862 -0.6705
vn 0.6411 0.1287 -0.7566
vn -0.0005 0.9962 -0.0870
vn -0.0644 0.9962 0.0585
vn 0.0867 0.9962 0.0068
vn -0.0826 0.9962 -0.0274
vn 0.0490 0.9962 0.0719
vn 0.0704 0.9962 -0.0511
vn 0.0619 0.9962 0.0611
vn 0.0042 0.9962 -0.0869
vn -0.0662 0.9962 0.0565
vn 0.0826 0.9962 0.0274
vn -0.0490 0.9962 -0.0719
vn -0.0704 0.9962 0.0511
vn 0.0777 0.9962 -0.0390
vn -0.0855 0.9962 -0.0162
vn -0.0136 0.9962 0.0859
vn -0.0390 0.9962 -0.0777
vn -0.0162 0.9962 0.0855
vn 0.0859 0.9962 0.0136
vn 0.0390 0.9962 0.0777
vn 0.0162 0.9962 -0.0855
vn -0.0859 0.9962 -0.0136
vn -0.0619 0.9962 -0.0611
vn -0.0042 0.9962 0.0869
vn 0.0662 0.9962 -0.0565
vn -0.9845 0.1525 -0.0868
vn -0.9927 0.1015 0.0651
vn -0.9705 0.2394 0.0291
vn -0.0868 0.1525 0.9845
vn 0.0651 0.1015 0.9927
vn 0.0291 0.2394 0.9705
vn 0.6726 0.2423 0.6992
vn 0.6705 0.0862 0.7369
vn 0.7566 0.1287 0.6411
vn 0.0188 0.2423 -0.9700
vn 0.0470 0.0862 -0.9952
vn -0.0816 0.1287 -0.9883
vn -0.6348 0.1525 -0.7575
vn -0.7480 0.1015 -0.6559
vn -0.7068 0.2394 -0.6657
vn 0.9700 0.2423 0.0188
vn 0.9952 0.0862 0.0470
vn 0.9883 0.1287 -0.0816
vn -0.7575 0.1525 0.6348
vn -0.6559 0.1015 0.7480
vn -0.6657 0.2394 0.7068
vn 0.9999 -0.0099 -0.0101
vn -0.6999 -0.0099 0.7142
vn -0.0114 0.0112 -0.9999
vn 0.6990 0.0112 0.7151
vn 0.6990 0.0112 -0.7151
vn -0.9999 0.0112 0.0114
vn -0.0114 0.0112 0.9999
vn -0.7142 -0.0099 -0.6999
vn 0.6540 0.2308 -0.7204
vn 0.7520 0.1818 -0.6336
vn 0.6884 0.0757 -0.7213
vn 0.0644 0.9962 -0.0585
vn -0.0742 0.9962 -0.0455
vn -0.0264 0.9962 0.0829
vn -0.0110 0.9962 -0.0863
vn -0.0827 0.9962 0.0269
vn 0.0846 0.9962 -0.0203
vn -0.0400 0.9962 -0.0773
vn 0.0110 0.9962 0.0863
vn 0.0827 0.9962 -0.0269
vn 0.0688 0.9962 0.0532
vn 0.0395 0.9962 -0.0775
vn -0.0777 0.9962 0.0390
vn 0.0532 0.9962 -0.0688
vn -0.0775 0.9962 -0.0395
vn -0.0532 0.9962 0.0688
vn 0.0775 0.9962 0.0395
vn -0.0846 0.9962 0.0203
vn 0.0400 0.9962 0.0773
vn -0.9752 0.2102 -0.0694
vn -0.9968 0.0761 -0.0247
vn -0.9826 0.1645 0.0868
vn -0.0694 0.2102 0.9752
vn -0.0247 0.0761 0.9968
vn 0.0868 0.1645 0.9826
vn 0.7204 0.2308 0.6540
vn 0.6336 0.1818 0.7520
vn 0.7213 0.0757 0.6884
vn -0.0470 0.2308 -0.9719
vn 0.0837 0.1818 -0.9798
vn -0.0233 0.0757 -0.9969
vn -0.6405 0.2102 -0.7386
vn -0.6874 0.0761 -0.7223
vn -0.7561 0.1645 -0.6334
vn 0.9719 0.2308 -0.0470
vn 0.9798 0.1818 0.0837
vn 0.9969 0.0757 -0.0233
vn -0.7386 0.2102 0.6405
vn -0.7223 0.0761 0.6874
vn -0.6334 0.1645 0.7561
s off
f 9/1/1 24/2/2 10/3/3
f 12/4/4 19/5/5 13/6/6
f 15/7/7 21/8/8 23/9/9
f 18/10/10 10/11/11 24/12/12
f 9/1/13 23/13/14 22/14/15
f 14/15/16 19/16/17 20/17/18
f 17/18/19 11/19/20 18/10/21
f 14/15/22 21/20/23 16/21/24
f 5/22/25 25/23/26 27/24/27
f 4/25/28 17/26/29 18/27/30
f 5/28/31 17/26/32 3/29/33
f 6/30/34 21/31/35 20/32/36
f 2/33/37 23/34/38 7/35/39
f 7/35/40 21/31/41 8/36/42
f 6/30/43 19/37/44 5/28/45
f 1/38/46 22/39/47 2/33/48
f 1/38/49 18/27/50 24/40/51
f 2/41/52 32/42/53 1/43/54
f 8/44/55 31/45/56 7/46/57
f 8/44/58 28/47/59 29/48/60
f 3/49/61 26/50/62 25/51/63
f 1/43/64 26/50/65 4/52/66
f 6/53/67 27/24/68 28/47/69
f 7/54/70 30/55/71 2/41/72
f 9/1/3 22/14/2 24/2/73
f 12/4/6 17/56/5 19/5/74
f 15/7/75 16/57/7 21/8/9
f 18/10/12 11/19/11 10/11/76
f 9/1/77 15/58/13 23/13/15
f 14/15/78 13/59/16 19/16/18
f 17/18/21 12/60/20 11/19/79
f 14/15/24 20/17/23 21/20/80
f 5/22/81 3/61/82 25/23/83
f 4/25/84 3/29/85 17/26/86
f 5/28/87 19/37/88 17/26/37
f 6/30/50 8/36/89 21/31/90
f 2/33/91 22/39/92 23/34/31
f 7/35/93 23/34/94 21/31/95
f 6/30/96 20/32/97 19/37/46
f 1/38/98 24/40/99 22/39/43
f 1/38/35 4/25/100 18/27/101
f 2/41/102 30/55/103 32/42/104
f 8/44/105 29/48/106 31/45/107
f 8/44/108 6/53/109 28/47/110
f 3/49/111 4/52/112 26/50/113
f 1/43/114 32/42/115 26/50/116
f 6/53/117 5/22/118 27/24/119
f 7/54/120 31/62/121 30/55/122
o ball
v -0.036929 0.096946 -0.113659
v -0.091952 0.103837 -0.066807
v -0.021707 0.132356 -0.066807
v 0.096684 0.096946 -0.070244
v 0.035124 0.103837 -0.108096
v 0.056829 0.132356 -0.041289
v 0.096684 0.096946 0.070244
v 0.113659 0.103837 0.000000
v 0.056829 0.132356 0.041289
v -0.036929 0.096946 0.113659
v 0.035124 0.103837 0.108096
v -0.021707 0.132356 0.066807
v -0.119508 0.096946 0.000000
v -0.091952 0.103837 0.066807
v -0.070246 0.132356 0.000000
v 0.000000 0.145464 0.000000
v -0.127074 0.057693 0.041289
v -0.078537 0.057693 0.108096
v 0.000000 0.057693 0.133614
v 0.078537 0.057693 0.108096
v 0.127074 0.057693 0.041289
v 0.127074 0.057693 -0.041289
v 0.078537 0.057693 -0.108096
v 0.000000 0.057693 -0.133614
v -0.078537 0.057693 -0.108096
v -0.127074 0.057693 -0.041289
vt 0.906250 1.000000
vt 0.875000 0.968750
vt 0.906250 0.968750
vt 1.000000 0.968750
vt 0.968750 1.000000
vt 0.968750 0.968750
vt 1.000000 0.906250
vt 1.000000 0.937500
vt 0.968750 0.906250
vt 0.906250 0.875000
vt 0.968750 0.875000
vt 0.906250 0.906250
vt 0.875000 0.937500
vt 0.875000 0.906250
vt 0.875000 0.937500
vt 0.937500 0.937500
vt 0.875000 0.843750
vt 0.812500 0.781250
vt 0.906250 0.781250
vt 0.812500 0.843750
vt 0.812500 0.781250
vt 0.875000 0.843750
vt 0.812500 0.843750
vt 0.906250 0.781250
vt 0.937500 0.843750
vt 1.000000 0.781250
vt 1.000000 0.843750
vt 0.875000 0.843750
vt 0.906250 0.781250
vt 0.812500 0.781250
vt 0.937500 0.843750
vt 1.000000 0.781250
vt 1.000000 0.781250
vt 0.937500 0.843750
vt 1.000000 0.843750
vt 0.906250 0.781250
vt 0.875000 0.843750
vt 0.812500 0.781250
vt 0.812500 0.843750
vt 1.000000 0.843750
vt 0.937500 0.843750
vt 1.000000 0.781250
vt 0.812500 0.843750
vt 1.000000 0.843750
vn -0.2548 0.5656 -0.7843
vn -0.6200 0.6425 -0.4504
vn -0.1227 0.9177 -0.3777
vn 0.6672 0.5656 -0.4847
vn 0.2368 0.6425 -0.7288
vn 0.3213 0.9177 -0.2334
vn 0.6672 0.5656 0.4847
vn 0.7663 0.6425 0.0000
vn 0.3213 0.9177 0.2334
vn -0.2548 0.5656 0.7843
vn 0.2368 0.6425 0.7288
vn -0.1227 0.9177 0.3777
vn -0.8247 0.5656 0.0000
vn -0.6200 0.6425 0.4504
vn -0.3972 0.9177 0.0000
vn 0.0000 1.0000 0.0000
vn -0.8846 0.3514 0.3067
vn -0.5651 0.3514 0.7465
vn 0.0184 0.3514 0.9361
vn 0.5353 0.3514 0.7681
vn 0.8959 0.3514 0.2718
vn 0.8959 0.3514 -0.2718
vn 0.5353 0.3514 -0.7681
vn 0.0184 0.3514 -0.9361
vn -0.5651 0.3514 -0.7465
vn -0.8846 0.3514 -0.3067
s 1
f 33/63/123 34/64/124 35/65/125
f 36/66/126 37/67/127 38/68/128
f 39/69/129 40/70/130 41/71/131
f 42/72/132 43/73/133 44/74/134
f 45/75/135 46/76/136 47/77/137
f 47/77/137 44/74/134 48/78/138
f 47/77/137 46/76/136 44/74/134
f 46/76/136 42/72/132 44/74/134
f 44/74/134 41/71/131 48/78/138
f 44/74/134 43/73/133 41/71/131
f 43/73/133 39/69/129 41/71/131
f 41/71/131 38/68/128 48/78/138
f 41/71/131 40/70/130 38/68/128
f 40/70/130 36/66/126 38/68/128
f 38/68/128 35/65/125 48/78/138
f 38/68/128 37/67/127 35/65/125
f 37/67/127 33/63/123 35/65/125
f 35/65/125 47/77/137 48/78/138
f 35/65/125 34/64/124 47/77/137
f 34/64/124 45/75/135 47/77/137
f 49/79/139 46/80/136 45/81/135
f 49/79/139 50/82/140 46/80/136
f 50/83/140 42/84/132 46/85/136
f 51/86/141 43/87/133 42/84/132
f 51/86/141 52/88/142 43/87/133
f 52/88/142 39/89/129 43/87/133
f 53/90/143 40/91/130 39/92/129
f 53/90/143 54/93/144 40/91/130
f 54/93/144 36/94/126 40/91/130
f 55/95/145 37/96/127 36/97/126
f 55/95/145 56/98/146 37/96/127
f 56/98/146 33/99/123 37/96/127
f 57/100/147 34/101/124 33/99/123
f 57/102/147 58/103/148 34/104/124
f 58/103/148 45/81/135 34/104/124
f 50/83/140 51/86/141 42/84/132
f 52/105/142 53/90/143 39/92/129
f 54/93/144 55/106/145 36/94/126
f 56/98/146 57/100/147 33/99/123
f 58/103/148 49/79/139 45/81/135
o nut
v 0.249466 0.005669 0.000114
v 0.143150 0.055562 0.000114
v 0.124733 0.005669 0.216158
v 0.071575 0.055562 0.124085
v -0.124733 0.005669 0.216158
v -0.071575 0.055562 0.124085
v -0.249466 0.005669 0.000114
v -0.143150 0.055562 0.000114
v -0.124733 0.005669 -0.215931
v -0.071575 0.055562 -0.123858
v 0.124733 0.005669 -0.215931
v 0.071575 0.055562 -0.123858
v 0.124733 0.055562 0.216158
v 0.249466 0.055562 0.000114
v -0.124733 0.055562 0.216158
v -0.249466 0.055562 0.000114
v -0.124733 0.055562 -0.215931
v 0.124733 0.055562 -0.215931
vt 0.687500 0.156250
vt 1.000000 0.093750
vt 0.687500 0.093750
vt 1.000000 0.062500
vt 0.656250 -0.000000
vt 1.000000 0.000000
vt 1.000000 0.156250
vt 0.687500 0.093750
vt 1.000000 0.093750
vt 0.687500 0.156250
vt 1.000000 0.093750
vt 0.656250 0.062500
vt 1.000000 0.000000
vt 0.656250 0.000000
vt 1.000000 0.156250
vt 1.000000 0.093750
vt 0.593750 0.375000
vt 0.812500 0.500000
vt 0.687500 0.500000
vt 0.406250 0.375000
vt 0.656250 0.250000
vt 0.343750 0.500000
vt 0.343750 0.250000
vt 0.406250 0.625000
vt 0.218750 0.500000
vt 0.593750 0.625000
vt 0.343750 0.750000
vt 0.656250 0.750000
vt 1.000000 0.156250
vt 0.656250 0.062500
vt 1.000000 0.156250
vt 1.000000 0.062500
vn 0.8660 0.0000 0.5000
vn 0.0000 0.0000 1.0000
vn -0.8660 0.0000 0.5000
vn -0.8660 0.0000 -0.5000
vn -0.0000 0.0000 -1.0000
vn 0.8660 0.0000 -0.5000
vn 0.0000 1.0000 0.0000
s off
f 72/107/149 61/108/149 59/109/149
f 71/110/150 63/111/150 61/112/150
f 73/113/151 65/114/151 63/115/151
f 74/116/152 67/117/152 65/114/152
f 75/118/153 69/119/153 67/120/153
f 76/121/154 59/109/154 69/122/154
f 62/123/155 72/124/155 60/125/155
f 64/126/155 71/127/155 62/123/155
f 66/128/155 73/129/155 64/126/155
f 68/130/155 74/131/155 66/128/155
f 70/132/155 75/133/155 68/130/155
f 60/125/155 76/134/155 70/132/155
f 72/107/149 71/135/149 61/108/149
f 71/110/150 73/136/150 63/111/150
f 73/113/151 74/116/151 65/114/151
f 74/116/152 75/137/152 67/117/152
f 75/118/153 76/138/153 69/119/153
f 76/121/154 72/107/154 59/109/154
f 62/123/155 71/127/155 72/124/155
f 64/126/155 73/129/155 71/127/155
f 66/128/155 74/131/155 73/129/155
f 68/130/155 75/133/155 74/131/155
f 70/132/155 76/134/155 75/133/155
f 60/125/155 72/124/155 76/134/155
o shaft
v -0.047578 0.107063 0.083994
v -0.070140 0.585028 0.275794
v -0.047578 0.136057 0.002492
v -0.070140 0.627770 0.155642
v 0.047578 0.107063 0.083994
v 0.070140 0.585028 0.275794
v 0.047578 0.136057 0.002492
v 0.070140 0.627770 0.155642
vt 0.000000 0.500000
vt 0.156250 0.000000
vt 0.000000 0.000000
vt 0.000000 0.500000
vt 0.156250 0.000000
vt 0.000000 0.000000
vt 0.156250 0.500000
vt 0.000000 0.000000
vt 0.156250 0.500000
vt 0.156250 0.000000
vt 0.093750 0.625000
vt 0.000000 0.531250
vt 0.000000 0.625000
vt 0.000000 0.656250
vt 0.156250 0.531250
vt 0.156250 0.656250
vt 0.156250 0.500000
vt 0.000000 0.500000
vt 0.093750 0.531250
vt 0.000000 0.531250
vn -0.9990 -0.0413 -0.0147
vn 0.0000 0.2974 -0.9548
vn 0.9990 -0.0413 -0.0147
vn 0.0000 -0.3724 0.9281
vn 0.0000 -0.9422 -0.3352
vn 0.0000 0.9422 0.3352
s off
f 78/139/156 79/140/156 77/141/156
f 80/142/157 83/143/157 79/144/157
f 84/145/158 81/146/158 83/143/158
f 82/147/159 77/141/159 81/148/159
f 83/149/160 77/150/160 79/151/160
f 80/152/161 82/153/161 84/154/161
f 78/139/156 80/155/156 79/140/156
f 80/142/157 84/145/157 83/143/157
f 84/145/158 82/156/158 81/146/158
f 82/147/159 78/139/159 77/141/159
f 83/149/160 81/157/160 77/150/160
f 80/152/161 78/158/161 82/153/161
