# Blender v3.1.2 OBJ File: 'switch_rotary_toggle.blend'
# www.blender.org
o base
v -0.500000 0.000000 0.500000
v -0.500000 0.125000 0.500000
v -0.500000 0.000000 -0.500000
v -0.500000 0.125000 -0.500000
v 0.500000 0.000000 0.500000
v 0.500000 0.125000 0.500000
v 0.500000 0.000000 -0.500000
v 0.500000 0.125000 -0.500000
v -0.250000 0.125000 0.250000
v -0.250000 0.187500 0.250000
v -0.250000 0.125000 -0.250000
v -0.250000 0.187500 -0.250000
v 0.250000 0.125000 0.250000
v 0.250000 0.187500 0.250000
v 0.250000 0.125000 -0.250000
v 0.250000 0.187500 -0.250000
vt 0.031250 0.968750
vt 0.531250 0.906250
vt 0.031250 0.906250
vt 0.531250 0.968750
vt 0.031250 0.906250
vt 0.531250 0.968750
vt 0.031250 0.906250
vt 0.531250 0.906250
vt 0.531250 0.968750
vt 0.531250 0.906250
vt 0.531250 0.375000
vt 0.031250 0.875000
vt 0.031250 0.375000
vt 0.406250 0.500000
vt 0.156250 0.531250
vt 0.156250 0.500000
vt 0.406250 0.500000
vt 0.156250 0.531250
vt 0.156250 0.500000
vt 0.406250 0.500000
vt 0.156250 0.531250
vt 0.156250 0.500000
vt 0.406250 0.500000
vt 0.156250 0.531250
vt 0.156250 0.500000
vt 0.156250 0.750000
vt 0.156250 0.500000
vt 0.031250 0.968750
vt 0.031250 0.968750
vt 0.531250 0.875000
vt 0.406250 0.531250
vt 0.406250 0.531250
vt 0.406250 0.531250
vt 0.406250 0.531250
vt 0.406250 0.750000
vn -1.0000 0.0000 0.0000
vn 0.0000 0.0000 -1.0000
vn 1.0000 0.0000 0.0000
vn 0.0000 0.0000 1.0000
vn 0.0000 1.0000 0.0000
s off
f 2/1/1 3/2/1 1/3/1
f 4/4/2 7/5/2 3/2/2
f 8/6/3 5/7/3 7/8/3
f 6/9/4 1/3/4 5/10/4
f 4/11/5 6/12/5 8/13/5
f 10/14/1 11/15/1 9/16/1
f 12/17/2 15/18/2 11/19/2
f 16/20/3 13/21/3 15/22/3
f 14/23/4 9/24/4 13/25/4
f 12/17/5 14/26/5 16/27/5
f 2/1/1 4/4/1 3/2/1
f 4/4/2 8/28/2 7/5/2
f 8/6/3 6/29/3 5/7/3
f 6/9/4 2/1/4 1/3/4
f 4/11/5 2/30/5 6/12/5
f 10/14/1 12/31/1 11/15/1
f 12/17/2 16/32/2 15/18/2
f 16/20/3 14/33/3 13/21/3
f 14/23/4 10/34/4 9/24/4
f 12/17/5 10/35/5 14/26/5
o lever
v 0.125000 0.187500 0.125000
v 0.125000 0.375000 0.125000
v -0.125000 0.187500 0.125000
v -0.125000 0.375000 0.125000
v 0.125000 0.187500 -0.125000
v 0.125000 0.375000 -0.125000
v -0.125000 0.187500 -0.125000
v -0.125000 0.375000 -0.125000
v 0.125000 0.500000 0.125000
v -0.125000 0.500000 0.125000
v -0.125000 0.500000 -0.125000
v 0.125000 0.500000 -0.125000
v -0.062500 0.375000 -0.625000
v 0.062500 0.375000 -0.625000
v -0.062500 0.500000 -0.625000
v 0.062500 0.500000 -0.625000
vt 0.562500 0.718750
vt 0.687500 0.625000
vt 0.562500 0.625000
vt 0.562500 0.718750
vt 0.687500 0.625000
vt 0.562500 0.625000
vt 0.687500 0.718750
vt 0.562500 0.625000
vt 0.687500 0.718750
vt 0.687500 0.625000
vt 0.687500 0.750000
vt 0.562500 0.812500
vt 0.562500 0.750000
vt 0.562500 0.968750
vt 0.687500 0.843750
vt 0.687500 0.968750
vt 0.562500 0.750000
vt 0.687500 0.812500
vt 0.687500 0.750000
vt 0.687500 0.968750
vt 0.937500 0.843750
vt 0.687500 0.843750
vt 0.687500 0.812500
vt 0.687500 0.750000
vt 0.625000 0.750000
vt 0.562500 0.812500
vt 0.562500 0.750000
vt 0.937500 0.750000
vt 0.937500 0.812500
vt 0.687500 0.812500
vt 0.937500 0.968750
vt 0.687500 0.718750
vt 0.562500 0.718750
vt 0.562500 0.843750
vt 0.562500 0.812500
vt 0.937500 0.968750
vt 0.625000 0.812500
vt 0.937500 0.812500
vt 0.937500 0.750000
vt 0.937500 0.843750
vn -0.0000 0.0000 1.0000
vn -1.0000 0.0000 -0.0000
vn 0.0000 0.0000 -1.0000
vn 1.0000 0.0000 0.0000
vn 0.0000 1.0000 0.0000
vn 0.0000 -1.0000 -0.0000
vn -0.9923 0.0000 -0.1240
vn 0.9923 0.0000 -0.1240
s off
f 18/36/6 19/37/6 17/38/6
f 20/39/7 23/40/7 19/41/7
f 24/42/8 21/43/8 23/40/8
f 22/44/9 17/38/9 21/45/9
f 22/46/9 25/47/9 18/48/9
f 26/49/10 28/50/10 27/51/10
f 20/52/7 27/53/7 24/54/7
f 24/55/11 30/56/11 22/57/11
f 18/48/6 26/58/6 20/59/6
f 29/60/8 32/61/8 30/62/8
f 27/53/12 29/63/12 24/54/12
f 22/46/13 32/64/13 28/65/13
f 28/50/10 31/66/10 27/51/10
f 18/36/6 20/67/6 19/37/6
f 20/39/7 24/42/7 23/40/7
f 24/42/8 22/68/8 21/43/8
f 22/44/9 18/36/9 17/38/9
f 22/46/9 28/65/9 25/47/9
f 26/49/10 25/69/10 28/50/10
f 20/52/7 26/70/7 27/53/7
f 24/55/11 29/71/11 30/56/11
f 18/48/6 25/47/6 26/58/6
f 29/60/8 31/72/8 32/61/8
f 27/53/12 31/73/12 29/63/12
f 22/46/13 30/74/13 32/64/13
f 28/50/10 32/75/10 31/66/10
