# Blender v2.79 (sub 0) OBJ File: 'rtg.blend'
# www.blender.org
o Connector
v -0.500000 0.687500 -0.187500
v -0.500000 0.687500 0.187500
v -0.500000 0.312500 -0.187500
v -0.500000 0.312500 0.187500
v -0.375000 0.687500 -0.187500
v -0.375000 0.687500 0.187500
v -0.375000 0.312500 -0.187500
v -0.375000 0.312500 0.187500
v -0.375000 0.625000 -0.125000
v -0.375000 0.625000 0.125000
v -0.375000 0.375000 -0.125000
v -0.375000 0.375000 0.125000
v -0.125000 0.625000 -0.125000
v -0.125000 0.625000 0.125000
v -0.125000 0.375000 -0.125000
v -0.125000 0.375000 0.125000
vt 0.761905 0.500000
vt 0.904762 0.357143
vt 0.904762 0.500000
vt 0.761905 0.357143
vt 0.904762 0.500000
vt 0.761905 0.500000
vt 0.714286 0.357143
vt 0.761905 0.357143
vt 0.761905 0.500000
vt 0.714286 0.357143
vt 0.761905 0.357143
vt 0.761905 0.500000
vt 0.714286 0.357143
vt 0.761905 0.357143
vt 0.761905 0.500000
vt 0.714286 0.357143
vt 0.761905 0.357143
vt 0.714286 0.452381
vt 0.619048 0.357143
vt 0.714286 0.357143
vt 0.714286 0.452381
vt 0.619048 0.357143
vt 0.714286 0.357143
vt 0.714286 0.452381
vt 0.619048 0.357143
vt 0.714286 0.357143
vt 0.714286 0.452381
vt 0.619048 0.357143
vt 0.714286 0.357143
vt 0.904762 0.357143
vt 0.714286 0.500000
vt 0.714286 0.500000
vt 0.714286 0.500000
vt 0.714286 0.500000
vt 0.619048 0.452381
vt 0.619048 0.452381
vt 0.619048 0.452381
vt 0.619048 0.452381
vn -1.0000 0.0000 0.0000
vn 1.0000 0.0000 0.0000
vn 0.0000 0.0000 -1.0000
vn 0.0000 1.0000 0.0000
vn 0.0000 0.0000 1.0000
vn 0.0000 -1.0000 0.0000
s off
f 1/1/1 4/2/1 2/3/1
f 8/4/2 5/5/2 6/6/2
f 1/1/3 7/7/3 3/8/3
f 2/9/4 5/10/4 1/11/4
f 4/12/5 6/13/5 2/14/5
f 3/15/6 8/16/6 4/17/6
f 12/18/5 14/19/5 10/20/5
f 11/21/6 16/22/6 12/23/6
f 9/24/3 15/25/3 11/26/3
f 10/27/4 13/28/4 9/29/4
f 1/1/1 3/8/1 4/2/1
f 8/4/2 7/30/2 5/5/2
f 1/1/3 5/31/3 7/7/3
f 2/9/4 6/32/4 5/10/4
f 4/12/5 8/33/5 6/13/5
f 3/15/6 7/34/6 8/16/6
f 12/18/5 16/35/5 14/19/5
f 11/21/6 15/36/6 16/22/6
f 9/24/3 13/37/3 15/25/3
f 10/27/4 14/38/4 13/28/4
