# Blender 3.5.1
# www.blender.org
mtllib difurnace_extension.mtl
o Bottom
v 0.000000 0.000000 1.000000
v 0.000000 -0.000000 0.000000
v 1.000000 0.000000 1.000000
v 1.000000 -0.000000 0.000000
vn -0.0000 -1.0000 -0.0000
vt 0.500000 0.000000
vt 1.000000 0.000000
vt 0.500000 0.500000
vt 1.000000 0.500000
s 0
usemtl Material
f 4/4/1 1/1/1 2/2/1
f 4/4/1 3/3/1 1/1/1
o Side
v 0.000000 0.000000 1.000000
v 0.250000 0.750000 0.750000
v 0.000000 -0.000000 0.000000
v 0.250000 0.750000 0.250000
v 1.000000 0.000000 1.000000
v 0.750000 0.750000 0.750000
v 1.000000 -0.000000 0.000000
v 0.750000 0.750000 0.250000
v 0.250000 1.000000 0.750000
v 0.250000 1.000000 0.250000
v 0.750000 1.000000 0.250000
v 0.750000 1.000000 0.750000
vn -0.9487 0.3162 -0.0000
vn -0.0000 0.3162 -0.9487
vn 0.9487 0.3162 -0.0000
vn -0.0000 0.3162 0.9487
vn 1.0000 -0.0000 -0.0000
vn -1.0000 -0.0000 -0.0000
vn -0.0000 -0.0000 1.0000
vn -0.0000 -0.0000 -1.0000
vt 0.514649 0.501953
vt 0.000000 0.500000
vt 0.125000 0.875000
vt 0.375000 0.875000
vt 0.500000 0.500000
vt 0.000000 0.500000
vt 0.125000 0.875000
vt 0.375000 0.875000
vt 0.500000 0.500000
vt 0.000000 0.500000
vt 0.125000 0.875000
vt 0.375000 0.875000
vt 0.500000 0.500000
vt 0.000000 0.500000
vt 0.125000 0.875000
vt 0.375000 0.875000
vt 0.375000 1.000000
vt 0.125000 1.000000
vt 0.125000 1.000000
vt 0.375000 1.000000
vt 0.375000 1.000000
vt 0.125000 1.000000
vt 0.125000 1.000000
vt 0.375000 1.000000
s 0
usemtl Material
f 6/8/2 7/10/2 5/5/2
f 8/12/3 11/18/3 7/9/3
f 12/20/4 9/14/4 11/17/4
f 10/16/5 5/6/5 9/13/5
f 12/20/6 16/27/6 10/15/6
f 6/8/7 14/23/7 8/11/7
f 10/16/8 13/22/8 6/7/8
f 8/12/9 15/26/9 12/19/9
f 6/8/2 8/11/2 7/10/2
f 8/12/3 12/19/3 11/18/3
f 12/20/4 10/15/4 9/14/4
f 10/16/5 6/7/5 5/6/5
f 12/20/6 15/25/6 16/27/6
f 6/8/7 13/21/7 14/23/7
f 10/16/8 16/28/8 13/22/8
f 8/12/9 14/24/9 15/26/9
o Top
v 0.250000 1.000000 0.750000
v 0.250000 1.000000 0.250000
v 0.750000 1.000000 0.250000
v 0.750000 1.000000 0.750000
vn -0.0000 1.0000 -0.0000
vt 0.996970 0.504006
vt 0.498147 0.508889
vt 0.500000 1.000000
vt 0.999900 0.999900
s 0
usemtl Material
f 18/30/10 20/32/10 19/31/10
f 18/30/10 17/29/10 20/32/10
