# Blender v2.92.0 OBJ File: ''
# www.blender.org
mtllib pipe_framed.mtl

usemtl TopRustyMTL

o Top
v 0.765165 1.000000 0.234835
v 0.500000 1.000000 0.500000
v 0.875000 1.000000 0.500000
v 0.500000 0.000000 0.125000
v 0.500000 0.000000 0.500000
v 0.234835 0.000000 0.234835
v 0.500000 1.000000 0.875000
v 0.234835 1.000000 0.765165
v 0.125000 1.000000 0.500000
v 0.234835 1.000000 0.234835
v 0.765165 1.000000 0.765165
v 0.500000 1.000000 0.125000
v 0.125000 0.000000 0.500000
v 0.500000 -0.000000 0.875000
v 0.765165 -0.000000 0.765165
v 0.875000 0.000000 0.500000
v 0.765165 0.000000 0.234835
v 0.234835 -0.000000 0.765165
vt 0.500000 0.125000
vt 0.500000 0.500000
vt 0.750000 0.250000
vt 0.250000 0.250000
vt 0.500000 0.500000
vt 0.500000 0.125000
vt 0.750000 0.750000
vt 0.500000 0.875000
vt 0.250000 0.750000
vt 0.125000 0.500000
vt 0.875000 0.500000
vt 0.250000 0.250000
vt 0.750000 0.250000
vt 0.750000 0.750000
vt 0.500000 0.875000
vt 0.250000 0.750000
vt 0.125000 0.500000
vt 0.875000 0.500000
vn 0.0000 1.0000 0.0000
vn 0.0000 -1.0000 -0.0000
s 1
f 1/1/1 2/2/1 3/3/1
f 4/4/2 5/5/2 6/6/2
f 7/7/1 2/2/1 8/8/1
f 9/9/1 2/2/1 10/10/1
f 3/3/1 2/2/1 11/11/1
f 8/8/1 2/2/1 9/9/1
f 2/2/1 1/1/1 12/12/1
f 11/11/1 2/2/1 7/7/1
f 10/10/1 2/2/1 12/12/1
f 6/6/2 5/5/2 13/13/2
f 14/14/2 5/5/2 15/15/2
f 5/5/2 16/16/2 15/15/2
f 16/16/2 5/5/2 17/17/2
f 13/13/2 5/5/2 18/18/2
f 17/17/2 5/5/2 4/4/2
f 18/18/2 5/5/2 14/14/2

usemtl SideRustyMTL

o Side
v 0.500000 1.000000 0.125000
v 0.765165 0.000000 0.234835
v 0.500000 0.000000 0.125000
v 0.765165 1.000000 0.234835
v 0.875000 0.000000 0.500000
v 0.875000 1.000000 0.500000
v 0.765165 -0.000000 0.765165
v 0.765165 1.000000 0.765165
v 0.500000 -0.000000 0.875000
v 0.500000 1.000000 0.875000
v 0.234835 -0.000000 0.765165
v 0.234835 1.000000 0.765165
v 0.125000 0.000000 0.500000
v 0.125000 1.000000 0.500000
v 0.234835 0.000000 0.234835
v 0.234835 1.000000 0.234835
vt 0.500000 1.000000
vt 0.187500 0.000000
vt 0.500000 0.000000
vt 0.812500 1.000000
vt 0.500000 -0.000000
vt 0.812500 -0.000000
vt 0.500000 1.000000
vt 0.187500 0.000000
vt 0.812500 1.000000
vt 0.500000 0.000000
vt 0.812500 0.000000
vt 0.500000 1.000000
vt 0.187500 0.000000
vt 0.812500 1.000000
vt 0.500000 0.000000
vt 0.812500 0.000000
vt 0.500000 1.000000
vt 0.187500 0.000000
vt 0.812500 1.000000
vt 0.812500 0.000000
vt 0.187500 1.000000
vt 0.187500 1.000000
vt 0.187500 1.000000
vt 0.187500 1.000000
vn 0.3827 0.0000 -0.9239
vn 0.9239 0.0000 -0.3827
vn 0.9239 -0.0000 0.3827
vn 0.3827 -0.0000 0.9239
vn -0.3827 -0.0000 0.9239
vn -0.9239 -0.0000 0.3827
vn -0.9239 0.0000 -0.3827
vn -0.3827 0.0000 -0.9239
s 1
f 19/19/3 20/20/3 21/21/3
f 22/22/4 23/23/4 20/24/4
f 24/25/5 25/26/5 23/23/5
f 26/27/6 27/28/6 25/29/6
f 28/30/7 29/31/7 27/28/7
f 30/32/8 31/33/8 29/34/8
f 32/35/9 33/36/9 31/33/9
f 34/37/10 21/21/10 33/38/10
f 19/19/3 22/39/3 20/20/3
f 22/22/4 24/25/4 23/23/4
f 24/25/5 26/40/5 25/26/5
f 26/27/6 28/30/6 27/28/6
f 28/30/7 30/41/7 29/31/7
f 30/32/8 32/35/8 31/33/8
f 32/35/9 34/42/9 33/36/9
f 34/37/10 19/19/10 21/21/10

usemtl FrameMTL

o Frame
v 0.875000 1.000000 1.000000
v 0.875000 -0.000000 0.875000
v 0.875000 -0.000000 1.000000
v 0.875000 1.000000 0.875000
v 1.000000 -0.000000 0.875000
v 1.000000 1.000000 0.875000
v 1.000000 -0.000000 1.000000
v 1.000000 1.000000 1.000000
v 0.000000 1.000000 1.000000
v 0.000000 -0.000000 0.875000
v 0.000000 -0.000000 1.000000
v 0.000000 1.000000 0.875000
v 0.125000 -0.000000 0.875000
v 0.125000 1.000000 0.875000
v 0.125000 -0.000000 1.000000
v 0.125000 1.000000 1.000000
v 0.875000 1.000000 0.125000
v 0.875000 0.000000 -0.000000
v 0.875000 0.000000 0.125000
v 0.875000 1.000000 0.000000
v 1.000000 0.000000 -0.000000
v 1.000000 1.000000 0.000000
v 1.000000 0.000000 0.125000
v 1.000000 1.000000 0.125000
v 0.000000 1.000000 0.125000
v 0.000000 0.000000 -0.000000
v 0.000000 0.000000 0.125000
v 0.000000 1.000000 0.000000
v 0.125000 0.000000 -0.000000
v 0.125000 1.000000 0.000000
v 0.125000 0.000000 0.125000
v 0.125000 1.000000 0.125000
vt 1.000000 1.000000
vt 0.875000 0.000000
vt 1.000000 0.000000
vt 0.125000 1.000000
vt 0.000000 0.000000
vt 0.125000 0.000000
vt 0.125027 0.999965
vt 0.000035 0.000035
vt 0.125027 0.000035
vt 1.000000 1.000000
vt 0.875000 0.000000
vt 1.000000 -0.000000
vt 0.125000 1.000000
vt -0.000000 0.875000
vt 0.125000 0.875000
vt 0.125000 0.125000
vt 0.000000 0.000000
vt 0.125000 0.000000
vt 1.000000 1.000000
vt 0.875000 0.000000
vt 1.000000 0.000000
vt 1.000000 1.000000
vt 0.875000 0.000000
vt 1.000000 0.000000
vt 0.125027 0.999965
vt 0.000035 0.000035
vt 0.125027 0.000035
vt 0.125000 1.000000
vt -0.000000 -0.000000
vt 0.125000 0.000000
vt 0.125000 0.125000
vt 0.125000 -0.000000
vt 0.125000 1.000000
vt 0.000000 0.875000
vt 0.125000 0.875000
vt 0.125000 1.000000
vt 0.000000 0.000000
vt 0.125000 0.000000
vt 0.125000 1.000000
vt 0.000000 0.000000
vt 0.125000 0.000000
vt 1.000000 1.000000
vt 0.875000 -0.000000
vt 1.000000 -0.000000
vt 1.000000 1.000000
vt 0.875000 -0.000000
vt 1.000000 0.000000
vt 1.000000 1.000000
vt 0.875000 0.875000
vt 1.000000 0.875000
vt 1.000000 0.125000
vt 0.875000 0.000000
vt 1.000000 0.000000
vt 0.125000 1.000000
vt 0.000000 0.000000
vt 0.125000 0.000000
vt 1.000000 1.000000
vt 0.875000 0.000000
vt 1.000000 0.000000
vt 1.000000 1.000000
vt 0.875000 -0.000000
vt 1.000000 -0.000000
vt 0.125000 1.000000
vt -0.000000 -0.000000
vt 0.125000 0.000000
vt 1.000000 0.125000
vt 0.875000 -0.000000
vt 0.875000 0.875000
vt 1.000000 0.875000
vt 0.875000 1.000000
vt 0.000000 1.000000
vt 0.000035 0.999965
vt 0.875000 1.000000
vt -0.000000 1.000000
vt 0.000000 0.125000
vt 0.875000 1.000000
vt 0.875000 1.000000
vt 0.000035 0.999965
vt 0.000000 1.000000
vt -0.000000 0.125000
vt 0.000000 1.000000
vt 0.000000 1.000000
vt 0.875000 1.000000
vt 0.875000 1.000000
vt 0.875000 1.000000
vt 0.875000 0.125000
vt 0.000000 1.000000
vt 0.875000 1.000000
vt 0.875000 1.000000
vt -0.000000 1.000000
vt 0.875000 0.125000
vt 0.875000 1.000000
vn -1.0000 0.0000 0.0000
vn 0.0000 0.0000 -1.0000
vn 1.0000 0.0000 0.0000
vn 0.0000 -0.0000 1.0000
vn 0.0000 -1.0000 0.0000
vn 0.0000 1.0000 0.0000
s 1
f 35/43/11 36/44/11 37/45/11
f 38/46/12 39/47/12 36/48/12
f 40/49/13 41/50/13 39/51/13
f 42/52/14 37/53/14 41/54/14
f 39/55/15 37/56/15 36/57/15
f 38/58/16 42/59/16 40/60/16
f 43/61/11 44/62/11 45/63/11
f 46/64/12 47/65/12 44/66/12
f 48/67/13 49/68/13 47/69/13
f 50/70/14 45/71/14 49/72/14
f 47/73/15 45/71/15 44/74/15
f 46/75/16 50/76/16 48/77/16
f 51/78/11 52/79/11 53/80/11
f 54/81/12 55/82/12 52/83/12
f 56/84/13 57/85/13 55/86/13
f 58/87/14 53/88/14 57/89/14
f 55/90/15 53/91/15 52/92/15
f 54/93/16 58/94/16 56/95/16
f 59/96/11 60/97/11 61/98/11
f 62/99/12 63/100/12 60/101/12
f 64/102/13 65/103/13 63/104/13
f 66/105/14 61/106/14 65/107/14
f 63/108/15 61/109/15 60/101/15
f 62/99/16 66/110/16 64/111/16
f 35/43/11 38/112/11 36/44/11
f 38/46/12 40/113/12 39/47/12
f 40/49/13 42/114/13 41/50/13
f 42/52/14 35/115/14 37/53/14
f 39/55/15 41/116/15 37/56/15
f 38/58/16 35/117/16 42/59/16
f 43/61/11 46/118/11 44/62/11
f 46/64/12 48/119/12 47/65/12
f 48/67/13 50/120/13 49/68/13
f 50/70/14 43/121/14 45/71/14
f 47/73/15 49/122/15 45/71/15
f 46/75/16 43/121/16 50/76/16
f 51/78/11 54/123/11 52/79/11
f 54/81/12 56/124/12 55/82/12
f 56/84/13 58/125/13 57/85/13
f 58/87/14 51/126/14 53/88/14
f 55/90/15 57/127/15 53/91/15
f 54/93/16 51/128/16 58/94/16
f 59/96/11 62/129/11 60/97/11
f 62/99/12 64/130/12 63/100/12
f 64/102/13 66/131/13 65/103/13
f 66/105/14 59/132/14 61/106/14
f 63/108/15 65/133/15 61/109/15
f 62/99/16 59/134/16 66/110/16

usemtl MeshMTL

o Mesh
v 0.937500 0.000000 0.125000
v 0.937500 1.000000 0.875000
v 0.937500 -0.000000 0.875000
v 0.062500 1.000000 0.875000
v 0.062500 0.000000 0.125000
v 0.062500 -0.000000 0.875000
v 0.125000 0.000000 0.062500
v 0.875000 1.000000 0.062500
v 0.875000 0.000000 0.062500
v 0.875000 1.000000 0.937500
v 0.125000 -0.000000 0.937500
v 0.875000 -0.000000 0.937500
v 0.937500 1.000000 0.875000
v 0.937500 0.000000 0.125000
v 0.937500 -0.000000 0.875000
v 0.062500 0.000000 0.125000
v 0.062500 1.000000 0.875000
v 0.062500 -0.000000 0.875000
v 0.875000 1.000000 0.062500
v 0.125000 0.000000 0.062500
v 0.875000 0.000000 0.062500
v 0.125000 -0.000000 0.937500
v 0.875000 1.000000 0.937500
v 0.875000 -0.000000 0.937500
v 0.937500 1.000000 0.125000
v 0.062500 1.000000 0.125000
v 0.125000 1.000000 0.062500
v 0.125000 1.000000 0.937500
v 0.937500 1.000000 0.125000
v 0.062500 1.000000 0.125000
v 0.125000 1.000000 0.062500
v 0.125000 1.000000 0.937500
vt 0.875000 -0.000000
vt 0.125000 1.000000
vt 0.125000 -0.000000
vt 0.875000 1.000000
vt 0.125000 -0.000000
vt 0.875000 -0.000000
vt 0.875000 -0.000000
vt 0.125000 1.000000
vt 0.125000 -0.000000
vt 0.875000 1.000000
vt 0.125000 -0.000000
vt 0.875000 -0.000000
vt 0.125000 1.000000
vt 0.875000 -0.000000
vt 0.125000 -0.000000
vt 0.125000 -0.000000
vt 0.875000 1.000000
vt 0.875000 -0.000000
vt 0.125000 1.000000
vt 0.875000 -0.000000
vt 0.125000 -0.000000
vt 0.125000 -0.000000
vt 0.875000 1.000000
vt 0.875000 -0.000000
vt 0.875000 1.000000
vt 0.125000 1.000000
vt 0.875000 1.000000
vt 0.125000 1.000000
vt 0.875000 1.000000
vt 0.125000 1.000000
vt 0.875000 1.000000
vt 0.125000 1.000000
vn 1.0000 0.0000 0.0000
vn -1.0000 -0.0000 0.0000
vn 0.0000 0.0000 -1.0000
vn 0.0000 -0.0000 1.0000
s 1
f 67/135/17 68/136/17 69/137/17
f 70/138/18 71/139/18 72/140/18
f 73/141/19 74/142/19 75/143/19
f 76/144/20 77/145/20 78/146/20
f 79/147/18 80/148/18 81/149/18
f 82/150/17 83/151/17 84/152/17
f 85/153/20 86/154/20 87/155/20
f 88/156/19 89/157/19 90/158/19
f 67/135/17 91/159/17 68/136/17
f 70/138/18 92/160/18 71/139/18
f 73/141/19 93/161/19 74/142/19
f 76/144/20 94/162/20 77/145/20
f 79/147/18 95/163/18 80/148/18
f 82/150/17 96/164/17 83/151/17
f 85/153/20 97/165/20 86/154/20
f 88/156/19 98/166/19 89/157/19
