# Blender v2.92.0 OBJ File: ''
# www.blender.org
mtllib pipe_framed.mtl

usemtl TopRedMTL

o Top
v 0.500000 0.937500 0.062500
v 0.500000 0.937500 0.500000
v 0.190641 0.937500 0.190641
v 0.500000 1.000000 0.062500
v 0.500000 1.000000 0.500000
v 0.809359 1.000000 0.190641
v 0.809359 0.062500 0.190641
v 0.500000 0.062500 0.500000
v 0.937500 0.062500 0.500000
v 0.500000 0.000000 0.062500
v 0.500000 0.000000 0.500000
v 0.190641 0.000000 0.190641
v 0.937500 1.000000 0.500000
v 0.809359 1.000000 0.809359
v 0.190641 1.000000 0.190641
v 0.062500 1.000000 0.500000
v 0.500000 1.000000 0.937500
v 0.190641 1.000000 0.809359
v 0.500000 0.937500 0.937500
v 0.809359 0.937500 0.809359
v 0.190641 0.937500 0.809359
v 0.809359 0.937500 0.190641
v 0.062500 0.937500 0.500000
v 0.937500 0.937500 0.500000
v 0.809359 0.062500 0.809359
v 0.500000 0.062500 0.937500
v 0.190641 0.062500 0.190641
v 0.062500 0.062500 0.500000
v 0.190641 0.062500 0.809359
v 0.500000 0.062500 0.062500
v 0.500000 -0.000000 0.937500
v 0.809359 -0.000000 0.809359
v 0.062500 0.000000 0.500000
v 0.190641 -0.000000 0.809359
v 0.937500 0.000000 0.500000
v 0.809359 0.000000 0.190641
vt 0.187500 0.187500
vt 0.500000 0.500000
vt 0.500000 0.062500
vt 0.187500 0.187500
vt 0.500000 0.500000
vt 0.500000 0.062500
vt 0.500000 0.062500
vt 0.500000 0.500000
vt 0.812500 0.187500
vt 0.187500 0.187500
vt 0.500000 0.500000
vt 0.500000 0.062500
vt 0.812500 0.187500
vt 0.937500 0.500000
vt 0.062500 0.500000
vt 0.187500 0.812500
vt 0.812500 0.812500
vt 0.500000 0.937500
vt 0.812500 0.812500
vt 0.500000 0.937500
vt 0.937500 0.500000
vt 0.062500 0.500000
vt 0.812500 0.187500
vt 0.187500 0.812500
vt 0.937500 0.500000
vt 0.812500 0.812500
vt 0.062500 0.500000
vt 0.187500 0.812500
vt 0.500000 0.937500
vt 0.187500 0.187500
vt 0.812500 0.812500
vt 0.500000 0.937500
vt 0.812500 0.187500
vt 0.937500 0.500000
vt 0.187500 0.812500
vt 0.062500 0.500000
vn 0.0000 -1.0000 -0.0000
vn 0.0000 1.0000 0.0000
s 1
f 1/1/1 2/2/1 3/3/1
f 4/4/2 5/5/2 6/6/2
f 7/7/2 8/8/2 9/9/2
f 10/10/1 11/11/1 12/12/1
f 13/13/2 5/5/2 14/14/2
f 5/5/2 15/15/2 16/16/2
f 14/14/2 5/5/2 17/17/2
f 18/18/2 5/5/2 16/16/2
f 6/6/2 5/5/2 13/13/2
f 17/17/2 5/5/2 18/18/2
f 5/5/2 4/4/2 15/15/2
f 19/19/1 2/2/1 20/20/1
f 21/21/1 2/2/1 19/19/1
f 22/22/1 2/2/1 1/1/1
f 3/3/1 2/2/1 23/23/1
f 20/20/1 2/2/1 24/24/1
f 23/23/1 2/2/1 21/21/1
f 24/24/1 2/2/1 22/22/1
f 9/9/2 8/8/2 25/25/2
f 25/25/2 8/8/2 26/26/2
f 8/8/2 27/27/2 28/28/2
f 26/26/2 8/8/2 29/29/2
f 8/8/2 30/30/2 27/27/2
f 29/29/2 8/8/2 28/28/2
f 8/8/2 7/7/2 30/30/2
f 31/31/1 11/11/1 32/32/1
f 33/33/1 11/11/1 34/34/1
f 35/35/1 11/11/1 36/36/1
f 34/34/1 11/11/1 31/31/1
f 36/36/1 11/11/1 10/10/1
f 12/12/1 11/11/1 33/33/1
f 32/32/1 11/11/1 35/35/1

usemtl SideRedMTL

o Side
v 0.500000 0.937500 0.125000
v 0.765165 0.062500 0.234835
v 0.500000 0.062500 0.125000
v 0.765165 0.937500 0.234835
v 0.875000 0.062500 0.500000
v 0.875000 0.937500 0.500000
v 0.765165 0.062500 0.765165
v 0.765165 0.937500 0.765165
v 0.500000 0.062500 0.875000
v 0.500000 0.937500 0.875000
v 0.234835 0.062500 0.765165
v 0.234835 0.937500 0.765165
v 0.125000 0.062500 0.500000
v 0.125000 0.937500 0.500000
v 0.234835 0.062500 0.234835
v 0.234835 0.937500 0.234835
v 0.190641 1.000000 0.809359
v 0.500000 0.937500 0.937500
v 0.500000 1.000000 0.937500
v 0.500000 0.062500 0.062500
v 0.809359 0.000000 0.190641
v 0.500000 0.000000 0.062500
v 0.190641 1.000000 0.190641
v 0.062500 0.937500 0.500000
v 0.062500 1.000000 0.500000
v 0.809359 0.062500 0.190641
v 0.937500 0.000000 0.500000
v 0.937500 1.000000 0.500000
v 0.809359 0.937500 0.190641
v 0.809359 1.000000 0.190641
v 0.937500 0.062500 0.500000
v 0.809359 -0.000000 0.809359
v 0.190641 0.937500 0.809359
v 0.809359 0.062500 0.809359
v 0.500000 -0.000000 0.937500
v 0.500000 1.000000 0.062500
v 0.190641 0.937500 0.190641
v 0.500000 0.062500 0.937500
v 0.190641 -0.000000 0.809359
v 0.809359 1.000000 0.809359
v 0.937500 0.937500 0.500000
v 0.190641 0.062500 0.809359
v 0.062500 0.000000 0.500000
v 0.809359 0.937500 0.809359
v 0.062500 0.062500 0.500000
v 0.190641 0.000000 0.190641
v 0.500000 0.937500 0.062500
v 0.190641 0.062500 0.190641
vt 0.500000 0.937500
vt 0.187500 0.062500
vt 0.500000 0.062500
vt 0.812500 0.937500
vt 0.500000 0.062500
vt 0.812500 0.062500
vt 0.500000 0.937500
vt 0.187500 0.062500
vt 0.812500 0.937500
vt 0.500000 0.062500
vt 0.812500 0.062500
vt 0.500000 0.937500
vt 0.187500 0.062500
vt 0.812500 0.937500
vt 0.500000 0.062500
vt 0.812500 0.062500
vt 0.500000 0.937500
vt 0.187500 0.062500
vt 0.812500 0.937500
vt 0.812500 0.062500
vt 0.187500 1.000000
vt 0.500000 0.937500
vt 0.500000 1.000000
vt 0.500000 0.000000
vt 0.812500 0.062500
vt 0.500000 0.062500
vt 0.187500 1.000000
vt 0.500000 0.937500
vt 0.500000 1.000000
vt 0.812500 0.062500
vt 0.500000 0.000000
vt 0.812500 0.000000
vt 0.500000 1.000000
vt 0.812500 0.937500
vt 0.812500 1.000000
vt 0.500000 0.062500
vt 0.187500 0.000000
vt 0.812500 0.937500
vt 0.812500 1.000000
vt 0.812500 0.062500
vt 0.500000 0.000000
vt 0.812500 0.000000
vt 0.500000 1.000000
vt 0.812500 0.937500
vt 0.812500 1.000000
vt 0.500000 0.062500
vt 0.187500 0.000000
vt 0.187500 1.000000
vt 0.500000 0.937500
vt 0.187500 0.000000
vt 0.500000 0.062500
vt 0.187500 0.062500
vt 0.812500 0.937500
vt 0.812500 1.000000
vt 0.500000 0.000000
vt 0.812500 0.062500
vt 0.187500 1.000000
vt 0.500000 0.937500
vt 0.187500 0.000000
vt 0.187500 0.062500
vt 0.187500 0.937500
vt 0.187500 0.937500
vt 0.187500 0.937500
vt 0.187500 0.937500
vt 0.187500 0.937500
vt 0.812500 0.000000
vt 0.187500 0.937500
vt 0.187500 0.062500
vt 0.187500 0.062500
vt 0.187500 0.937500
vt 0.812500 0.000000
vt 0.187500 0.937500
vn 0.3827 0.0000 -0.9239
vn 0.9239 0.0000 -0.3827
vn 0.9239 -0.0000 0.3827
vn 0.3827 -0.0000 0.9239
vn -0.3827 -0.0000 0.9239
vn -0.9239 -0.0000 0.3827
vn -0.9239 0.0000 -0.3827
vn -0.3827 0.0000 -0.9239
s 1
f 37/37/3 38/38/3 39/39/3
f 40/40/4 41/41/4 38/42/4
f 42/43/5 43/44/5 41/41/5
f 44/45/6 45/46/6 43/47/6
f 46/48/7 47/49/7 45/46/7
f 48/50/8 49/51/8 47/52/8
f 50/53/9 51/54/9 49/51/9
f 52/55/10 39/39/10 51/56/10
f 53/57/7 54/58/7 55/59/7
f 56/60/3 57/61/3 58/62/3
f 59/63/9 60/64/9 61/65/9
f 62/66/4 63/67/4 57/68/4
f 64/69/4 65/70/4 66/71/4
f 67/72/5 68/73/5 63/67/5
f 61/65/8 69/74/8 53/75/8
f 70/76/6 71/77/6 68/78/6
f 72/79/10 73/80/10 59/81/10
f 74/82/7 75/83/7 71/77/7
f 76/84/5 77/85/5 64/69/5
f 78/86/8 79/87/8 75/88/8
f 55/59/6 80/89/6 76/90/6
f 81/91/9 82/92/9 79/87/9
f 66/93/3 83/94/3 72/79/3
f 84/95/10 58/62/10 82/96/10
f 37/37/3 40/97/3 38/38/3
f 40/40/4 42/43/4 41/41/4
f 42/43/5 44/98/5 43/44/5
f 44/45/6 46/48/6 45/46/6
f 46/48/7 48/99/7 47/49/7
f 48/50/8 50/53/8 49/51/8
f 50/53/9 52/100/9 51/54/9
f 52/55/10 37/37/10 39/39/10
f 53/57/7 69/101/7 54/58/7
f 56/60/3 62/102/3 57/61/3
f 59/63/9 73/103/9 60/64/9
f 62/66/4 67/72/4 63/67/4
f 64/69/4 77/85/4 65/70/4
f 67/72/5 70/104/5 68/73/5
f 61/65/8 60/64/8 69/74/8
f 70/76/6 74/82/6 71/77/6
f 72/79/10 83/94/10 73/80/10
f 74/82/7 78/105/7 75/83/7
f 76/84/5 80/106/5 77/85/5
f 78/86/8 81/91/8 79/87/8
f 55/59/6 54/58/6 80/89/6
f 81/91/9 84/107/9 82/92/9
f 66/93/3 65/108/3 83/94/3
f 84/95/10 56/60/10 58/62/10

usemtl FrameMTL

o Frame
v 0.875000 1.000000 1.000000
v 0.875000 -0.000000 0.875000
v 0.875000 -0.000000 1.000000
v 0.875000 1.000000 0.875000
v 1.000000 -0.000000 0.875000
v 1.000000 1.000000 0.875000
v 1.000000 -0.000000 1.000000
v 1.000000 1.000000 1.000000
v 0.000000 1.000000 1.000000
v 0.000000 -0.000000 0.875000
v 0.000000 -0.000000 1.000000
v 0.000000 1.000000 0.875000
v 0.125000 -0.000000 0.875000
v 0.125000 1.000000 0.875000
v 0.125000 -0.000000 1.000000
v 0.125000 1.000000 1.000000
v 0.875000 1.000000 0.125000
v 0.875000 0.000000 -0.000000
v 0.875000 0.000000 0.125000
v 0.875000 1.000000 0.000000
v 1.000000 0.000000 -0.000000
v 1.000000 1.000000 0.000000
v 1.000000 0.000000 0.125000
v 1.000000 1.000000 0.125000
v 0.000000 1.000000 0.125000
v 0.000000 0.000000 -0.000000
v 0.000000 0.000000 0.125000
v 0.000000 1.000000 0.000000
v 0.125000 0.000000 -0.000000
v 0.125000 1.000000 0.000000
v 0.125000 0.000000 0.125000
v 0.125000 1.000000 0.125000
vt 1.000000 1.000000
vt 0.875000 0.000000
vt 1.000000 0.000000
vt 0.125000 1.000000
vt 0.000000 0.000000
vt 0.125000 0.000000
vt 0.125027 0.999965
vt 0.000035 0.000035
vt 0.125027 0.000035
vt 1.000000 1.000000
vt 0.875000 0.000000
vt 1.000000 -0.000000
vt 0.125000 1.000000
vt -0.000000 0.875000
vt 0.125000 0.875000
vt 0.125000 0.125000
vt 0.000000 0.000000
vt 0.125000 0.000000
vt 1.000000 1.000000
vt 0.875000 0.000000
vt 1.000000 0.000000
vt 1.000000 1.000000
vt 0.875000 0.000000
vt 1.000000 0.000000
vt 0.125027 0.999965
vt 0.000035 0.000035
vt 0.125027 0.000035
vt 0.125000 1.000000
vt -0.000000 -0.000000
vt 0.125000 0.000000
vt 0.125000 0.125000
vt 0.125000 -0.000000
vt 0.125000 1.000000
vt 0.000000 0.875000
vt 0.125000 0.875000
vt 0.125000 1.000000
vt 0.000000 0.000000
vt 0.125000 0.000000
vt 0.125000 1.000000
vt 0.000000 0.000000
vt 0.125000 0.000000
vt 1.000000 1.000000
vt 0.875000 -0.000000
vt 1.000000 -0.000000
vt 1.000000 1.000000
vt 0.875000 -0.000000
vt 1.000000 0.000000
vt 1.000000 1.000000
vt 0.875000 0.875000
vt 1.000000 0.875000
vt 1.000000 0.125000
vt 0.875000 0.000000
vt 1.000000 0.000000
vt 0.125000 1.000000
vt 0.000000 0.000000
vt 0.125000 0.000000
vt 1.000000 1.000000
vt 0.875000 0.000000
vt 1.000000 0.000000
vt 1.000000 1.000000
vt 0.875000 -0.000000
vt 1.000000 -0.000000
vt 0.125000 1.000000
vt -0.000000 -0.000000
vt 0.125000 0.000000
vt 1.000000 0.125000
vt 0.875000 -0.000000
vt 0.875000 0.875000
vt 1.000000 0.875000
vt 0.875000 1.000000
vt 0.000000 1.000000
vt 0.000035 0.999965
vt 0.875000 1.000000
vt -0.000000 1.000000
vt 0.000000 0.125000
vt 0.875000 1.000000
vt 0.875000 1.000000
vt 0.000035 0.999965
vt 0.000000 1.000000
vt -0.000000 0.125000
vt 0.000000 1.000000
vt 0.000000 1.000000
vt 0.875000 1.000000
vt 0.875000 1.000000
vt 0.875000 1.000000
vt 0.875000 0.125000
vt 0.000000 1.000000
vt 0.875000 1.000000
vt 0.875000 1.000000
vt -0.000000 1.000000
vt 0.875000 0.125000
vt 0.875000 1.000000
vn -1.0000 0.0000 0.0000
vn 0.0000 0.0000 -1.0000
vn 1.0000 0.0000 0.0000
vn 0.0000 -0.0000 1.0000
vn 0.0000 -1.0000 0.0000
vn 0.0000 1.0000 0.0000
s 1
f 85/109/11 86/110/11 87/111/11
f 88/112/12 89/113/12 86/114/12
f 90/115/13 91/116/13 89/117/13
f 92/118/14 87/119/14 91/120/14
f 89/121/15 87/122/15 86/123/15
f 88/124/16 92/125/16 90/126/16
f 93/127/11 94/128/11 95/129/11
f 96/130/12 97/131/12 94/132/12
f 98/133/13 99/134/13 97/135/13
f 100/136/14 95/137/14 99/138/14
f 97/139/15 95/137/15 94/140/15
f 96/141/16 100/142/16 98/143/16
f 101/144/11 102/145/11 103/146/11
f 104/147/12 105/148/12 102/149/12
f 106/150/13 107/151/13 105/152/13
f 108/153/14 103/154/14 107/155/14
f 105/156/15 103/157/15 102/158/15
f 104/159/16 108/160/16 106/161/16
f 109/162/11 110/163/11 111/164/11
f 112/165/12 113/166/12 110/167/12
f 114/168/13 115/169/13 113/170/13
f 116/171/14 111/172/14 115/173/14
f 113/174/15 111/175/15 110/167/15
f 112/165/16 116/176/16 114/177/16
f 85/109/11 88/178/11 86/110/11
f 88/112/12 90/179/12 89/113/12
f 90/115/13 92/180/13 91/116/13
f 92/118/14 85/181/14 87/119/14
f 89/121/15 91/182/15 87/122/15
f 88/124/16 85/183/16 92/125/16
f 93/127/11 96/184/11 94/128/11
f 96/130/12 98/185/12 97/131/12
f 98/133/13 100/186/13 99/134/13
f 100/136/14 93/187/14 95/137/14
f 97/139/15 99/188/15 95/137/15
f 96/141/16 93/187/16 100/142/16
f 101/144/11 104/189/11 102/145/11
f 104/147/12 106/190/12 105/148/12
f 106/150/13 108/191/13 107/151/13
f 108/153/14 101/192/14 103/154/14
f 105/156/15 107/193/15 103/157/15
f 104/159/16 101/194/16 108/160/16
f 109/162/11 112/195/11 110/163/11
f 112/165/12 114/196/12 113/166/12
f 114/168/13 116/197/13 115/169/13
f 116/171/14 109/198/14 111/172/14
f 113/174/15 115/199/15 111/175/15
f 112/165/16 109/200/16 116/176/16

usemtl MeshMTL

o Mesh
v 0.937500 0.000000 0.125000
v 0.937500 1.000000 0.875000
v 0.937500 -0.000000 0.875000
v 0.062500 1.000000 0.875000
v 0.062500 0.000000 0.125000
v 0.062500 -0.000000 0.875000
v 0.125000 0.000000 0.062500
v 0.875000 1.000000 0.062500
v 0.875000 0.000000 0.062500
v 0.875000 1.000000 0.937500
v 0.125000 -0.000000 0.937500
v 0.875000 -0.000000 0.937500
v 0.937500 1.000000 0.875000
v 0.937500 0.000000 0.125000
v 0.937500 -0.000000 0.875000
v 0.062500 0.000000 0.125000
v 0.062500 1.000000 0.875000
v 0.062500 -0.000000 0.875000
v 0.875000 1.000000 0.062500
v 0.125000 0.000000 0.062500
v 0.875000 0.000000 0.062500
v 0.125000 -0.000000 0.937500
v 0.875000 1.000000 0.937500
v 0.875000 -0.000000 0.937500
v 0.937500 1.000000 0.125000
v 0.062500 1.000000 0.125000
v 0.125000 1.000000 0.062500
v 0.125000 1.000000 0.937500
v 0.937500 1.000000 0.125000
v 0.062500 1.000000 0.125000
v 0.125000 1.000000 0.062500
v 0.125000 1.000000 0.937500
vt 0.875000 -0.000000
vt 0.125000 1.000000
vt 0.125000 -0.000000
vt 0.875000 1.000000
vt 0.125000 -0.000000
vt 0.875000 -0.000000
vt 0.875000 -0.000000
vt 0.125000 1.000000
vt 0.125000 -0.000000
vt 0.875000 1.000000
vt 0.125000 -0.000000
vt 0.875000 -0.000000
vt 0.125000 1.000000
vt 0.875000 -0.000000
vt 0.125000 -0.000000
vt 0.125000 -0.000000
vt 0.875000 1.000000
vt 0.875000 -0.000000
vt 0.125000 1.000000
vt 0.875000 -0.000000
vt 0.125000 -0.000000
vt 0.125000 -0.000000
vt 0.875000 1.000000
vt 0.875000 -0.000000
vt 0.875000 1.000000
vt 0.125000 1.000000
vt 0.875000 1.000000
vt 0.125000 1.000000
vt 0.875000 1.000000
vt 0.125000 1.000000
vt 0.875000 1.000000
vt 0.125000 1.000000
vn 1.0000 0.0000 0.0000
vn -1.0000 -0.0000 0.0000
vn 0.0000 0.0000 -1.0000
vn 0.0000 -0.0000 1.0000
s 1
f 117/201/17 118/202/17 119/203/17
f 120/204/18 121/205/18 122/206/18
f 123/207/19 124/208/19 125/209/19
f 126/210/20 127/211/20 128/212/20
f 129/213/18 130/214/18 131/215/18
f 132/216/17 133/217/17 134/218/17
f 135/219/20 136/220/20 137/221/20
f 138/222/19 139/223/19 140/224/19
f 117/201/17 141/225/17 118/202/17
f 120/204/18 142/226/18 121/205/18
f 123/207/19 143/227/19 124/208/19
f 126/210/20 144/228/20 127/211/20
f 129/213/18 145/229/18 130/214/18
f 132/216/17 146/230/17 133/217/17
f 135/219/20 147/231/20 136/220/20
f 138/222/19 148/232/19 139/223/19
