# Blender v2.92.0 OBJ File: ''
# www.blender.org
mtllib pipe_framed.mtl

usemtl TopRustyMTL

o Top
v 0.765165 1.000000 0.234835
v 0.500000 1.000000 0.500000
v 0.875000 1.000000 0.500000
v 0.500000 0.000000 0.125000
v 0.500000 0.000000 0.500000
v 0.234835 0.000000 0.234835
v 0.500000 1.000000 0.875000
v 0.234835 1.000000 0.765165
v 0.125000 1.000000 0.500000
v 0.234835 1.000000 0.234835
v 0.765165 1.000000 0.765165
v 0.500000 1.000000 0.125000
v 0.125000 0.000000 0.500000
v 0.500000 -0.000000 0.875000
v 0.765165 -0.000000 0.765165
v 0.875000 0.000000 0.500000
v 0.765165 0.000000 0.234835
v 0.234835 -0.000000 0.765165
vt 0.500000 0.125000
vt 0.500000 0.500000
vt 0.750000 0.250000
vt 0.250000 0.250000
vt 0.500000 0.500000
vt 0.500000 0.125000
vt 0.750000 0.750000
vt 0.500000 0.875000
vt 0.250000 0.750000
vt 0.125000 0.500000
vt 0.875000 0.500000
vt 0.250000 0.250000
vt 0.750000 0.250000
vt 0.750000 0.750000
vt 0.500000 0.875000
vt 0.250000 0.750000
vt 0.125000 0.500000
vt 0.875000 0.500000
vn 0.0000 1.0000 0.0000
vn 0.0000 -1.0000 -0.0000
s 1
f 1/1/1 2/2/1 3/3/1
f 4/4/2 5/5/2 6/6/2
f 7/7/1 2/2/1 8/8/1
f 9/9/1 2/2/1 10/10/1
f 3/3/1 2/2/1 11/11/1
f 8/8/1 2/2/1 9/9/1
f 2/2/1 1/1/1 12/12/1
f 11/11/1 2/2/1 7/7/1
f 10/10/1 2/2/1 12/12/1
f 6/6/2 5/5/2 13/13/2
f 14/14/2 5/5/2 15/15/2
f 5/5/2 16/16/2 15/15/2
f 16/16/2 5/5/2 17/17/2
f 13/13/2 5/5/2 18/18/2
f 17/17/2 5/5/2 4/4/2
f 18/18/2 5/5/2 14/14/2

usemtl SideRustyMTL

o Side
v 0.500000 1.000000 0.125000
v 0.765165 0.000000 0.234835
v 0.500000 0.000000 0.125000
v 0.765165 1.000000 0.234835
v 0.875000 0.000000 0.500000
v 0.875000 1.000000 0.500000
v 0.765165 -0.000000 0.765165
v 0.765165 1.000000 0.765165
v 0.500000 -0.000000 0.875000
v 0.500000 1.000000 0.875000
v 0.234835 -0.000000 0.765165
v 0.234835 1.000000 0.765165
v 0.125000 0.000000 0.500000
v 0.125000 1.000000 0.500000
v 0.234835 0.000000 0.234835
v 0.234835 1.000000 0.234835
vt 0.500000 1.000000
vt 0.187500 0.000000
vt 0.500000 0.000000
vt 0.812500 1.000000
vt 0.500000 -0.000000
vt 0.812500 -0.000000
vt 0.500000 1.000000
vt 0.187500 0.000000
vt 0.812500 1.000000
vt 0.500000 0.000000
vt 0.812500 0.000000
vt 0.500000 1.000000
vt 0.187500 0.000000
vt 0.812500 1.000000
vt 0.500000 0.000000
vt 0.812500 0.000000
vt 0.500000 1.000000
vt 0.187500 0.000000
vt 0.812500 1.000000
vt 0.812500 0.000000
vt 0.187500 1.000000
vt 0.187500 1.000000
vt 0.187500 1.000000
vt 0.187500 1.000000
vn 0.3827 0.0000 -0.9239
vn 0.9239 0.0000 -0.3827
vn 0.9239 -0.0000 0.3827
vn 0.3827 -0.0000 0.9239
vn -0.3827 -0.0000 0.9239
vn -0.9239 -0.0000 0.3827
vn -0.9239 0.0000 -0.3827
vn -0.3827 0.0000 -0.9239
s 1
f 19/19/3 20/20/3 21/21/3
f 22/22/4 23/23/4 20/24/4
f 24/25/5 25/26/5 23/23/5
f 26/27/6 27/28/6 25/29/6
f 28/30/7 29/31/7 27/28/7
f 30/32/8 31/33/8 29/34/8
f 32/35/9 33/36/9 31/33/9
f 34/37/10 21/21/10 33/38/10
f 19/19/3 22/39/3 20/20/3
f 22/22/4 24/25/4 23/23/4
f 24/25/5 26/40/5 25/26/5
f 26/27/6 28/30/6 27/28/6
f 28/30/7 30/41/7 29/31/7
f 30/32/8 32/35/8 31/33/8
f 32/35/9 34/42/9 33/36/9
f 34/37/10 19/19/10 21/21/10
