# Blender v2.92.0 OBJ File: ''
# www.blender.org
mtllib pipe_framed.mtl

usemtl TopGreenMTL

o Top
v 0.338388 1.000000 0.661612
v 0.250000 1.000000 0.750000
v 0.375000 1.000000 0.750000
v 0.250000 0.000000 0.625000
v 0.250000 -0.000000 0.750000
v 0.161612 0.000000 0.661612
v 0.161612 0.000000 0.161612
v 0.250000 0.000000 0.250000
v 0.125000 0.000000 0.250000
v 0.338388 0.000000 0.338388
v 0.375000 0.000000 0.250000
v 0.338388 0.000000 0.161612
v 0.250000 0.000000 0.125000
v 0.161612 0.000000 0.338388
v 0.250000 0.000000 0.375000
v 0.338388 1.000000 0.161612
v 0.250000 1.000000 0.250000
v 0.375000 1.000000 0.250000
v 0.125000 -0.000000 0.750000
v 0.161612 -0.000000 0.838388
v 0.375000 -0.000000 0.750000
v 0.338388 0.000000 0.661612
v 0.250000 -0.000000 0.875000
v 0.338388 -0.000000 0.838388
v 0.161612 1.000000 0.838388
v 0.125000 1.000000 0.750000
v 0.250000 1.000000 0.625000
v 0.338388 1.000000 0.838388
v 0.250000 1.000000 0.875000
v 0.161612 1.000000 0.661612
v 0.161612 1.000000 0.338388
v 0.125000 1.000000 0.250000
v 0.250000 1.000000 0.125000
v 0.338388 1.000000 0.338388
v 0.250000 1.000000 0.375000
v 0.161612 1.000000 0.161612
v 0.838388 1.000000 0.661612
v 0.750000 1.000000 0.750000
v 0.875000 1.000000 0.750000
v 0.750000 0.000000 0.625000
v 0.750000 -0.000000 0.750000
v 0.661612 0.000000 0.661612
v 0.661612 0.000000 0.161612
v 0.750000 0.000000 0.250000
v 0.625000 0.000000 0.250000
v 0.838388 0.000000 0.338388
v 0.875000 0.000000 0.250000
v 0.838388 0.000000 0.161612
v 0.750000 0.000000 0.125000
v 0.661612 0.000000 0.338388
v 0.750000 0.000000 0.375000
v 0.838388 1.000000 0.161612
v 0.750000 1.000000 0.250000
v 0.875000 1.000000 0.250000
v 0.625000 -0.000000 0.750000
v 0.661612 -0.000000 0.838388
v 0.875000 -0.000000 0.750000
v 0.838388 0.000000 0.661612
v 0.750000 -0.000000 0.875000
v 0.838388 -0.000000 0.838388
v 0.661612 1.000000 0.838388
v 0.625000 1.000000 0.750000
v 0.750000 1.000000 0.625000
v 0.838388 1.000000 0.838388
v 0.750000 1.000000 0.875000
v 0.661612 1.000000 0.661612
v 0.661612 1.000000 0.338388
v 0.625000 1.000000 0.250000
v 0.750000 1.000000 0.125000
v 0.838388 1.000000 0.338388
v 0.750000 1.000000 0.375000
v 0.661612 1.000000 0.161612
vt 0.500000 0.312500
vt 0.500000 0.500000
vt 0.625000 0.375000
vt 0.375000 0.375000
vt 0.500000 0.500000
vt 0.500000 0.312500
vt 0.500000 0.312500
vt 0.500000 0.500000
vt 0.625000 0.375000
vt 0.500000 0.687500
vt 0.375000 0.625000
vt 0.312500 0.500000
vt 0.375000 0.375000
vt 0.687500 0.500000
vt 0.625000 0.625000
vt 0.500000 0.312500
vt 0.500000 0.500000
vt 0.625000 0.375000
vt 0.625000 0.375000
vt 0.687500 0.500000
vt 0.375000 0.625000
vt 0.312500 0.500000
vt 0.625000 0.625000
vt 0.500000 0.687500
vt 0.500000 0.687500
vt 0.375000 0.625000
vt 0.375000 0.375000
vt 0.687500 0.500000
vt 0.625000 0.625000
vt 0.312500 0.500000
vt 0.500000 0.687500
vt 0.375000 0.625000
vt 0.375000 0.375000
vt 0.687500 0.500000
vt 0.625000 0.625000
vt 0.312500 0.500000
vt 0.500000 0.312500
vt 0.500000 0.500000
vt 0.625000 0.375000
vt 0.375000 0.375000
vt 0.500000 0.500000
vt 0.500000 0.312500
vt 0.500000 0.312500
vt 0.500000 0.500000
vt 0.625000 0.375000
vt 0.500000 0.687500
vt 0.375000 0.625000
vt 0.312500 0.500000
vt 0.375000 0.375000
vt 0.687500 0.500000
vt 0.625000 0.625000
vt 0.500000 0.312500
vt 0.500000 0.500000
vt 0.625000 0.375000
vt 0.625000 0.375000
vt 0.687500 0.500000
vt 0.375000 0.625000
vt 0.312500 0.500000
vt 0.625000 0.625000
vt 0.500000 0.687500
vt 0.500000 0.687500
vt 0.375000 0.625000
vt 0.375000 0.375000
vt 0.687500 0.500000
vt 0.625000 0.625000
vt 0.312500 0.500000
vt 0.500000 0.687500
vt 0.375000 0.625000
vt 0.375000 0.375000
vt 0.687500 0.500000
vt 0.625000 0.625000
vt 0.312500 0.500000
vn 0.0000 1.0000 0.0000
vn 0.0000 -1.0000 -0.0000
s 1
f 1/1/1 2/2/1 3/3/1
f 4/4/2 5/5/2 6/6/2
f 7/7/2 8/8/2 9/9/2
f 10/10/2 8/8/2 11/11/2
f 12/12/2 8/8/2 13/13/2
f 14/14/2 8/8/2 15/15/2
f 11/11/2 8/8/2 12/12/2
f 9/9/2 8/8/2 14/14/2
f 13/13/2 8/8/2 7/7/2
f 16/16/1 17/17/1 18/18/1
f 19/19/2 5/5/2 20/20/2
f 21/21/2 5/5/2 22/22/2
f 20/20/2 5/5/2 23/23/2
f 22/22/2 5/5/2 4/4/2
f 24/24/2 5/5/2 21/21/2
f 6/6/2 5/5/2 19/19/2
f 23/23/2 5/5/2 24/24/2
f 25/25/1 2/2/1 26/26/1
f 2/2/1 1/1/1 27/27/1
f 28/28/1 2/2/1 29/29/1
f 30/30/1 2/2/1 27/27/1
f 26/26/1 2/2/1 30/30/1
f 3/3/1 2/2/1 28/28/1
f 29/29/1 2/2/1 25/25/1
f 15/15/2 8/8/2 10/10/2
f 31/31/1 17/17/1 32/32/1
f 17/17/1 16/16/1 33/33/1
f 34/34/1 17/17/1 35/35/1
f 36/36/1 17/17/1 33/33/1
f 32/32/1 17/17/1 36/36/1
f 18/18/1 17/17/1 34/34/1
f 35/35/1 17/17/1 31/31/1
f 37/37/1 38/38/1 39/39/1
f 40/40/2 41/41/2 42/42/2
f 43/43/2 44/44/2 45/45/2
f 46/46/2 44/44/2 47/47/2
f 48/48/2 44/44/2 49/49/2
f 50/50/2 44/44/2 51/51/2
f 47/47/2 44/44/2 48/48/2
f 45/45/2 44/44/2 50/50/2
f 49/49/2 44/44/2 43/43/2
f 52/52/1 53/53/1 54/54/1
f 55/55/2 41/41/2 56/56/2
f 57/57/2 41/41/2 58/58/2
f 56/56/2 41/41/2 59/59/2
f 58/58/2 41/41/2 40/40/2
f 60/60/2 41/41/2 57/57/2
f 42/42/2 41/41/2 55/55/2
f 59/59/2 41/41/2 60/60/2
f 61/61/1 38/38/1 62/62/1
f 38/38/1 37/37/1 63/63/1
f 64/64/1 38/38/1 65/65/1
f 66/66/1 38/38/1 63/63/1
f 62/62/1 38/38/1 66/66/1
f 39/39/1 38/38/1 64/64/1
f 65/65/1 38/38/1 61/61/1
f 51/51/2 44/44/2 46/46/2
f 67/67/1 53/53/1 68/68/1
f 53/53/1 52/52/1 69/69/1
f 70/70/1 53/53/1 71/71/1
f 72/72/1 53/53/1 69/69/1
f 68/68/1 53/53/1 72/72/1
f 54/54/1 53/53/1 70/70/1
f 71/71/1 53/53/1 67/67/1

usemtl SideGreenMTL

o Side
v 0.250000 1.000000 0.625000
v 0.338388 0.000000 0.661612
v 0.250000 0.000000 0.625000
v 0.338388 1.000000 0.661612
v 0.375000 -0.000000 0.750000
v 0.375000 1.000000 0.750000
v 0.338388 -0.000000 0.838388
v 0.338388 1.000000 0.838388
v 0.250000 -0.000000 0.875000
v 0.250000 1.000000 0.875000
v 0.161612 -0.000000 0.838388
v 0.161612 1.000000 0.838388
v 0.125000 -0.000000 0.750000
v 0.125000 1.000000 0.750000
v 0.161612 0.000000 0.661612
v 0.161612 1.000000 0.661612
v 0.161612 1.000000 0.161612
v 0.250000 0.000000 0.125000
v 0.161612 0.000000 0.161612
v 0.125000 1.000000 0.250000
v 0.125000 0.000000 0.250000
v 0.161612 1.000000 0.338388
v 0.161612 0.000000 0.338388
v 0.250000 1.000000 0.375000
v 0.250000 0.000000 0.375000
v 0.338388 1.000000 0.338388
v 0.338388 0.000000 0.338388
v 0.375000 1.000000 0.250000
v 0.375000 0.000000 0.250000
v 0.338388 1.000000 0.161612
v 0.338388 0.000000 0.161612
v 0.250000 1.000000 0.125000
v 0.750000 1.000000 0.625000
v 0.838388 0.000000 0.661612
v 0.750000 0.000000 0.625000
v 0.838388 1.000000 0.661612
v 0.875000 -0.000000 0.750000
v 0.875000 1.000000 0.750000
v 0.838388 -0.000000 0.838388
v 0.838388 1.000000 0.838388
v 0.750000 -0.000000 0.875000
v 0.750000 1.000000 0.875000
v 0.661612 -0.000000 0.838388
v 0.661612 1.000000 0.838388
v 0.625000 -0.000000 0.750000
v 0.625000 1.000000 0.750000
v 0.661612 0.000000 0.661612
v 0.661612 1.000000 0.661612
v 0.661612 1.000000 0.161612
v 0.750000 0.000000 0.125000
v 0.661612 0.000000 0.161612
v 0.625000 1.000000 0.250000
v 0.625000 0.000000 0.250000
v 0.661612 1.000000 0.338388
v 0.661612 0.000000 0.338388
v 0.750000 1.000000 0.375000
v 0.750000 0.000000 0.375000
v 0.838388 1.000000 0.338388
v 0.838388 0.000000 0.338388
v 0.875000 1.000000 0.250000
v 0.875000 0.000000 0.250000
v 0.838388 1.000000 0.161612
v 0.838388 0.000000 0.161612
v 0.750000 1.000000 0.125000
vt 0.500000 1.000000
vt 0.375000 -0.000000
vt 0.500000 -0.000000
vt 0.625000 1.000000
vt 0.500000 -0.000000
vt 0.625000 -0.000000
vt 0.500000 1.000000
vt 0.375000 -0.000000
vt 0.625000 1.000000
vt 0.500000 -0.000000
vt 0.625000 -0.000000
vt 0.500000 1.000000
vt 0.375000 -0.000000
vt 0.625000 1.000000
vt 0.500000 -0.000000
vt 0.625000 -0.000000
vt 0.500000 1.000000
vt 0.375000 -0.000000
vt 0.625000 1.000000
vt 0.625000 -0.000000
vt 0.625000 1.000000
vt 0.500000 -0.000000
vt 0.625000 -0.000000
vt 0.500000 1.000000
vt 0.375000 -0.000000
vt 0.500000 -0.000000
vt 0.625000 1.000000
vt 0.625000 -0.000000
vt 0.500000 1.000000
vt 0.375000 -0.000000
vt 0.500000 -0.000000
vt 0.625000 1.000000
vt 0.625000 -0.000000
vt 0.500000 1.000000
vt 0.375000 -0.000000
vt 0.500000 -0.000000
vt 0.625000 1.000000
vt 0.625000 -0.000000
vt 0.500000 1.000000
vt 0.375000 -0.000000
vt 0.500000 1.000000
vt 0.375000 -0.000000
vt 0.500000 -0.000000
vt 0.625000 1.000000
vt 0.500000 -0.000000
vt 0.625000 -0.000000
vt 0.500000 1.000000
vt 0.375000 -0.000000
vt 0.625000 1.000000
vt 0.500000 -0.000000
vt 0.625000 -0.000000
vt 0.500000 1.000000
vt 0.375000 -0.000000
vt 0.625000 1.000000
vt 0.500000 -0.000000
vt 0.625000 -0.000000
vt 0.500000 1.000000
vt 0.375000 -0.000000
vt 0.625000 1.000000
vt 0.625000 -0.000000
vt 0.625000 1.000000
vt 0.500000 -0.000000
vt 0.625000 -0.000000
vt 0.500000 1.000000
vt 0.375000 -0.000000
vt 0.500000 -0.000000
vt 0.625000 1.000000
vt 0.625000 -0.000000
vt 0.500000 1.000000
vt 0.375000 -0.000000
vt 0.500000 -0.000000
vt 0.625000 1.000000
vt 0.625000 -0.000000
vt 0.500000 1.000000
vt 0.375000 -0.000000
vt 0.500000 -0.000000
vt 0.625000 1.000000
vt 0.625000 -0.000000
vt 0.500000 1.000000
vt 0.375000 -0.000000
vt 0.375000 1.000000
vt 0.375000 1.000000
vt 0.375000 1.000000
vt 0.375000 1.000000
vt 0.375000 1.000000
vt 0.375000 1.000000
vt 0.375000 1.000000
vt 0.375000 1.000000
vt 0.375000 1.000000
vt 0.375000 1.000000
vt 0.375000 1.000000
vt 0.375000 1.000000
vt 0.375000 1.000000
vt 0.375000 1.000000
vt 0.375000 1.000000
vt 0.375000 1.000000
vn 0.3827 0.0000 -0.9239
vn 0.9239 0.0000 -0.3827
vn 0.9239 -0.0000 0.3827
vn 0.3827 -0.0000 0.9239
vn -0.3827 -0.0000 0.9239
vn -0.9239 -0.0000 0.3827
vn -0.9239 0.0000 -0.3827
vn -0.3827 0.0000 -0.9239
s 1
f 73/73/3 74/74/3 75/75/3
f 76/76/4 77/77/4 74/78/4
f 78/79/5 79/80/5 77/77/5
f 80/81/6 81/82/6 79/83/6
f 82/84/7 83/85/7 81/82/7
f 84/86/8 85/87/8 83/88/8
f 86/89/9 87/90/9 85/87/9
f 88/91/10 75/75/10 87/92/10
f 89/93/10 90/94/10 91/95/10
f 92/96/9 91/97/9 93/98/9
f 94/99/8 93/98/8 95/100/8
f 96/101/7 95/102/7 97/103/7
f 98/104/6 97/103/6 99/105/6
f 100/106/5 99/107/5 101/108/5
f 102/109/4 101/108/4 103/110/4
f 104/111/3 103/112/3 90/94/3
f 105/113/3 106/114/3 107/115/3
f 108/116/4 109/117/4 106/118/4
f 110/119/5 111/120/5 109/117/5
f 112/121/6 113/122/6 111/123/6
f 114/124/7 115/125/7 113/122/7
f 116/126/8 117/127/8 115/128/8
f 118/129/9 119/130/9 117/127/9
f 120/131/10 107/115/10 119/132/10
f 121/133/10 122/134/10 123/135/10
f 124/136/9 123/137/9 125/138/9
f 126/139/8 125/138/8 127/140/8
f 128/141/7 127/142/7 129/143/7
f 130/144/6 129/143/6 131/145/6
f 132/146/5 131/147/5 133/148/5
f 134/149/4 133/148/4 135/150/4
f 136/151/3 135/152/3 122/134/3
f 73/73/3 76/153/3 74/74/3
f 76/76/4 78/79/4 77/77/4
f 78/79/5 80/154/5 79/80/5
f 80/81/6 82/84/6 81/82/6
f 82/84/7 84/155/7 83/85/7
f 84/86/8 86/89/8 85/87/8
f 86/89/9 88/156/9 87/90/9
f 88/91/10 73/73/10 75/75/10
f 89/93/10 104/111/10 90/94/10
f 92/96/9 89/157/9 91/97/9
f 94/99/8 92/96/8 93/98/8
f 96/101/7 94/158/7 95/102/7
f 98/104/6 96/101/6 97/103/6
f 100/106/5 98/159/5 99/107/5
f 102/109/4 100/106/4 101/108/4
f 104/111/3 102/160/3 103/112/3
f 105/113/3 108/161/3 106/114/3
f 108/116/4 110/119/4 109/117/4
f 110/119/5 112/162/5 111/120/5
f 112/121/6 114/124/6 113/122/6
f 114/124/7 116/163/7 115/125/7
f 116/126/8 118/129/8 117/127/8
f 118/129/9 120/164/9 119/130/9
f 120/131/10 105/113/10 107/115/10
f 121/133/10 136/151/10 122/134/10
f 124/136/9 121/165/9 123/137/9
f 126/139/8 124/136/8 125/138/8
f 128/141/7 126/166/7 127/142/7
f 130/144/6 128/141/6 129/143/6
f 132/146/5 130/167/5 131/147/5
f 134/149/4 132/146/4 133/148/4
f 136/151/3 134/168/3 135/152/3
