# Blender v2.92.0 OBJ File: 'railing.blend'
# www.blender.org
mtllib railing.mtl

usemtl RailingMTL

o railnormal
v 0.050708 -0.000021 0.469111
v 0.050708 0.956095 0.469111
v 0.076297 -0.000021 0.469111
v 0.076297 0.956095 0.469111
v 0.094392 -0.000021 0.487205
v 0.094392 0.956095 0.487205
v 0.094392 -0.000021 0.512795
v 0.094392 0.956095 0.512795
v 0.076297 -0.000021 0.530889
v 0.076297 0.956095 0.530889
v 0.050708 -0.000021 0.530889
v 0.050708 0.956095 0.530889
v 0.032614 -0.000021 0.512795
v 0.032614 0.956095 0.512795
v 0.032614 -0.000021 0.487205
v 0.032614 0.956095 0.487205
v 0.050708 0.999777 -0.000010
v 0.050708 0.999777 1.000010
v 0.076297 0.999777 -0.000010
v 0.076297 0.999777 1.000010
v 0.094392 0.981683 -0.000010
v 0.094392 0.981683 1.000010
v 0.094392 0.956094 -0.000010
v 0.094392 0.956094 1.000010
v 0.076297 0.937999 -0.000010
v 0.076297 0.937999 1.000010
v 0.050708 0.937999 -0.000010
v 0.050708 0.937999 1.000010
v 0.032614 0.956094 -0.000010
v 0.032614 0.956094 1.000010
v 0.032614 0.981683 -0.000010
v 0.032614 0.981683 1.000010
v 0.050721 0.499746 -0.000010
v 0.050721 0.499746 1.000010
v 0.076285 0.499746 -0.000010
v 0.076285 0.499746 1.000010
v 0.094361 0.481670 -0.000010
v 0.094361 0.481670 1.000010
v 0.094361 0.456107 -0.000010
v 0.094361 0.456106 1.000010
v 0.076285 0.438030 -0.000010
v 0.076285 0.438030 1.000010
v 0.050721 0.438030 -0.000010
v 0.050721 0.438030 1.000010
v 0.032645 0.456107 -0.000010
v 0.032645 0.456106 1.000010
v 0.032645 0.481670 -0.000010
v 0.032645 0.481670 1.000010
v 0.050708 0.520620 0.469111
v 0.050708 0.418136 0.469111
v 0.048852 0.508450 0.464630
v 0.048852 0.430307 0.464630
v 0.076297 0.418136 0.469111
v 0.076297 0.520620 0.469111
v 0.078153 0.430307 0.464630
v 0.078153 0.508450 0.464630
v 0.094392 0.418136 0.487205
v 0.094392 0.520620 0.487205
v 0.098873 0.430307 0.485349
v 0.098873 0.508450 0.485349
v 0.094392 0.418136 0.512795
v 0.094392 0.520620 0.512795
v 0.098873 0.430307 0.514651
v 0.098873 0.508450 0.514651
v 0.076297 0.418136 0.530889
v 0.076297 0.520620 0.530889
v 0.078153 0.430307 0.535370
v 0.078153 0.508450 0.535370
v 0.050708 0.418136 0.530889
v 0.050708 0.520620 0.530889
v 0.048852 0.430307 0.535370
v 0.048852 0.508450 0.535370
v 0.032614 0.418136 0.512795
v 0.032614 0.520620 0.512795
v 0.028133 0.430307 0.514651
v 0.028133 0.508450 0.514651
v 0.032614 0.418136 0.487205
v 0.032614 0.520620 0.487205
v 0.028133 0.430307 0.485349
v 0.028133 0.508450 0.485349
v 0.050708 0.999777 0.553320
v 0.050708 0.999777 0.446681
v 0.048950 1.004022 0.532023
v 0.048950 1.004022 0.467977
v 0.076297 0.999777 0.446681
v 0.076297 0.999777 0.553320
v 0.078056 1.004022 0.467977
v 0.078056 1.004022 0.532023
v 0.094392 0.981683 0.446681
v 0.094392 0.981683 0.553320
v 0.098637 0.983441 0.467977
v 0.098637 0.983441 0.532023
v 0.094392 0.956094 0.446681
v 0.094392 0.956094 0.553320
v 0.098637 0.954335 0.467977
v 0.098637 0.954335 0.532023
v 0.076297 0.937999 0.446681
v 0.076297 0.937999 0.553320
v 0.078056 0.933754 0.467977
v 0.078056 0.933754 0.532023
v 0.050708 0.937999 0.446681
v 0.050708 0.937999 0.553320
v 0.048950 0.933754 0.467977
v 0.048950 0.933754 0.532023
v 0.032614 0.956094 0.446681
v 0.032614 0.956094 0.553320
v 0.028369 0.954335 0.467977
v 0.028369 0.954335 0.532023
v 0.032614 0.981683 0.446681
v 0.032614 0.981683 0.553320
v 0.028369 0.983441 0.467977
v 0.028369 0.983441 0.532023
v 0.050721 0.499746 0.558914
v 0.050721 0.499746 0.441086
v 0.049087 0.503690 0.539263
v 0.049087 0.503690 0.460737
v 0.076285 0.499746 0.441086
v 0.076285 0.499746 0.558914
v 0.077918 0.503690 0.460737
v 0.077918 0.503690 0.539263
v 0.094361 0.481670 0.441086
v 0.094361 0.481670 0.558914
v 0.098305 0.483304 0.460737
v 0.098305 0.483304 0.539263
v 0.094361 0.456106 0.441086
v 0.094361 0.456106 0.558914
v 0.098305 0.454473 0.460737
v 0.098305 0.454473 0.539263
v 0.076285 0.438030 0.441086
v 0.076285 0.438030 0.558914
v 0.077918 0.434086 0.460737
v 0.077918 0.434086 0.539263
v 0.050721 0.438030 0.441086
v 0.050721 0.438030 0.558914
v 0.049087 0.434086 0.460737
v 0.049087 0.434086 0.539263
v 0.032645 0.456106 0.441086
v 0.032645 0.456106 0.558914
v 0.028701 0.454473 0.460737
v 0.028701 0.454473 0.539263
v 0.032645 0.481670 0.441086
v 0.032645 0.481670 0.558914
v 0.028701 0.483304 0.460737
v 0.028701 0.483304 0.539263
v 0.019492 -0.015012 0.588418
v 0.019492 0.008888 0.588418
v 0.019492 -0.015012 0.411582
v 0.019492 0.008888 0.411582
v 0.107513 -0.015012 0.588418
v 0.107513 0.008888 0.588418
v 0.107513 -0.015012 0.411582
v 0.107513 0.008888 0.411582
vt 0.783791 0.213542
vt 0.807316 0.039485
vt 0.807316 0.213542
vt 0.783791 0.039485
vt 0.697154 0.015960
vt 0.783791 0.015960
vt 0.697154 0.039485
vt 0.673629 0.213542
vt 0.673629 0.039485
vt 0.697154 0.213542
vt 0.783791 0.237067
vt 0.697154 0.237067
vt 0.482561 0.429282
vt 0.455902 0.015339
vt 0.482561 0.015339
vt 0.615855 0.429282
vt 0.589197 0.015339
vt 0.615855 0.015339
vt 0.589197 0.429282
vt 0.562538 0.015339
vt 0.562538 0.429282
vt 0.535879 0.015339
vt 0.535879 0.429282
vt 0.509220 0.015339
vt 0.509220 0.429282
vt 0.669173 0.429282
vt 0.642514 0.015339
vt 0.669173 0.015339
vt 0.174416 0.463466
vt 0.146741 0.061909
vt 0.174416 0.061909
vt 0.091390 0.463466
vt 0.063715 0.061909
vt 0.091390 0.061909
vt 0.063715 0.463466
vt 0.036040 0.061909
vt 0.036040 0.463466
vt 0.008365 0.061909
vt 0.229766 0.463466
vt 0.202091 0.061909
vt 0.229766 0.061909
vt 0.202091 0.463466
vt 0.673629 0.329919
vt 0.716626 0.312109
vt 0.734436 0.355106
vt 0.146741 0.463466
vt 0.119065 0.061909
vt 0.734436 0.261994
vt 0.734436 0.287181
vt 0.673629 0.261994
vt 0.281998 0.565601
vt 0.309542 0.963207
vt 0.281998 0.963207
vt 0.364631 0.565601
vt 0.392175 0.963207
vt 0.364631 0.963207
vt 0.392175 0.565601
vt 0.419719 0.963207
vt 0.419719 0.565601
vt 0.447263 0.963207
vt 0.226910 0.565601
vt 0.254454 0.963207
vt 0.226910 0.963207
vt 0.254454 0.565601
vt 0.734375 0.490852
vt 0.691421 0.508644
vt 0.673629 0.465690
vt 0.309542 0.565601
vt 0.337087 0.963207
vt 0.716583 0.440780
vt 0.691422 0.440780
vt 0.716583 0.380034
vt 0.642514 0.429282
vt 0.509220 0.963661
vt 0.482561 0.532576
vt 0.509220 0.532576
vt 0.535879 0.963661
vt 0.535879 0.532576
vt 0.562538 0.963661
vt 0.562538 0.532576
vt 0.589197 0.963661
vt 0.589197 0.532576
vt 0.615855 0.963661
vt 0.615855 0.532576
vt 0.642514 0.963661
vt 0.642514 0.532576
vt 0.669173 0.963661
vt 0.669173 0.532576
vt 0.455902 0.532576
vt 0.482561 0.519607
vt 0.455902 0.519607
vt 0.482561 0.442251
vt 0.455902 0.442251
vt 0.509220 0.519607
vt 0.509220 0.442251
vt 0.535879 0.519607
vt 0.535879 0.442251
vt 0.562538 0.519607
vt 0.562538 0.442251
vt 0.589197 0.519607
vt 0.589197 0.442251
vt 0.615855 0.519607
vt 0.615855 0.442251
vt 0.642514 0.519607
vt 0.642514 0.442251
vt 0.669173 0.519607
vt 0.669173 0.442251
vt 0.482561 0.963661
vt 0.119065 0.463466
vt 0.202091 0.961769
vt 0.174416 0.560211
vt 0.202091 0.560211
vt 0.229766 0.560211
vt 0.036040 0.961769
vt 0.008365 0.560211
vt 0.036040 0.560211
vt 0.063715 0.961769
vt 0.063715 0.560211
vt 0.091390 0.961769
vt 0.091390 0.560211
vt 0.119065 0.961769
vt 0.119065 0.560211
vt 0.146741 0.961769
vt 0.146741 0.560211
vt 0.146741 0.540626
vt 0.174416 0.540626
vt 0.174416 0.483052
vt 0.146741 0.483052
vt 0.202091 0.540626
vt 0.202091 0.483052
vt 0.229766 0.540626
vt 0.229766 0.483052
vt 0.036040 0.540626
vt 0.008365 0.540626
vt 0.036040 0.483052
vt 0.008365 0.483052
vt 0.063715 0.540626
vt 0.063715 0.483052
vt 0.091390 0.540626
vt 0.091390 0.483052
vt 0.119065 0.540626
vt 0.119065 0.483052
vt 0.174416 0.961769
vt 0.337087 0.565601
vt 0.254454 0.060958
vt 0.281998 0.458565
vt 0.254454 0.458565
vt 0.226910 0.060958
vt 0.226910 0.458565
vt 0.419719 0.060958
vt 0.447263 0.458565
vt 0.419719 0.458565
vt 0.392175 0.060958
vt 0.392175 0.458565
vt 0.364631 0.060958
vt 0.364631 0.458565
vt 0.337087 0.060958
vt 0.337087 0.458565
vt 0.309542 0.060958
vt 0.309542 0.458565
vt 0.309542 0.476691
vt 0.281998 0.476691
vt 0.281998 0.547475
vt 0.309542 0.547475
vt 0.254454 0.476691
vt 0.254454 0.547475
vt 0.226910 0.476691
vt 0.226910 0.547475
vt 0.419719 0.476691
vt 0.447263 0.476691
vt 0.419719 0.547475
vt 0.447263 0.547475
vt 0.392175 0.476691
vt 0.392175 0.547475
vt 0.364631 0.476691
vt 0.364631 0.547475
vt 0.337087 0.476691
vt 0.337087 0.547475
vt 0.281998 0.060958
vt 0.455902 0.429282
vt 0.008365 0.463466
vt 0.691439 0.372916
vt 0.673629 0.355106
vt 0.691439 0.312109
vt 0.734436 0.329919
vt 0.716626 0.372916
vt 0.716626 0.304991
vt 0.691439 0.304991
vt 0.673629 0.287181
vt 0.691439 0.244184
vt 0.716626 0.244184
vt 0.447263 0.565601
vt 0.716583 0.447897
vt 0.734375 0.465690
vt 0.716583 0.508644
vt 0.673629 0.490852
vt 0.691421 0.447898
vt 0.673629 0.422988
vt 0.673629 0.397826
vt 0.691421 0.380034
vt 0.734375 0.397826
vt 0.734375 0.422988
vt 0.455902 0.963661
vt 0.229766 0.961769
vt 0.008365 0.961769
vt 0.447263 0.060958
vn -1.0000 0.0000 0.0000
vn 0.0000 0.0000 -1.0000
vn 1.0000 0.0000 0.0000
vn 0.0000 0.0000 1.0000
vn 0.0000 1.0000 0.0000
vn -0.9057 -0.1976 -0.3751
vn -0.3827 0.0000 -0.9239
vn -0.9239 0.0000 -0.3827
vn 0.9057 -0.1976 -0.3751
vn 0.9239 0.0000 0.3827
vn 0.9239 0.0000 -0.3827
vn 0.9057 -0.1976 0.3751
vn 0.3827 0.0000 0.9239
vn 0.3751 -0.1976 0.9057
vn -0.3827 0.0000 0.9239
vn -0.3751 -0.1976 0.9057
vn -0.9239 0.0000 0.3827
vn -0.9057 -0.1976 0.3751
vn -0.3751 -0.1976 -0.9057
vn 0.3827 0.0000 -0.9239
vn -0.9184 0.3804 -0.1089
vn -0.3827 0.9239 0.0000
vn -0.9239 0.3827 0.0000
vn 0.9184 0.3804 -0.1089
vn 0.9239 -0.3827 0.0000
vn 0.9239 0.3827 0.0000
vn 0.9184 -0.3804 -0.1089
vn 0.3827 -0.9239 0.0000
vn 0.3804 -0.9184 -0.1089
vn -0.3827 -0.9239 0.0000
vn -0.3804 -0.9184 -0.1089
vn -0.9239 -0.3827 0.0000
vn -0.9184 -0.3804 -0.1089
vn -0.3804 0.9184 -0.1089
vn 0.3827 0.9239 0.0000
vn -0.9183 0.3804 -0.1096
vn 0.9183 0.3804 -0.1096
vn 0.9183 -0.3804 -0.1096
vn 0.3804 -0.9183 -0.1096
vn -0.3804 -0.9183 -0.1096
vn -0.9183 -0.3804 -0.1096
vn -0.3804 0.9183 -0.1096
vn 0.3751 -0.1976 -0.9057
vn -0.9057 0.1976 -0.3751
vn -0.9057 0.1976 0.3751
vn -0.3751 0.1976 0.9057
vn 0.3751 0.1976 0.9057
vn 0.9057 0.1976 0.3751
vn 0.9057 0.1976 -0.3751
vn 0.3751 0.1976 -0.9057
vn -0.3751 0.1976 -0.9057
vn -0.9087 0.1805 -0.3764
vn -0.3764 0.1805 -0.9087
vn -0.9087 -0.1805 -0.3764
vn -0.3764 -0.1805 -0.9087
vn -0.9087 0.1805 0.3764
vn -0.9087 -0.1805 0.3764
vn -0.3764 0.1805 0.9087
vn -0.3764 -0.1805 0.9087
vn 0.3764 0.1805 0.9087
vn 0.3764 -0.1805 0.9087
vn 0.9087 0.1805 0.3764
vn 0.9087 -0.1805 0.3764
vn 0.9087 0.1805 -0.3764
vn 0.9087 -0.1805 -0.3764
vn 0.3764 0.1805 -0.9087
vn 0.3764 -0.1805 -0.9087
vn 0.3804 0.9184 -0.1089
vn -0.9184 0.3804 0.1089
vn -0.9184 -0.3804 0.1089
vn -0.3804 -0.9184 0.1089
vn 0.3804 -0.9184 0.1089
vn 0.9184 -0.3804 0.1089
vn 0.9184 0.3804 0.1089
vn 0.3804 0.9184 0.1089
vn -0.3804 0.9184 0.1089
vn -0.3806 0.9189 0.1034
vn -0.9189 0.3806 0.1034
vn -0.9189 0.3806 -0.1034
vn -0.3806 0.9189 -0.1034
vn -0.9189 -0.3806 0.1034
vn -0.9189 -0.3806 -0.1034
vn -0.3806 -0.9189 0.1034
vn -0.3806 -0.9189 -0.1034
vn 0.3806 -0.9189 0.1034
vn 0.3806 -0.9189 -0.1034
vn 0.9189 -0.3806 0.1034
vn 0.9189 -0.3806 -0.1034
vn 0.9189 0.3806 0.1034
vn 0.9189 0.3806 -0.1034
vn 0.3806 0.9189 0.1034
vn 0.3806 0.9189 -0.1034
vn 0.3804 0.9183 -0.1096
vn -0.9183 0.3804 0.1096
vn -0.9183 -0.3804 0.1096
vn -0.3804 -0.9183 0.1096
vn 0.3804 -0.9183 0.1096
vn 0.9183 -0.3804 0.1096
vn 0.9183 0.3804 0.1096
vn 0.3804 0.9183 0.1096
vn -0.3804 0.9183 0.1096
vn -0.3806 0.9189 0.1041
vn -0.9189 0.3806 0.1041
vn -0.9189 0.3806 -0.1041
vn -0.3806 0.9189 -0.1041
vn -0.9189 -0.3806 0.1041
vn -0.9189 -0.3806 -0.1041
vn -0.3806 -0.9189 0.1041
vn -0.3806 -0.9189 -0.1041
vn 0.3806 -0.9189 0.1041
vn 0.3806 -0.9189 -0.1041
vn 0.9189 -0.3806 0.1041
vn 0.9189 -0.3806 -0.1041
vn 0.9189 0.3806 0.1041
vn 0.9189 0.3806 -0.1041
vn 0.3806 0.9189 0.1041
vn 0.3806 0.9189 -0.1041
s off
f 146/1/1 147/2/1 145/3/1
f 148/4/2 151/5/2 147/6/2
f 152/7/3 149/8/3 151/9/3
f 150/10/4 145/11/4 149/12/4
f 148/4/5 150/10/5 152/7/5
f 146/1/1 148/4/1 147/2/1
f 148/4/2 152/7/2 151/5/2
f 152/7/3 150/10/3 149/8/3
f 150/10/4 146/1/4 145/11/4
f 148/4/5 146/1/5 150/10/5
s 1
f 77/13/6 1/14/7 15/15/8
f 57/16/9 7/17/10 5/18/11
f 61/19/12 9/20/13 7/17/10
f 65/21/14 11/22/15 9/20/13
f 69/23/16 13/24/17 11/22/15
f 73/25/18 15/15/8 13/24/17
f 50/26/19 3/27/20 1/28/7
f 109/29/21 17/30/22 31/31/23
f 89/32/24 23/33/25 21/34/26
f 93/35/27 25/36/28 23/33/25
f 97/37/29 27/38/30 25/36/28
f 101/39/31 29/40/32 27/41/30
f 105/42/33 31/31/23 29/40/32
f 18/43/4 30/44/4 26/45/4
f 82/46/34 19/47/35 17/30/22
f 29/48/2 31/49/2 23/50/2
f 141/51/36 33/52/22 47/53/23
f 121/54/37 39/55/25 37/56/26
f 125/57/38 41/58/28 39/55/25
f 129/59/39 43/60/30 41/58/28
f 133/61/40 45/62/32 43/63/30
f 137/64/41 47/53/23 45/62/32
f 34/65/4 46/66/4 42/67/4
f 114/68/42 35/69/35 33/52/22
f 45/70/2 47/71/2 39/72/2
f 53/73/43 5/18/11 3/27/20
f 14/74/17 78/75/44 74/76/45
f 12/77/15 74/76/45 70/78/46
f 10/79/13 70/78/46 66/80/47
f 8/81/10 66/80/47 62/82/48
f 6/83/11 62/82/48 58/84/49
f 4/85/20 58/84/49 54/86/50
f 2/87/7 54/86/50 49/88/51
f 49/89/51 80/90/52 78/75/44
f 51/91/53 79/92/54 80/90/52
f 52/93/55 77/13/6 79/92/54
f 74/76/45 80/90/52 76/94/56
f 80/90/52 75/95/57 76/94/56
f 75/95/57 77/13/6 73/25/18
f 74/76/45 72/96/58 70/78/46
f 76/94/56 71/97/59 72/96/58
f 71/97/59 73/25/18 69/23/16
f 70/78/46 68/98/60 66/80/47
f 72/96/58 67/99/61 68/98/60
f 71/97/59 65/21/14 67/99/61
f 66/80/47 64/100/62 62/82/48
f 68/98/60 63/101/63 64/100/62
f 67/99/61 61/19/12 63/101/63
f 62/82/48 60/102/64 58/84/49
f 64/100/62 59/103/65 60/102/64
f 63/101/63 57/16/9 59/103/65
f 58/84/49 56/104/66 54/86/50
f 60/102/64 55/105/67 56/104/66
f 55/105/67 57/16/9 53/73/43
f 54/86/50 51/106/53 49/88/51
f 56/104/66 52/107/55 51/106/53
f 52/107/55 53/73/43 50/26/19
f 16/108/8 49/89/51 78/75/44
f 85/109/68 21/34/26 19/47/35
f 30/110/32 110/111/69 106/112/70
f 102/113/71 30/110/32 106/112/70
f 26/114/28 102/115/71 98/116/72
f 24/117/25 98/116/72 94/118/73
f 22/119/26 94/118/73 90/120/74
f 20/121/35 90/120/74 86/122/75
f 18/123/22 86/122/75 81/124/76
f 110/111/69 83/125/77 112/126/78
f 83/125/77 111/127/79 112/126/78
f 84/128/80 109/29/21 111/127/79
f 110/111/69 108/129/81 106/112/70
f 112/126/78 107/130/82 108/129/81
f 111/127/79 105/42/33 107/130/82
f 102/113/71 108/129/81 104/131/83
f 108/129/81 103/132/84 104/131/83
f 107/130/82 101/39/31 103/132/84
f 102/115/71 100/133/85 98/116/72
f 104/134/83 99/135/86 100/133/85
f 103/136/84 97/37/29 99/135/86
f 98/116/72 96/137/87 94/118/73
f 100/133/85 95/138/88 96/137/87
f 95/138/88 97/37/29 93/35/27
f 90/120/74 96/137/87 92/139/89
f 96/137/87 91/140/90 92/139/89
f 91/140/90 93/35/27 89/32/24
f 90/120/74 88/141/91 86/122/75
f 92/139/89 87/142/92 88/141/91
f 91/140/90 85/109/68 87/142/92
f 86/122/75 83/125/77 81/124/76
f 88/141/91 84/128/80 83/125/77
f 87/142/92 82/46/34 84/128/80
f 32/143/23 81/124/76 110/111/69
f 117/144/93 37/56/26 35/69/35
f 46/145/32 142/146/94 138/147/95
f 44/148/30 138/147/95 134/149/96
f 42/150/28 134/151/96 130/152/97
f 40/153/25 130/152/97 126/154/98
f 38/155/26 126/154/98 122/156/99
f 36/157/35 122/156/99 118/158/100
f 34/159/22 118/158/100 113/160/101
f 142/146/94 115/161/102 144/162/103
f 115/161/102 143/163/104 144/162/103
f 116/164/105 141/51/36 143/163/104
f 142/146/94 140/165/106 138/147/95
f 144/162/103 139/166/107 140/165/106
f 143/163/104 137/64/41 139/166/107
f 134/149/96 140/165/106 136/167/108
f 140/165/106 135/168/109 136/167/108
f 139/166/107 133/61/40 135/168/109
f 134/151/96 132/169/110 130/152/97
f 136/170/108 131/171/111 132/169/110
f 135/172/109 129/59/39 131/171/111
f 130/152/97 128/173/112 126/154/98
f 132/169/110 127/174/113 128/173/112
f 131/171/111 125/57/38 127/174/113
f 126/154/98 124/175/114 122/156/99
f 128/173/112 123/176/115 124/175/114
f 127/174/113 121/54/37 123/176/115
f 122/156/99 120/177/116 118/158/100
f 124/175/114 119/178/117 120/177/116
f 119/178/117 121/54/37 117/144/93
f 118/158/100 115/161/102 113/160/101
f 120/177/116 116/164/105 115/161/102
f 119/178/117 114/68/42 116/164/105
f 48/179/23 113/160/101 142/146/94
f 77/13/6 50/180/19 1/14/7
f 57/16/9 61/19/12 7/17/10
f 61/19/12 65/21/14 9/20/13
f 65/21/14 69/23/16 11/22/15
f 69/23/16 73/25/18 13/24/17
f 73/25/18 77/13/6 15/15/8
f 50/26/19 53/73/43 3/27/20
f 109/29/21 82/46/34 17/30/22
f 89/32/24 93/35/27 23/33/25
f 93/35/27 97/37/29 25/36/28
f 97/37/29 101/181/31 27/38/30
f 101/39/31 105/42/33 29/40/32
f 105/42/33 109/29/21 31/31/23
f 22/182/4 20/183/4 18/43/4
f 18/43/4 32/184/4 30/44/4
f 30/44/4 28/185/4 26/45/4
f 26/45/4 24/186/4 22/182/4
f 22/182/4 18/43/4 26/45/4
f 82/46/34 85/109/68 19/47/35
f 31/49/2 17/187/2 23/50/2
f 17/187/2 19/188/2 23/50/2
f 19/188/2 21/189/2 23/50/2
f 23/50/2 25/190/2 27/191/2
f 27/191/2 29/48/2 23/50/2
f 141/51/36 114/68/42 33/52/22
f 121/54/37 125/57/38 39/55/25
f 125/57/38 129/59/39 41/58/28
f 129/59/39 133/192/40 43/60/30
f 133/61/40 137/64/41 45/62/32
f 137/64/41 141/51/36 47/53/23
f 38/193/4 36/194/4 34/65/4
f 34/65/4 48/195/4 46/66/4
f 46/66/4 44/196/4 42/67/4
f 42/67/4 40/197/4 38/193/4
f 38/193/4 34/65/4 42/67/4
f 114/68/42 117/144/93 35/69/35
f 47/71/2 33/198/2 39/72/2
f 33/198/2 35/199/2 39/72/2
f 35/199/2 37/200/2 39/72/2
f 39/72/2 41/201/2 43/202/2
f 43/202/2 45/70/2 39/72/2
f 53/73/43 57/16/9 5/18/11
f 14/74/17 16/108/8 78/75/44
f 12/77/15 14/74/17 74/76/45
f 10/79/13 12/77/15 70/78/46
f 8/81/10 10/79/13 66/80/47
f 6/83/11 8/81/10 62/82/48
f 4/85/20 6/83/11 58/84/49
f 2/87/7 4/85/20 54/86/50
f 49/89/51 51/91/53 80/90/52
f 51/91/53 52/93/55 79/92/54
f 52/93/55 50/180/19 77/13/6
f 74/76/45 78/75/44 80/90/52
f 80/90/52 79/92/54 75/95/57
f 75/95/57 79/92/54 77/13/6
f 74/76/45 76/94/56 72/96/58
f 76/94/56 75/95/57 71/97/59
f 71/97/59 75/95/57 73/25/18
f 70/78/46 72/96/58 68/98/60
f 72/96/58 71/97/59 67/99/61
f 71/97/59 69/23/16 65/21/14
f 66/80/47 68/98/60 64/100/62
f 68/98/60 67/99/61 63/101/63
f 67/99/61 65/21/14 61/19/12
f 62/82/48 64/100/62 60/102/64
f 64/100/62 63/101/63 59/103/65
f 63/101/63 61/19/12 57/16/9
f 58/84/49 60/102/64 56/104/66
f 60/102/64 59/103/65 55/105/67
f 55/105/67 59/103/65 57/16/9
f 54/86/50 56/104/66 51/106/53
f 56/104/66 55/105/67 52/107/55
f 52/107/55 55/105/67 53/73/43
f 16/108/8 2/203/7 49/89/51
f 85/109/68 89/32/24 21/34/26
f 30/110/32 32/143/23 110/111/69
f 102/113/71 28/204/30 30/110/32
f 26/114/28 28/205/30 102/115/71
f 24/117/25 26/114/28 98/116/72
f 22/119/26 24/117/25 94/118/73
f 20/121/35 22/119/26 90/120/74
f 18/123/22 20/121/35 86/122/75
f 110/111/69 81/124/76 83/125/77
f 83/125/77 84/128/80 111/127/79
f 84/128/80 82/46/34 109/29/21
f 110/111/69 112/126/78 108/129/81
f 112/126/78 111/127/79 107/130/82
f 111/127/79 109/29/21 105/42/33
f 102/113/71 106/112/70 108/129/81
f 108/129/81 107/130/82 103/132/84
f 107/130/82 105/42/33 101/39/31
f 102/115/71 104/134/83 100/133/85
f 104/134/83 103/136/84 99/135/86
f 103/136/84 101/181/31 97/37/29
f 98/116/72 100/133/85 96/137/87
f 100/133/85 99/135/86 95/138/88
f 95/138/88 99/135/86 97/37/29
f 90/120/74 94/118/73 96/137/87
f 96/137/87 95/138/88 91/140/90
f 91/140/90 95/138/88 93/35/27
f 90/120/74 92/139/89 88/141/91
f 92/139/89 91/140/90 87/142/92
f 91/140/90 89/32/24 85/109/68
f 86/122/75 88/141/91 83/125/77
f 88/141/91 87/142/92 84/128/80
f 87/142/92 85/109/68 82/46/34
f 32/143/23 18/123/22 81/124/76
f 117/144/93 121/54/37 37/56/26
f 46/145/32 48/179/23 142/146/94
f 44/148/30 46/145/32 138/147/95
f 42/150/28 44/206/30 134/151/96
f 40/153/25 42/150/28 130/152/97
f 38/155/26 40/153/25 126/154/98
f 36/157/35 38/155/26 122/156/99
f 34/159/22 36/157/35 118/158/100
f 142/146/94 113/160/101 115/161/102
f 115/161/102 116/164/105 143/163/104
f 116/164/105 114/68/42 141/51/36
f 142/146/94 144/162/103 140/165/106
f 144/162/103 143/163/104 139/166/107
f 143/163/104 141/51/36 137/64/41
f 134/149/96 138/147/95 140/165/106
f 140/165/106 139/166/107 135/168/109
f 139/166/107 137/64/41 133/61/40
f 134/151/96 136/170/108 132/169/110
f 136/170/108 135/172/109 131/171/111
f 135/172/109 133/192/40 129/59/39
f 130/152/97 132/169/110 128/173/112
f 132/169/110 131/171/111 127/174/113
f 131/171/111 129/59/39 125/57/38
f 126/154/98 128/173/112 124/175/114
f 128/173/112 127/174/113 123/176/115
f 127/174/113 125/57/38 121/54/37
f 122/156/99 124/175/114 120/177/116
f 124/175/114 123/176/115 119/178/117
f 119/178/117 123/176/115 121/54/37
f 118/158/100 120/177/116 115/161/102
f 120/177/116 119/178/117 116/164/105
f 119/178/117 117/144/93 114/68/42
f 48/179/23 34/159/22 113/160/101
